<svg id="abf2e7bf-89a1-4ec3-95c4-ac0fc1ef9bb3" data-name="Слой 1" xmlns="http://www.w3.org/2000/svg" viewBox="0 0 142.95789 65.15045">
  <title>binex</title>
  <g>
    <path d="M52.64357,56.79028c3.04113-.16705,5.84636-.4193,8.65394-.449a15.2116,15.2116,0,0,1,8.6051,2.46408c4.07961,2.61284,5.33287,6.698,5.69547,10.95238.48958,5.74458.899,11.58034-1.53782,17.14671-1.53968,3.51707-4.05859,6.00388-7.687,6.84073-5.803,1.33843-11.68875.33031-17.53408-.12629-1.39514-.109-2.03323-.80481-2.0302-2.287q.04679-22.90295.00838-45.806c-.00153-1.44917.53185-2.23076,2.07443-2.12871a11.861,11.861,0,0,0,1.86408-.00331c1.45693-.1343,1.9409.52324,1.90914,1.9396-.0697,3.10745-.02153,6.21753-.02149,9.32654C52.64357,55.33262,52.64357,56.00525,52.64357,56.79028Zm-.001,18.60617c0,3.93926.04954,7.87948-.02706,11.81725-.02655,1.36531.31919,2.0343,1.79622,2.04575,2.20889.01711,4.41759.279,6.62473.25859,5.13979-.04749,8.455-3.12025,8.71832-8.288.19663-3.85989.18118-7.74335.0149-11.60575-.20676-4.80257-3.42223-7.893-8.259-8.05965-2.34173-.08069-4.693.15522-7.04094.20038-1.374.02643-1.89211.58123-1.8568,2.02179C52.70772,67.65463,52.64528,71.5263,52.64253,75.39645Z" transform="translate(-46.809 -29.31022)" style="fill: #999bbf"/>
    <path d="M143.07959,77.14676c-3.38592,0-6.77325.05689-10.15707-.02746-1.3915-.03468-1.98657.48538-1.703,1.79436a38.64073,38.64073,0,0,0,1.69983,6.7049c1.24011,2.97737,4.10336,3.85133,7.0069,3.85156,4.06587.00032,8.13215-.39431,12.19737-.63518,1.00905-.05977,2.31408-.50584,2.38543,1.074.06153,1.36254.79379,3.326-1.57262,3.60328-6.10912.71587-12.30727,1.64721-18.34221.14119-4.7708-1.19057-7.71924-4.95-8.77722-9.61994a37.3699,37.3699,0,0,1,.02827-17.262c1.38952-5.61832,5.22069-9.11913,11.00792-10.13153,5.17654-.90556,10.00924-.18608,14.152,3.431,3.24185,2.83044,3.96947,6.63928,4.32375,10.6004.135,1.50908-.0175,3.0421.07512,4.55724.09014,1.47453-.57444,1.94457-1.95961,1.92575-3.45438-.047-6.90985-.01547-10.36487-.01547Zm6.49128-4.4425c.09067-4.19336-.39078-8.05059-4.2404-10.07414a10.01276,10.01276,0,0,0-10.81915.69116c-2.50434,1.73652-3.80283,6.08043-2.95555,9.383Z" transform="translate(-46.809 -29.31022)" style="fill: #999bbf"/>
    <path d="M120.478,93.89543a26.05361,26.05361,0,0,1-4.52894-.09238c-.50151-.09018-1.14755-1.24536-1.15593-1.92114-.08666-6.98306-.03027-13.96776-.07882-20.95155a25.277,25.277,0,0,0-.45587-4.524,5.37846,5.37846,0,0,0-4.87256-4.64284,16.518,16.518,0,0,0-5.53484.21331c-6.08323,1.48758-6.07555,1.594-6.07628,7.75145-.00086,7.26073-.06274,14.52233.03912,21.78162.02751,1.96014-.661,2.64963-2.52058,2.4322a10.40587,10.40587,0,0,0-1.8652-.01167c-1.22466.07869-1.75643-.44283-1.75438-1.69051q.02748-16.69959.00056-33.39924c-.00245-1.513.69343-2.04369,2.1622-2.07553,3.53726-.07671,3.61853-.07545,4.1727,2.68889.51029-.23315,1.00184-.41288,1.44941-.66933a18.25906,18.25906,0,0,1,11.57769-2.35229,10.227,10.227,0,0,1,9.32641,9.82985C120.78793,75.3556,120.478,84.48332,120.478,93.89543Z" transform="translate(-46.809 -29.31022)" style="fill: #999bbf"/>
    <path d="M189.3488,93.89427a43.75242,43.75242,0,0,1-5.3047-.07327c-.64742-.0795-1.31409-.90592-1.76439-1.53931C179.453,88.30562,176.6832,84.289,173.90158,80.281a9.6158,9.6158,0,0,1-.49831-.99337c-2.12915,2.90924-3.99889,5.42444-5.82457,7.97123-1.43775,2.00566-2.75506,4.10224-4.27759,6.03916-.3583.4558-1.31861.54823-2.01778.6019-1.21407.09322-2.44047.02591-4.13578.02591.91928-1.61117,1.51276-2.89086,2.31758-4.01988,3.26361-4.57829,6.63015-9.0838,9.84322-13.69663a2.53645,2.53645,0,0,0-.11224-2.2939c-3.087-4.53064-6.29208-8.98081-9.46228-13.45476a2.19951,2.19951,0,0,1-.25273-.3265c-.40965-.91956-.80773-1.84427-1.20941-2.76737.96175-.19355,1.927-.37133,2.88464-.58343,3.70573-.82072,4.59539,2.43829,6.14733,4.45887,2.19936,2.8635,4.03491,6.00644,6.25484,9.37757.97407-1.4113,1.76464-2.56648,2.56519-3.71469,2.15831-3.09562,4.2269-6.262,6.5538-9.22547.52156-.66422,1.93923-.70437,2.97035-.86448a24.76443,24.76443,0,0,1,3.25956-.02783,16.82672,16.82672,0,0,1-1.23027,2.85858c-2.58815,3.72363-5.24206,7.40182-7.89689,11.07863a31.76441,31.76441,0,0,1-2.08052,2.56712,1.86265,1.86265,0,0,0-.13048,2.7231c3.08715,4.21092,6.09463,8.48045,9.11348,12.74113,1.05492,1.48887,2.05762,3.01475,3.08418,4.52372Z" transform="translate(-46.809 -29.31022)" style="fill: #999bbf"/>
    <path d="M86.438,75.4558c.0006,5.32306-.06551,10.64738.03639,15.96848.03576,1.86735-.50467,2.58141-2.45308,2.542-3.67509-.07428-3.68082.02461-3.68169-3.731q-.00354-15.347.0005-30.694c.00121-2.604.18-2.75161,3.11669-2.75273,2.73806-.001,2.972.196,2.9772,2.69807C86.445,64.80965,86.43735,70.13274,86.438,75.4558Z" transform="translate(-46.809 -29.31022)" style="fill: #999bbf"/>
    <path d="M173.23376,29.31022c5.38172,7.40683,10.47036,14.41031,15.95724,21.96185a43.94058,43.94058,0,0,1-5.55086-.0722c-.65165-.09134-1.32235-.89178-1.75983-1.52486-2.30933-3.34186-4.52388-6.74909-6.81888-10.10106-1.24806-1.82287-1.74389-1.77661-2.93675.04159-2.15026,3.27749-4.39008,6.499-6.44761,9.83331a3.44786,3.44786,0,0,1-3.69424,1.93054,41.14723,41.14723,0,0,0-4.2132-.026C162.54036,43.54973,168.08677,36.90752,173.23376,29.31022Z" transform="translate(-46.809 -29.31022)" style="fill: #999bbf"/>
    <path d="M86.55858,47.58617c-.03615,4.27487.45252,3.664-3.90389,3.84381-1.996.08241-2.58258-.68747-2.3911-2.49577a19.52452,19.52452,0,0,0,.01271-2.05792c-.00214-3.47923.00592-3.48762,3.3958-3.47354C86.56024,43.41475,86.56024,43.41475,86.55858,47.58617Z" transform="translate(-46.809 -29.31022)" style="fill: #999bbf"/>
  </g>
</svg>
