<svg width="75" height="75" viewBox="0 0 75 75" fill="none" xmlns="http://www.w3.org/2000/svg">
<g clip-path="url(#clip0)">
<g clip-path="url(#clip1)">
<path d="M24.3683 13.3377C11.0225 20.5896 6.08566 37.2857 13.3376 50.6315C20.5895 63.9773 37.2855 68.9141 50.6313 61.6622C63.9631 54.3889 68.8935 37.6989 61.6519 24.3498C54.3928 11.0175 37.7066 6.08989 24.3683 13.3377ZM48.4431 57.6432C37.3241 63.6972 23.4022 59.591 17.3482 48.472C11.2942 37.3531 15.4003 23.4312 26.5193 17.3772C37.6405 11.3365 51.5509 15.4392 57.6141 26.5483C63.668 37.6672 59.562 51.5892 48.4431 57.6432Z" fill="white"/>
<path d="M43.3642 32.7803C44.4837 30.9904 44.3643 28.6926 43.0679 27.0282C41.1572 24.4091 37.2122 25.1755 34.4355 26.3966L32.1251 22.1532L29.508 23.5781L31.7981 27.7842L30.0409 28.7409L27.7508 24.5348L25.1337 25.9598L27.4238 30.1658L22.1521 33.0361L23.628 35.7467L25.5908 34.678C26.4695 34.1996 27.0419 34.2272 27.4286 34.9376L33.7696 46.5837C34.2989 47.5557 33.9757 48.1195 33.4523 48.4045L31.4521 49.4935L32.9585 52.2602L38.0431 49.4917L40.3841 53.7912L43.0199 52.3561L40.6789 48.0566L42.4361 47.0999L44.7771 51.3994L47.3381 50.005L44.9971 45.7054L45.5579 45.4001C50.9417 42.4688 51.3012 38.8559 49.347 35.2667C48.1517 33.1739 45.6929 32.1522 43.3642 32.7803ZM31.6083 31.6197L33.4776 30.6019C34.7861 29.8895 37.488 28.7092 38.6483 30.8403C39.4953 32.1822 39.1514 33.9497 37.8655 34.8775L34.4073 36.7605L31.6083 31.6197ZM41.834 43.5014L41.8238 43.4828L38.9263 45.0604L35.8729 39.4523L39.2378 37.6202C40.0229 37.1927 43.1189 35.8463 44.2589 37.94C45.3988 40.0337 44.6381 41.9747 41.834 43.5014Z" fill="white"/>
</g>
</g>
<defs>
<clipPath id="clip0">
<rect x="0.197754" y="26.4982" width="55" height="55" transform="rotate(-28.5672 0.197754 26.4982)" fill="white"/>
</clipPath>
<clipPath id="clip1">
<rect x="0.197754" y="26.4982" width="55" height="55" transform="rotate(-28.5672 0.197754 26.4982)" fill="white"/>
</clipPath>
</defs>
</svg>
