<svg width="76" height="76" viewBox="0 0 76 76" fill="none" xmlns="http://www.w3.org/2000/svg">
<g clip-path="url(#clip0)">
<g clip-path="url(#clip1)">
<path d="M51.8941 14.3958C38.6906 6.88791 21.9039 11.5069 14.3959 24.7104C6.88798 37.9138 11.507 54.7006 24.7104 62.2086C37.9247 69.6933 54.7029 65.072 62.2191 51.8755C69.7118 38.6731 65.0902 21.8996 51.8941 14.3958ZM26.9691 58.2286C15.9585 51.9799 12.0982 37.9877 18.3469 26.9771C24.5957 15.9665 38.5877 12.1061 49.5984 18.3549C60.5989 24.6126 64.4561 38.5931 58.2206 49.6063C51.9718 60.6169 37.9798 64.4774 26.9691 58.2286Z" fill="white"/>
<path d="M45.4062 40.792C47.5173 40.7982 49.406 39.484 50.1355 37.5044C51.3516 34.4991 48.6184 31.5529 46.1158 29.8389L48.5005 25.6369L45.9089 24.1661L43.5451 28.3312L41.8051 27.3436L44.1689 23.1786L41.5773 21.7078L39.2135 25.8728L33.9932 22.9102L32.4698 25.5944L34.4135 26.6975C35.2836 27.1913 35.5623 27.6921 35.1631 28.3954L28.618 39.9281C28.0718 40.8907 27.4223 40.9138 26.904 40.6196L24.9233 39.4955L23.3684 42.2352L28.4036 45.0928L25.9873 49.3504L28.5974 50.8317L31.0137 46.5741L32.7537 47.5616L30.3374 51.8192L32.8735 53.2585L35.2899 49.0009L35.8452 49.316C41.1765 52.3417 44.4349 50.7401 46.452 47.1859C47.5987 45.0662 47.1688 42.4385 45.4062 40.792ZM40.1871 30.1944L42.0383 31.2449C43.3341 31.9803 45.7626 33.6523 44.565 35.7626C43.8722 37.1903 42.1894 37.831 40.7227 37.2285L37.2981 35.285L40.1871 30.1944ZM35.4924 45.151L35.5028 45.1325L32.6336 43.5041L35.7853 37.9506L39.1174 39.8416C39.8949 40.2829 42.6726 42.2019 41.4959 44.2752C40.3193 46.3485 38.2691 46.7268 35.4924 45.151Z" fill="white"/>
</g>
</g>
<defs>
<clipPath id="clip0">
<rect x="27.9587" y="0.812134" width="55" height="55" transform="rotate(29.5758 27.9587 0.812134)" fill="white"/>
</clipPath>
<clipPath id="clip1">
<rect x="27.9587" y="0.812134" width="55" height="55" transform="rotate(29.5758 27.9587 0.812134)" fill="white"/>
</clipPath>
</defs>
</svg>
