<?xml version="1.0" encoding="utf-8"?>
<!-- Generator: Adobe Illustrator 23.0.5, SVG Export Plug-In . SVG Version: 6.00 Build 0)  -->
<svg version="1.1" id="Слой_1" xmlns="http://www.w3.org/2000/svg" xmlns:xlink="http://www.w3.org/1999/xlink" x="0px" y="0px"
	 viewBox="0 0 32 32" style="enable-background:new 0 0 32 32;" xml:space="preserve">
<style type="text/css">
	.st0{fill:#FFFFFF;}
</style>
<path class="st0" d="M10.9,12.5l5-2.9l5,2.9l-5,2.9L10.9,12.5L10.9,12.5z M21.1,12.4l2.6-1.5l-7.7-4.5l-7.8,4.5v9l7.8,4.5l7.7-4.5
	l-2.7-1.6l-5,2.9l-5-2.9v-2.6l5,2.9l5-2.9v2.6l2.7,1.6v-9C23.6,10.9,21.1,12.4,21.1,12.4z"/>
<g>
	<path class="st0" d="M16,2.3c7.6,0,13.7,6.1,13.7,13.7S23.6,29.7,16,29.7S2.3,23.6,2.3,16S8.4,2.3,16,2.3 M16,0C7.2,0,0,7.2,0,16
		s7.2,16,16,16s16-7.2,16-16S24.8,0,16,0L16,0z"/>
</g>
</svg>
