<svg width="144" height="144" viewBox="0 0 144 144" fill="none" xmlns="http://www.w3.org/2000/svg">
<path d="M104.112 71.505C104.112 77.7277 102.266 83.8106 98.8092 88.9845C95.3521 94.1585 90.4384 98.1911 84.6894 100.572C78.9404 102.954 72.6144 103.577 66.5113 102.363C60.4082 101.149 54.8022 98.1523 50.4021 93.7522C46.002 89.3521 43.0055 83.7461 41.7916 77.643C40.5776 71.5399 41.2006 65.2139 43.5819 59.4649C45.9632 53.7159 49.9958 48.8022 55.1698 45.3451C60.3437 41.888 66.4266 40.0427 72.6493 40.0427V48.7974C68.1581 48.7974 63.7679 50.1292 60.0336 52.6243C56.2994 55.1195 53.3889 58.6659 51.6702 62.8152C49.9515 66.9645 49.5018 71.5302 50.378 75.935C51.2542 80.3399 53.4169 84.386 56.5926 87.5617C59.7683 90.7374 63.8144 92.9001 68.2193 93.7763C72.6241 94.6525 77.1898 94.2028 81.3391 92.4841C85.4884 90.7654 89.0348 87.8549 91.53 84.1207C94.0251 80.3864 95.3569 75.9961 95.3569 71.505H104.112Z" fill="#8016EB"/>
<path d="M36 36C43.1201 28.8799 52.1917 24.031 62.0676 22.0666C71.9435 20.1021 82.1802 21.1103 91.483 24.9637C100.786 28.8171 108.737 35.3426 114.332 43.715C119.926 52.0874 122.912 61.9306 122.912 72C122.912 82.0694 119.926 91.9126 114.332 100.285C108.737 108.657 100.786 115.183 91.4831 119.036C82.1802 122.89 71.9435 123.898 62.0676 121.933C52.1917 119.969 43.1201 115.12 36 108L46.0173 97.9827C51.1562 103.122 57.7036 106.621 64.8314 108.039C71.9592 109.457 79.3474 108.729 86.0617 105.948C92.776 103.167 98.5148 98.4571 102.552 92.4145C106.59 86.3718 108.745 79.2675 108.745 72C108.745 64.7325 106.59 57.6282 102.552 51.5855C98.5148 45.5429 92.776 40.8331 86.0617 38.052C79.3474 35.2709 71.9592 34.5432 64.8314 35.961C57.7035 37.3788 51.1562 40.8784 46.0173 46.0173L36 36Z" fill="#8016EB"/>
</svg>
