<svg id="a46e0d6b-aa41-4d52-8c75-f5019fe02e6f" data-name="Слой 1" xmlns="http://www.w3.org/2000/svg" viewBox="0 0 129.46278 201.43719">
  <title>coins</title>
  <path d="M946.40273,419.25689a28.92128,28.92128,0,1,1,22.0915-34.48111A28.95573,28.95573,0,0,1,946.40273,419.25689Zm5.72975-34.54161c-.25941-3.82237-3.52368-5.18927-7.67734-5.66615l.14849-5.28931-3.225-.08545-.1458,5.14989c-.84773-.02426-1.71357-.02972-2.57765-.03557l.14765-5.18362-3.22543-.08721-.14888,5.28754c-.69881-.00524-1.38622-.00929-2.05473-.02861l0-.01667-4.45006-.121-.09617,3.438s2.38471.01884,2.34393.06114a1.6635,1.6635,0,0,1,1.81571,1.462l-.16831,6.02478a2.79074,2.79074,0,0,1,.34069.03045l-.34133-.0081-.2373,8.44061a1.14258,1.14258,0,0,1-1.24384,1.03288c.04157.03711-2.34431-.06291-2.34431-.06291l-.74913,3.82613,4.19972.11322c.78051.0224,1.54882.05675,2.302.08148l-.14843,5.34852,3.22328.08584.14849-5.2893c.88463.04019,1.741.07,2.57731.093l-.14962,5.26734,3.22505.08545.15077-5.33792c5.43372-.16418,9.26762-1.4252,9.88193-6.49506.49623-4.08137-1.38178-5.96095-4.44021-6.7809A4.98466,4.98466,0,0,0,952.13248,384.71528ZM947.29616,396.031c-.1083,3.99776-6.95681,3.3575-9.14393,3.30068l.20148-7.08711C940.5416,392.30494,947.41508,391.86248,947.29616,396.031Zm-1.21886-10.03924c-.10234,3.63738-5.81138,3.05706-7.63122,3.00818l.18026-6.42536C940.44618,382.62348,946.18413,382.19794,946.0773,385.99178Z" transform="translate(-911.18577 -304.2207)" style="fill: #fff;fill-rule: evenodd"/>
  <path d="M1017.87526,504.97117a28.92128,28.92128,0,1,1,22.0915-34.48111A28.95573,28.95573,0,0,1,1017.87526,504.97117Zm5.72975-34.54161c-.25941-3.82237-3.52369-5.18926-7.67734-5.66615l.14849-5.2893-3.22505-.08545-.14581,5.14989c-.84772-.02426-1.71356-.02972-2.57764-.03557l.14765-5.18362-3.22544-.08722-.14888,5.28754c-.6988-.00524-1.38621-.00929-2.05472-.0286l0-.01667-4.45006-.121-.09617,3.438s2.3847.01885,2.34393.06115a1.6635,1.6635,0,0,1,1.81571,1.462l-.16831,6.02477a2.791,2.791,0,0,1,.34069.03046l-.34133-.0081-.2373,8.44061a1.14259,1.14259,0,0,1-1.24384,1.03288c.04157.03711-2.34431-.06292-2.34431-.06292l-.74913,3.82614,4.19971.11321c.78052.02241,1.54882.05676,2.302.08149l-.14844,5.34851,3.22329.08585.14849-5.28931c.88463.0402,1.741.07,2.57731.093l-.14962,5.26734,3.22505.08545.15077-5.33793c5.43372-.16417,9.26762-1.42519,9.88193-6.495.49622-4.08137-1.38178-5.96095-4.44022-6.7809A4.98466,4.98466,0,0,0,1023.605,470.42956Zm-4.83633,11.31574c-.10829,3.99777-6.95681,3.35751-9.14392,3.30069l.20148-7.08711C1012.01413,478.01923,1018.8876,477.57676,1018.76868,481.7453Zm-1.21885-10.03923c-.10234,3.63738-5.81139,3.05706-7.63122,3.00817l.18026-6.42536C1011.91871,468.33777,1017.65666,467.91223,1017.54983,471.70607Z" transform="translate(-911.18577 -304.2207)" style="fill: #fff;fill-rule: evenodd"/>
  <path d="M1007.865,361.39543a28.92128,28.92128,0,1,1,22.09151-34.48111A28.95571,28.95571,0,0,1,1007.865,361.39543Zm5.72975-34.54161c-.25941-3.82237-3.52368-5.18926-7.67734-5.66615l.14849-5.2893-3.22505-.08545-.1458,5.14989c-.84773-.02426-1.71357-.02972-2.57765-.03557l.14765-5.18362-3.22543-.08722-.14888,5.28754c-.69881-.00524-1.38622-.00929-2.05473-.0286l0-.01667-4.45006-.121-.09616,3.438s2.3847.01885,2.34392.06115a1.66349,1.66349,0,0,1,1.81571,1.462l-.16831,6.02477a2.79134,2.79134,0,0,1,.3407.03046l-.34134-.0081-.23729,8.44061a1.1426,1.1426,0,0,1-1.24385,1.03288c.04157.03711-2.34431-.06292-2.34431-.06292l-.74913,3.82614,4.19972.11321c.78051.02241,1.54882.05676,2.302.08149l-.14843,5.34851,3.22328.08585.14849-5.28931c.88463.0402,1.741.07,2.57731.093l-.14962,5.26734,3.22506.08545.15076-5.33793c5.43372-.16417,9.26762-1.42519,9.88193-6.495.49623-4.08137-1.38178-5.96095-4.44021-6.7809A4.98467,4.98467,0,0,0,1013.59479,326.85382Zm-4.83632,11.31574c-.1083,3.99777-6.95681,3.35751-9.14392,3.30069l.20147-7.08711C1002.00391,334.44349,1008.87739,334.001,1008.75847,338.16956Zm-1.21886-10.03923c-.10233,3.63738-5.81138,3.05706-7.63122,3.00817l.18026-6.42536C1001.90849,324.762,1007.64645,324.33649,1007.53961,328.13033Z" transform="translate(-911.18577 -304.2207)" style="fill: #fff;fill-rule: evenodd"/>
</svg>
