<svg id="fb87ece0-6489-4544-b6c5-a5a2f745754b" data-name="Слой 1" xmlns="http://www.w3.org/2000/svg" viewBox="0 0 202.38327 34.32456">
  <title>finmax</title>
  <g>
    <path d="M491.71379,87.73438c.92382-.31683.997-.9579,1.15419-1.57984,1.71561-6.78642,4.257-13.30546,6.45579-19.93575a1.32631,1.32631,0,0,1,1.5304-1.02849c1.70794.05022,3.41972.05761,5.12725.0011.94685-.03135,1.29621.27451,1.34809,1.25744.38,7.2.818,14.39688,1.23267,21.595.14126,2.45243.24167,4.90757.41629,7.35752.059.82727-.16061,1.21433-1.03359,1.1193a10.38494,10.38494,0,0,0-1.12107-.00525c-3.46593.00121-3.478.00164-3.6094-3.3879q-.40337-10.40668-.78456-20.81426c-.0069-.18364-.02258-.367-.03559-.57326-.65241.11051-.57927.58495-.66345.88655-2.09558,7.5061-4.93343,14.76616-7.31071,22.17783a1.65723,1.65723,0,0,1-1.94383,1.34305c-2.9602-.05561-2.98431.00214-3.85487-2.791-2.142-6.87217-4.48129-13.68706-6.06431-20.72312a1.66645,1.66645,0,0,0-.49663-.89738c-.03567.42906-.08416.8575-.10512,1.28728-.35664,7.3084-.73751,14.61585-1.037,21.92661-.05068,1.23729-.42546,1.61217-1.673,1.59664-3.86268-.0481-3.89508.00244-3.64264-3.796.58436-8.79208,1.21415-17.58115,1.7886-26.37386.05646-.86421.27593-1.224,1.20621-1.1891,1.81372.068,3.63289.05856,5.44745.00356a1.2164,1.2164,0,0,1,1.3792.99281c2.08431,6.61148,4.45281,13.1362,6.06187,19.89207C491.60623,86.58051,491.63041,87.10793,491.71379,87.73438Z" transform="translate(-364.22112 -63.57497)" style="fill: #999bbf"/>
    <path d="M464.3422,88.36561c-.105-2.38551-.26981-4.70952-.29675-7.03512-.057-4.91308-.00591-9.82755-.08265-14.74015-.0182-1.16463.38163-1.40993,1.46279-1.40907,3.95.00314,3.94979-.03468,3.9501,3.88355.00067,8.65231-.02375,17.30477.03174,25.95673.00769,1.20088-.3429,1.387-1.49451,1.55282-3.39549.489-5.33243-.76672-6.97855-3.84879-3.56543-6.67565-7.89944-12.9323-11.06221-19.84324a2.0614,2.0614,0,0,0-.34349-.38645c-.30652.44247-.15006.86479-.13479,1.25349.28091,7.15376.21309,14.311.25028,21.46748.00491.94322-.22435,1.29655-1.23693,1.32417-4.15793.11341-4.15682.1482-4.15683-3.98166,0-8.49208.04137-16.98454-.03772-25.47589-.0147-1.579.52089-1.74947,1.96316-1.95508,3.583-.5108,5.52747.91445,7.22543,4.04421,3.45662,6.37142,7.655,12.33423,10.62221,18.98882C464.05412,88.23017,464.17213,88.26,464.3422,88.36561Z" transform="translate(-364.22112 -63.57497)" style="fill: #999bbf"/>
    <path d="M566.6044,96.51254c-2.1692,0-4.0295-.02844-5.88821.01337-.79228.01782-.94657-.54424-1.20528-1.06078q-2.43655-4.8647-4.88024-9.72582c-.20726-.41125-.24677-1.05931-.80381-1.0904-.58758-.03278-.63826.62095-.84336,1.02774-1.633,3.239-3.29655,6.46376-4.85707,9.73751a1.67164,1.67164,0,0,1-1.8304,1.11705c-1.68714-.06547-3.37866-.01866-5.35523-.01866,1.35889-2.32288,2.55188-4.37966,3.762-6.42634,1.60267-2.7107,3.18545-5.43416,4.84721-8.10837a2.17861,2.17861,0,0,0,.01382-2.60917c-2.53529-4.20531-4.96269-8.47555-7.48034-12.6917-.651-1.09021-.65862-1.33495.79067-1.53293,3.69344-.50455,6.10745.55127,7.38341,4.30473a54.50594,54.50594,0,0,0,3.52624,6.98558c1.64644-3.16659,3.29083-6.12907,4.73321-9.18684.73178-1.55139,1.62276-2.37706,3.39774-2.0585.62085.11143,1.28346-.03233,1.9183.02965.71063.06938,1.71526-.40638,2.06067.274.31933.629-.50428,1.31163-.86605,1.93777-2.29666,3.97474-4.58931,7.95293-6.97228,11.8759a2.30047,2.30047,0,0,0,.02522,2.74929c2.62953,4.33562,5.18622,8.71545,7.76646,13.081C566.05963,95.49627,566.25086,95.86856,566.6044,96.51254Z" transform="translate(-364.22112 -63.57497)" style="fill: #999bbf"/>
    <path d="M409.40162,80.88742c.00157-4.75487.03282-9.51011-.02151-14.26437-.01279-1.1192.32489-1.45145,1.4453-1.43966q7.69244.08093,15.386-.0029c1.13832-.01283,1.43615.35044,1.4317,1.45126-.01341,3.31209.03154,3.31336-3.22994,3.31427-2.61785.00073-5.23643.03354-7.85317-.02082-.97348-.02022-1.44727.15456-1.39593,1.2877.09177,2.026.08853,4.06192-.00011,6.08822-.04651,1.06321.38351,1.21951,1.29883,1.20458,2.99106-.04881,5.984.01421,8.97486-.04079,1.00579-.01849,1.38244.21723,1.38029,1.3208-.00664,3.40141.04629,3.40148-3.295,3.40138-2.24388-.00008-4.49033.06415-6.7306-.02564-1.21965-.04888-1.6707.24582-1.63352,1.56819.09756,3.46991-.00555,6.945.05494,10.41666.01785,1.02489-.23136,1.37755-1.31486,1.394-4.49946.06847-4.49889.1055-4.49888-4.43354Q409.4,86.49711,409.40162,80.88742Z" transform="translate(-364.22112 -63.57497)" style="fill: #999bbf"/>
    <path d="M432.18121,85.11112c.00035-3.36374.0308-6.72794-.01958-10.09093-.01379-.91947.27751-1.22094,1.17547-1.14622,1.478.123,3.36378-.59188,4.33409.278.91862.82358.27595,2.72479.28448,4.14848.03361,5.606-.01814,11.21271.039,16.81837.01163,1.14081-.33315,1.5036-1.444,1.4144-1.3743-.11036-3.19051.42769-4.0265-.26584-.97836-.81163-.28908-2.6946-.32645-4.1089C432.13572,89.81088,432.18087,87.4604,432.18121,85.11112Z" transform="translate(-364.22112 -63.57497)" style="fill: #999bbf"/>
    <path d="M435.19179,64.48352a3.08914,3.08914,0,1,1-3.34117,3.098A3.05377,3.05377,0,0,1,435.19179,64.48352Z" transform="translate(-364.22112 -63.57497)" style="fill: #999bbf"/>
    <path d="M398.53875,65.25854c.00405-1.20188-.274-1.69006-1.60224-1.6835q-15.61053.07716-31.22162.01012c-1.08132-.00335-1.49393.26927-1.48976,1.42538q.05667,15.69072-.004,31.38173c-.00532,1.23931.42384,1.5188,1.57829,1.5069,5.1764-.0534,10.35366-.02326,15.53061-.02395s10.35416-.02843,15.53066.02025c1.1835.01112,1.69438-.23066,1.68741-1.57544Q398.46792,80.78958,398.53875,65.25854Zm-13.32144,27.992c-.7463.471-1.03782-.496-1.42932-.89029-2.59534-2.6139-2.567-2.61337-5.20863-.0058-.3994.39428-.74955,1.38371-1.43285.89308a13.46831,13.46831,0,0,1-2.25661-2.44287c-.05731-.06866.189-.46.35968-.63887,1.76907-1.85341,3.55554-3.69017,5.32746-5.54083.41465-.43306.76556-.46658,1.20077-.00914,1.80282,1.89485,3.627,3.76929,5.4363,5.658a6.75415,6.75415,0,0,1,.51635.81209A20.85386,20.85386,0,0,1,385.21731,93.25051Zm4.28193-7.94717c-1.80337,1.815-1.77529,1.84294-3.5607.05475-1.24462-1.24655-2.53408-2.45242-3.71652-3.7554-.69-.76027-1.11682-.67071-1.77606.03078-1.46147,1.5551-3.00525,3.033-4.51967,4.53808-.26238.26076-.54543.50076-1.20321,1.101-.676-.83725-1.38055-1.63017-1.98985-2.49059-.46951-.66294.27-.9392.59631-1.27164,2.28077-2.32368,4.618-4.59244,6.87663-6.93712.78941-.8195,1.33647-.97086,2.20223-.06772,2.32662,2.42708,4.71908,4.79267,7.13483,7.13162C390.22738,84.29951,390.11806,84.68056,389.49924,85.30334Zm2.412-6.32781a4.70157,4.70157,0,0,0-.34226.33659c-1.85209,1.75721-1.27306,1.85967-3.1097.04461-2.08854-2.064-4.1552-4.15009-6.23424-6.22367-.25785-.25718-.5333-.49669-.85989-.79935-.35905.31868-.68521.58073-.9801.87423-2.23253,2.222-4.48974,4.42066-6.67038,6.69268-.75262.78414-1.305.9635-2.0097.024a6.44173,6.44173,0,0,0-1.01254-1.0214c-.55526-.469-.43985-.83348.03373-1.30283q4.94655-4.90225,9.84921-9.84858c.6211-.62831,1.04586-.47726,1.59138.07242q4.85094,4.888,9.74391,9.734C392.44939,78.09059,392.53161,78.49825,391.91125,78.97553Z" transform="translate(-364.22112 -63.57497)" style="fill: #999bbf"/>
    <path d="M539.60117,95.3731q-4.81664-14.57886-9.56739-29.17939a1.234,1.234,0,0,0-1.38535-1.00066c-1.6546.03823-3.31276.06461-4.96532-.00411a1.513,1.513,0,0,0-1.79842,1.29283c-1.12167,3.72583-2.38826,7.40786-3.58587,11.111-1.90315,5.88479-3.77161,11.781-5.71331,17.653-.3414,1.03244-.15869,1.33979.9148,1.28171a30.08587,30.08587,0,0,1,3.52263.00609c.94094.0597,1.29378-.34657,1.52911-1.20857.60361-2.21126,1.337-4.38682,1.96527-6.59182a1.24317,1.24317,0,0,1,1.43212-1.08711c2.61524.06146,5.23326.0476,7.84929.0054a1.17926,1.17926,0,0,1,1.36188.99393c.46926,1.6398,1.02966,3.25341,1.54647,4.87973.95067,2.99148.94875,2.99208,4.05448,2.98952.64083-.0008,1.28473-.04074,1.92172.00871C539.6,96.5945,539.92823,96.363,539.60117,95.3731ZM528.38783,83.355c-1.81-.06451-3.62408-.02189-5.43636-.01164-.60281.00342-1.12623-.05295-.86322-.86858,1.28723-3.99176,2.54944-7.99094,3.54816-12.328a9.49089,9.49089,0,0,1,1.06512,3.07446c.89995,2.89692,1.7624,5.80745,2.75439,8.67286C529.87162,83.09493,529.57984,83.39747,528.38783,83.355Z" transform="translate(-364.22112 -63.57497)" style="fill: #999bbf"/>
  </g>
</svg>
