<svg id="a1904e64-1755-4e94-9d6a-99f10fa1da47" data-name="Слой 1" xmlns="http://www.w3.org/2000/svg" xmlns:xlink="http://www.w3.org/1999/xlink" viewBox="0 0 317.07843 227.1297">
  <defs>
    <linearGradient id="a950178c-7292-4f2e-a089-2511b77690a0" data-name="Безымянный градиент 22" x1="7.06028" y1="149.46504" x2="166.51084" y2="149.46504" gradientUnits="userSpaceOnUse">
      <stop offset="0" stop-color="#009ee2"/>
      <stop offset="0.03731" stop-color="#009be2" stop-opacity="0.95102"/>
      <stop offset="0.30619" stop-color="#0085e2" stop-opacity="0.61701"/>
      <stop offset="0.54629" stop-color="#0075e2" stop-opacity="0.35208"/>
      <stop offset="0.74913" stop-color="#0068e2" stop-opacity="0.16097"/>
      <stop offset="0.90681" stop-color="#0061e2" stop-opacity="0.04352"/>
      <stop offset="1" stop-color="#005ee2" stop-opacity="0"/>
    </linearGradient>
    <linearGradient id="a00af999-e0fa-4516-b2a7-2fc2c087f9ec" data-name="Безымянный градиент 75" x1="7.06028" y1="149.46504" x2="166.51084" y2="149.46504" gradientUnits="userSpaceOnUse">
      <stop offset="0" stop-color="#005ee2"/>
      <stop offset="0.71397" stop-color="#fff"/>
      <stop offset="0.71608" stop-color="#f6f9fe"/>
      <stop offset="0.72761" stop-color="#c8dcf9"/>
      <stop offset="0.7406" stop-color="#9dc1f4"/>
      <stop offset="0.75456" stop-color="#77a9f0"/>
      <stop offset="0.76976" stop-color="#5795ec"/>
      <stop offset="0.78655" stop-color="#3b84e9"/>
      <stop offset="0.8055" stop-color="#2576e6"/>
      <stop offset="0.82765" stop-color="#146be4"/>
      <stop offset="0.85501" stop-color="#0963e3"/>
      <stop offset="0.89341" stop-color="#025fe2"/>
      <stop offset="1" stop-color="#005ee2"/>
    </linearGradient>
    <linearGradient id="fc379d14-0909-4662-aac9-5d07f8ec8933" data-name="Безымянный градиент 12" x1="8.08627" y1="149.46505" x2="165.53683" y2="149.46505" gradientUnits="userSpaceOnUse">
      <stop offset="0" stop-color="#fff"/>
      <stop offset="1" stop-color="#005ee2" stop-opacity="0.8"/>
    </linearGradient>
    <linearGradient id="b2e329bd-9e13-4979-b19d-1ac912260e6c" data-name="Безымянный градиент 46" x1="219.39073" y1="145.81772" x2="-24.82905" y2="144.76278" gradientUnits="userSpaceOnUse">
      <stop offset="0" stop-color="#f5f5f5" stop-opacity="0.3"/>
      <stop offset="0.71616" stop-color="#fff"/>
    </linearGradient>
    <linearGradient id="a47670d4-02e1-4ee8-8988-d48208acfd3a" x1="139.58079" y1="85.58869" x2="322.97395" y2="85.58869" xlink:href="#fc379d14-0909-4662-aac9-5d07f8ec8933"/>
    <linearGradient id="a11bb775-2f9c-4061-adfb-7e2c78d334b7" x1="189.03289" y1="97.52515" x2="293.47245" y2="55.85482" xlink:href="#b2e329bd-9e13-4979-b19d-1ac912260e6c"/>
    <linearGradient id="fd3222f2-c6ca-4394-90bc-e205369ddff6" x1="138.41599" y1="85.58869" x2="324.13871" y2="85.58869" xlink:href="#a950178c-7292-4f2e-a089-2511b77690a0"/>
    <linearGradient id="e777299c-d704-429e-bbd2-f01eddb3c0a1" data-name="Безымянный градиент 35" x1="138.41599" y1="85.58869" x2="324.13871" y2="85.58869" gradientUnits="userSpaceOnUse">
      <stop offset="0" stop-color="#005ee2"/>
      <stop offset="0.33843" stop-color="#fff"/>
      <stop offset="0.34331" stop-color="#f6f9fe"/>
      <stop offset="0.36997" stop-color="#c8dcf9"/>
      <stop offset="0.40001" stop-color="#9dc1f4"/>
      <stop offset="0.4323" stop-color="#77a9f0"/>
      <stop offset="0.46745" stop-color="#5795ec"/>
      <stop offset="0.50629" stop-color="#3b84e9"/>
      <stop offset="0.55014" stop-color="#2576e6"/>
      <stop offset="0.60135" stop-color="#146be4"/>
      <stop offset="0.66465" stop-color="#0963e3"/>
      <stop offset="0.75347" stop-color="#025fe2"/>
      <stop offset="1" stop-color="#005ee2"/>
    </linearGradient>
    <linearGradient id="b7c28acf-f035-4154-859a-99951763b0bb" x1="145.39676" y1="199.63028" x2="276.35843" y2="199.63028" xlink:href="#a950178c-7292-4f2e-a089-2511b77690a0"/>
    <linearGradient id="af7faa19-0894-4d43-a9b3-6d2d443a3b08" x1="146.21814" y1="199.63028" x2="275.53719" y2="199.63028" xlink:href="#fc379d14-0909-4662-aac9-5d07f8ec8933"/>
    <linearGradient id="a232e580-399f-4108-b2e4-9fd4e26eb874" x1="145.39676" y1="199.63028" x2="276.35843" y2="199.63028" xlink:href="#e777299c-d704-429e-bbd2-f01eddb3c0a1"/>
    <linearGradient id="b482e6bf-a8d2-4656-aec0-cd5d7d36b6a5" data-name="Безымянный градиент 58" x1="171.49193" y1="185.14112" x2="233.73369" y2="202.54771" gradientUnits="userSpaceOnUse">
      <stop offset="0.14378" stop-color="#f5f5f5" stop-opacity="0.2"/>
      <stop offset="1" stop-color="#fff"/>
    </linearGradient>
    <clipPath id="bf809cb9-749e-4889-8760-6fd4a9276319" transform="translate(-7.06028 -19.26705)">
      <path d="M260.255,74.205l-1.10119-.785c-2.42566-6.33429-8.54554-11.48676-16.49537-14.03931l-1.48425-1.36652-3.80835.10791a38.28815,38.28815,0,0,0-6.063-.48205c-12.67053,0-23.43493,6.12616-27.37939,14.66052l-1.61279,2.80705v4.99056l.023.07336c.48144,11.74823,13.26147,21.16132,28.96923,21.16132,16.0127,0,28.99219-9.78034,28.99219-21.84638Z" style="fill: none"/>
    </clipPath>
    <clipPath id="bb8e5f5b-e4e0-46ef-815d-ece3e92e44e8" transform="translate(-7.06028 -19.26705)">
      <path d="M115.85928,142.0276l-1.10525-.78786c-2.43458-6.35759-8.577-11.529-16.55606-14.091l-1.48971-1.37155-3.82236.10831a38.42841,38.42841,0,0,0-6.0853-.48383c-12.71715,0-23.52117,6.1487-27.48014,14.71447l-1.61873,2.81738v5.00892l.023.07363C58.208,159.80757,71.035,169.25529,86.8006,169.25529c16.07161,0,29.09887-9.81632,29.09887-21.92676Z" style="fill: none"/>
    </clipPath>
    <clipPath id="e5077ba6-9b5e-43f5-981d-b84e36c91ab4" transform="translate(-7.06028 -19.26705)">
      <path d="M234.095,193.59567l-.88267-.6292c-1.94428-5.07724-6.84965-9.20719-13.22183-11.25318l-1.1897-1.09533-3.05258.08649a30.68915,30.68915,0,0,0-4.85977-.38639c-10.156,0-18.78424,4.91042-21.94591,11.75112l-1.29274,2.25v4.00017l.0184.05881c.3859,9.41677,10.62971,16.96182,23.22025,16.96182,12.835,0,23.23864-7.83941,23.23864-17.51093Z" style="fill: none"/>
    </clipPath>
  </defs>
  <title>gears1</title>
  <g>
    <path d="M99.64274,93.52519v12.45675a80.75146,80.75146,0,0,1,20.293,5.52958l13.42182-8.81828,18.18274,11.94628v8.44006l-8.91486,5.85718a31.32822,31.32822,0,0,1,3.91614,7.861h18.9693v25.33471H146.539a31.32717,31.32717,0,0,1-3.91022,7.8487l8.91534,5.85754v8.44007L133.36136,196.225l-13.419-8.81645A80.74657,80.74657,0,0,1,99.64274,192.941v12.46387H73.92844V192.941a80.74968,80.74968,0,0,1-20.29962-5.53245l-13.41516,8.81389L22.03092,184.27617v-8.44006l8.9115-5.855a31.32886,31.32886,0,0,1-3.91022-7.8487H8.06028V136.79772H27.02964a31.3283,31.3283,0,0,1,3.91607-7.861l-8.9187-5.85967V114.637l18.18274-11.94622,13.42572,8.82085a80.75157,80.75157,0,0,1,20.293-5.52965V93.52519h25.7143M86.79648,153.68511c4.75214,0,8.89154-1.6997,11.11365-4.22-2.22211-2.52032-6.36151-4.22011-11.11365-4.22011s-8.89148,1.69979-11.11358,4.22011c2.2221,2.52032,6.36151,4.22,11.11358,4.22m13.84626-61.15992H72.92844V105.117a81.44843,81.44843,0,0,0-19.18939,5.26608L40.75888,101.855l-.54913-.36076-.54913.36076L21.47788,113.8012l-.45087.29624v9.51915l.45087.29626,8.08234,5.31014a32.298,32.298,0,0,0-3.24665,6.57473H7.06028v27.33471h19.256A32.30088,32.30088,0,0,0,29.557,169.6948l-8.07519,5.30555-.45093.29626v9.51907l.45093.29626,18.18274,11.94628.54907.36076.54913-.36076,12.96954-8.52113a81.44,81.44,0,0,0,19.19611,5.26884v12.599h27.7143v-12.599a81.43746,81.43746,0,0,0,19.1961-5.26884l12.97339,8.52368.54913.36077.54914-.36077,18.18274-11.94628.45086-.29626v-9.51907l-.45086-.29626-8.07911-5.3081a32.29436,32.29436,0,0,0,3.24073-6.56238h19.256V135.79772H147.2576a32.30059,32.30059,0,0,0-3.2467-6.57473l8.07849-5.30764.45087-.29626V114.1l-.45087-.29626-18.18274-11.94627-.54913-.36077-.54914.36077L119.83213,110.383a81.45,81.45,0,0,0-19.18939-5.266V92.52519Zm-23.55463,56.9399c2.21789-2.00374,5.83606-3.22011,9.70837-3.22011s7.49054,1.21637,9.70844,3.22011c-2.2179,2.00369-5.83606,3.22-9.70844,3.22s-7.49048-1.21633-9.70837-3.22Z" transform="translate(-7.06028 -19.26705)" style="fill: url(#a950178c-7292-4f2e-a089-2511b77690a0)"/>
    <path d="M99.64274,93.52519v12.45675a80.75146,80.75146,0,0,1,20.293,5.52958l13.42182-8.81828,18.18274,11.94628v8.44006l-8.91486,5.85718a31.32822,31.32822,0,0,1,3.91614,7.861h18.9693v25.33471H146.539a31.32717,31.32717,0,0,1-3.91022,7.8487l8.91534,5.85754v8.44007L133.36136,196.225l-13.419-8.81645A80.74657,80.74657,0,0,1,99.64274,192.941v12.46387H73.92844V192.941a80.74968,80.74968,0,0,1-20.29962-5.53245l-13.41516,8.81389L22.03092,184.27617v-8.44006l8.9115-5.855a31.32886,31.32886,0,0,1-3.91022-7.8487H8.06028V136.79772H27.02964a31.3283,31.3283,0,0,1,3.91607-7.861l-8.9187-5.85967V114.637l18.18274-11.94622,13.42572,8.82085a80.75157,80.75157,0,0,1,20.293-5.52965V93.52519h25.7143M86.79648,153.68511c4.75214,0,8.89154-1.6997,11.11365-4.22-2.22211-2.52032-6.36151-4.22011-11.11365-4.22011s-8.89148,1.69979-11.11358,4.22011c2.2221,2.52032,6.36151,4.22,11.11358,4.22m13.84626-61.15992H72.92844V105.117a81.44843,81.44843,0,0,0-19.18939,5.26608L40.75888,101.855l-.54913-.36076-.54913.36076L21.47788,113.8012l-.45087.29624v9.51915l.45087.29626,8.08234,5.31014a32.298,32.298,0,0,0-3.24665,6.57473H7.06028v27.33471h19.256A32.30088,32.30088,0,0,0,29.557,169.6948l-8.07519,5.30555-.45093.29626v9.51907l.45093.29626,18.18274,11.94628.54907.36076.54913-.36076,12.96954-8.52113a81.44,81.44,0,0,0,19.19611,5.26884v12.599h27.7143v-12.599a81.43746,81.43746,0,0,0,19.1961-5.26884l12.97339,8.52368.54913.36077.54914-.36077,18.18274-11.94628.45086-.29626v-9.51907l-.45086-.29626-8.07911-5.3081a32.29436,32.29436,0,0,0,3.24073-6.56238h19.256V135.79772H147.2576a32.30059,32.30059,0,0,0-3.2467-6.57473l8.07849-5.30764.45087-.29626V114.1l-.45087-.29626-18.18274-11.94627-.54913-.36077-.54914.36077L119.83213,110.383a81.45,81.45,0,0,0-19.18939-5.266V92.52519Zm-23.55463,56.9399c2.21789-2.00374,5.83606-3.22011,9.70837-3.22011s7.49054,1.21637,9.70844,3.22011c-2.2179,2.00369-5.83606,3.22-9.70844,3.22s-7.49048-1.21633-9.70837-3.22Z" transform="translate(-7.06028 -19.26705)" style="fill: url(#a00af999-e0fa-4516-b2a7-2fc2c087f9ec)"/>
    <path d="M146.56753,136.79772a31.32835,31.32835,0,0,0-3.91613-7.861l8.91485-5.85718v-8.44006l-18.18274-11.94629-13.42181,8.8183a80.75208,80.75208,0,0,0-20.293-5.5296V93.5252H73.95443v12.45673a80.752,80.752,0,0,0-20.293,5.52966l-13.42572-8.82086L22.053,114.637v8.44013l8.9187,5.85968a31.32783,31.32783,0,0,0-3.91608,7.861H8.08627v25.33472H27.05819a31.32931,31.32931,0,0,0,3.91022,7.84869l-8.9115,5.855v8.44007l18.18274,11.94628,13.41516-8.8139A80.75023,80.75023,0,0,0,73.95443,192.941V205.4049h25.7143V192.941a80.74689,80.74689,0,0,0,20.29962-5.53247l13.419,8.81647,18.18274-11.94629v-8.44006l-8.91535-5.85755a31.32694,31.32694,0,0,0,3.91022-7.84869h18.97186V136.79772ZM86.82248,145.245c4.75213,0,8.89154,1.69976,11.11364,4.22009-2.2221,2.52032-6.36151,4.22-11.11364,4.22s-8.89148-1.69971-11.11359-4.22C77.931,146.94475,82.0704,145.245,86.82248,145.245Z" transform="translate(-7.06028 -19.26705)" style="opacity: 0.30000000000000004;fill: url(#fc379d14-0909-4662-aac9-5d07f8ec8933)"/>
    <path d="M165.52732,153.6923V136.79771H146.558a34.33363,34.33363,0,0,0-8.42194-13.34069l13.42066-8.81753L133.374,102.69323l-13.42182,8.81828a80.75316,80.75316,0,0,0-20.293-5.52962V93.52518H73.94492v12.45671a80.75337,80.75337,0,0,0-20.293,5.52966L40.22623,102.6907,22.04349,114.637l13.4245,8.82a34.33344,34.33344,0,0,0-8.42187,13.34069H8.07676V153.6923H27.04868a34.33441,34.33441,0,0,0,8.415,13.32911L22.0474,175.83608l18.18274,11.94627,13.41516-8.81391a80.74926,80.74926,0,0,0,20.29962,5.53246v12.46389h25.7143V184.5009a80.74855,80.74855,0,0,0,20.29962-5.53242l13.419,8.81644,18.18274-11.94627-13.42022-8.81724a34.3344,34.3344,0,0,0,8.4151-13.32911ZM86.813,153.68508c-7.09472,0-12.84619-3.77874-12.84619-8.44009s5.75147-8.4401,12.84619-8.4401,12.84626,3.77878,12.84626,8.4401S93.90775,153.68508,86.813,153.68508Z" transform="translate(-7.06028 -19.26705)" style="opacity: 0.4;fill: url(#b2e329bd-9e13-4979-b19d-1ac912260e6c)"/>
    <g>
      <path d="M300.87914,70.83421a36.4902,36.4902,0,0,0-4.56138-9.15619l10.38372-6.82224V45.02507L285.52284,31.11044,269.88955,41.3817A94.057,94.057,0,0,0,246.253,34.941V20.43182H216.30183V34.941a94.05717,94.05717,0,0,0-23.63657,6.44077L177.02743,31.10752,155.84878,45.02209v9.83077L166.237,61.678a36.48964,36.48964,0,0,0-4.56132,9.15619H139.58079v29.509h22.09787a36.49105,36.49105,0,0,0,4.55449,9.1419l-10.37982,6.81968v9.83071L177.032,140.05017,192.65751,129.784a94.05494,94.05494,0,0,0,23.64432,6.444v14.5175H246.253v-14.5175a94.05118,94.05118,0,0,0,23.64432-6.444l15.63,10.26912L306.706,126.13851v-9.8307l-10.38429-6.82267a36.489,36.489,0,0,0,4.55449-9.1419H322.974v-29.509Zm-69.589,9.83909c5.53513,0,10.35657,1.97984,12.9448,4.91543-2.58823,2.93559-7.40967,4.91535-12.9448,4.91535s-10.3565-1.97976-12.94474-4.91535C220.9336,82.65314,225.755,80.6733,231.2901,80.6733Z" transform="translate(-7.06028 -19.26705)" style="opacity: 0.30000000000000004;fill: url(#a47670d4-02e1-4ee8-8988-d48208acfd3a)"/>
      <path d="M322.98671,90.51245V70.8342H300.8919a39.99057,39.99057,0,0,0-9.80959-15.53879l15.63193-10.27036L285.5356,31.11043,269.90232,41.38168A94.0588,94.0588,0,0,0,246.26574,34.941V20.4318H216.31459V34.941A94.05885,94.05885,0,0,0,192.678,41.38172L177.04019,31.10749,155.86154,45.02211,171.498,55.29541a39.9905,39.9905,0,0,0-9.80952,15.53879H139.59356V90.51245h22.09786a39.99159,39.99159,0,0,0,9.80156,15.5253l-15.62689,10.267,21.17865,13.91461,15.62553-10.26615a94.0541,94.0541,0,0,0,23.64432,6.444v14.51753h29.95115V126.39728a94.05315,94.05315,0,0,0,23.64432-6.444l15.63,10.26909,21.17865-13.91461-15.63143-10.27a39.99149,39.99149,0,0,0,9.80163-15.5253ZM231.30286,90.504c-8.2637,0-14.96282-4.40134-14.96282-9.83074s6.69912-9.83074,14.96282-9.83074,14.96288,4.4014,14.96288,9.83074S239.56663,90.504,231.30286,90.504Z" transform="translate(-7.06028 -19.26705)" style="opacity: 0.4;fill: url(#a11bb775-2f9c-4061-adfb-7e2c78d334b7)"/>
      <path d="M246.253,20.43183V34.9493a94.05619,94.05619,0,0,1,23.64429,6.44406l15.62549-10.26613,21.17871,13.91463v9.83069l-10.37988,6.8197a36.48845,36.48845,0,0,1,4.55456,9.1419h22.09778v29.509H300.87906a36.49027,36.49027,0,0,1-4.56128,9.15618l10.38819,6.82518v9.83077l-21.17871,13.91455L269.88944,129.7956a94.05664,94.05664,0,0,1-23.63648,6.44078v14.50917H216.30173V136.23638a94.05711,94.05711,0,0,1-23.63653-6.4407L177.0319,140.067,155.85325,126.1523v-9.8307l10.38372-6.82225a36.49105,36.49105,0,0,1-4.5614-9.15618H139.58078v-29.509h22.09778a36.48826,36.48826,0,0,1,4.55451-9.1419l-10.38428-6.82268V45.03888l21.17865-13.91466,15.63,10.26914a94.05085,94.05085,0,0,1,23.64429-6.44406V20.43183H246.253M231.26462,90.50408c5.5351,0,10.35651-1.97983,12.94477-4.91542-2.58826-2.93561-7.40967-4.91536-12.94477-4.91536s-10.35657,1.97975-12.94476,4.91536c2.58819,2.93559,7.40967,4.91542,12.94476,4.91542m16.15314-71.237H215.13694V33.94188a94.85637,94.85637,0,0,0-22.359,6.137l-15.111-9.9281-.63959-.42022-.63959.42022L155.2092,44.06543l-.52521.34505V55.498l.52521.34505,9.41022,6.18271a37.61979,37.61979,0,0,0-3.77472,7.64364H138.416v31.83858h22.42554a37.62268,37.62268,0,0,0,3.78167,7.658l-9.40954,6.18218-.52521.34505v11.0875l.52521.34505,21.17865,13.91465.63959.42023.63958-.42023,15.11432-9.93029a94.87183,94.87183,0,0,0,22.35114,6.13369v14.66653h32.28082V137.2438A94.86989,94.86989,0,0,0,269.76883,131.11l15.1189,9.93326.63953.42023.63952-.4202,21.17871-13.91455.52527-.34508V115.69612l-.52527-.345-9.41394-6.18512a37.62331,37.62331,0,0,0,3.78162-7.658h22.42554V69.66937H301.71a37.62724,37.62724,0,0,0-3.77478-7.64363L307.341,55.846l.52527-.345V44.41345l-.52527-.345L286.16227,30.15378l-.63953-.42023-.63953.42023-15.10644,9.92511a94.863,94.863,0,0,0-22.359-6.137V19.26705ZM219.95658,85.58866c2.58331-2.33384,6.79761-3.75058,11.308-3.75058s8.72467,1.41674,11.308,3.75058c-2.58338,2.33387-6.79767,3.75064-11.308,3.75064s-8.72473-1.41677-11.308-3.75064Z" transform="translate(-7.06028 -19.26705)" style="fill: url(#fd3222f2-c6ca-4394-90bc-e205369ddff6)"/>
      <path d="M246.253,20.43183V34.941a94.05572,94.05572,0,0,1,23.6366,6.4407l15.6333-10.27127,21.17859,13.91464v9.83071L296.31778,61.678a36.49492,36.49492,0,0,1,4.56141,9.1562h22.09472v29.509H300.87613a36.48867,36.48867,0,0,1-4.55444,9.1419L306.706,116.3078v9.8307l-21.17871,13.91465-15.63-10.26912a94.04917,94.04917,0,0,1-23.64429,6.444v14.5175H216.30185v-14.5175a94.05388,94.05388,0,0,1-23.64434-6.444L177.032,140.05017l-21.17865-13.91465v-9.83069l10.37982-6.81968a36.49074,36.49074,0,0,1-4.55445-9.1419h-22.0979v-29.509h22.09491A36.4904,36.4904,0,0,1,166.237,61.678l-10.38818-6.82518V45.02208l21.17865-13.91455,15.63782,10.27422A94.05774,94.05774,0,0,1,216.30185,34.941V20.43183H246.253M231.29007,90.50408c5.53516,0,10.35657-1.97979,12.94483-4.91535-2.58826-2.93558-7.40967-4.91543-12.94483-4.91543s-10.35644,1.97985-12.9447,4.91543c2.58826,2.93556,7.40967,4.91535,12.9447,4.91535m16.12769-71.237h-32.2807V33.93358a94.87092,94.87092,0,0,0-22.3512,6.13374L177.667,30.13408l-.63959-.42023-.63959.42023L155.2092,44.04863l-.52521.34505V55.48125l.52521.34505,9.414,6.1851a37.624,37.624,0,0,0-3.78155,7.658H138.416V101.508h22.42883a37.62278,37.62278,0,0,0,3.77472,7.64363l-9.40582,6.17972-.52521.345v11.08751l.52521.345,21.17865,13.91465.63959.42023.63958-.42023,15.10651-9.92512a94.859,94.859,0,0,0,22.359,6.137v14.67485h32.2807V137.23548a94.85652,94.85652,0,0,0,22.359-6.137l15.111,9.9281.63953.42023.63952-.42023L307.34549,127.112l.52527-.345V115.6794l-.52527-.34505-9.41015-6.18268A37.61826,37.61826,0,0,0,301.71,101.508h22.42871V69.66945H301.71317a37.6256,37.6256,0,0,0-3.78162-7.658l9.40943-6.18219.52527-.34505V44.39667l-.52527-.34505L286.16239,30.137l-.63953-.42023-.63952.42023L269.769,40.06726a94.87039,94.87039,0,0,0-22.3512-6.13368V19.26705ZM219.98215,85.58873c2.58338-2.33388,6.79761-3.75065,11.30792-3.75065s8.72474,1.41677,11.30811,3.75065c-2.58337,2.33383-6.79767,3.75057-11.30811,3.75057s-8.72461-1.41674-11.30792-3.75057Z" transform="translate(-7.06028 -19.26705)" style="fill: url(#e777299c-d704-429e-bbd2-f01eddb3c0a1)"/>
    </g>
    <g>
      <path d="M221.4376,153.68513v10.237a66.32316,66.32316,0,0,1,16.67273,4.544l11.01824-7.23913,14.93409,9.81186v6.93209l-7.31934,4.80889a25.734,25.734,0,0,1,3.21167,6.44636h15.58215v20.8082H259.95707a25.72849,25.72849,0,0,1-3.21643,6.45645l7.32519,4.81273v6.93215l-14.934,9.8118-11.027-7.24484a66.324,66.324,0,0,1-16.66729,4.54167v10.23111H200.31766V235.34431a66.32348,66.32348,0,0,1-16.66723-4.54163l-11.02375,7.24274-14.93408-9.81185v-6.93209l7.32208-4.81068a25.73074,25.73074,0,0,1-3.21649-6.45645H146.21811v-20.8082h15.58222a25.73154,25.73154,0,0,1,3.21155-6.44636l-7.32245-4.811v-6.93208l14.93408-9.81187,11.02142,7.24124a66.32055,66.32055,0,0,1,16.67273-4.544v-10.237H221.4376m-10.56891,49.41122c3.903,0,7.30285-1.39607,9.12793-3.46609-1.82508-2.07-5.22492-3.466-9.12793-3.466s-7.30292,1.396-9.128,3.466c1.82507,2.07,5.22491,3.46609,9.128,3.46609M222.259,152.8638H199.49631v10.3479A66.88858,66.88858,0,0,0,183.73,167.53918l-10.65545-7.00077-.451-.29631-.451.29631-14.93408,9.81187-.3703.24332v7.8183l.3703.24332,6.63562,4.35974a26.5275,26.5275,0,0,0-2.66168,5.38986H145.39676v22.45086h15.8133a26.53336,26.53336,0,0,0,2.66662,5.4l-6.63507,4.35932-.37036.24333v7.81831l.37036.24333,14.93408,9.81185.451.29631.451-.29631,10.65778-7.00232a66.899,66.899,0,0,0,15.76086,4.32517v10.342H222.259v-10.342a66.89723,66.89723,0,0,0,15.76086-4.32519l10.661,7.0044.451.29631.45105-.29631,14.934-9.8118.37024-.24332v-7.81837l-.37024-.24332-6.63831-4.36138a26.52842,26.52842,0,0,0,2.66663-5.4h15.81323V188.40482H260.543a26.52971,26.52971,0,0,0-2.66186-5.38986l6.63257-4.35763.37024-.24333v-7.8183l-.37024-.24333-14.93409-9.81186-.45105-.29631-.451.29631-10.65223,6.99867A66.89057,66.89057,0,0,0,222.259,163.2117V152.8638Zm-19.36414,46.76645a13.343,13.343,0,0,1,15.94769,0,13.34275,13.34275,0,0,1-15.94769,0Z" transform="translate(-7.06028 -19.26705)" style="fill: url(#b7c28acf-f035-4154-859a-99951763b0bb)"/>
      <path d="M259.95711,189.22621a25.73061,25.73061,0,0,0-3.21644-6.45646l7.322-4.81068V171.027l-14.93405-9.81186-11.02376,7.24275a66.3241,66.3241,0,0,0-16.66724-4.54164v-10.2311h-21.12v10.2311a66.32413,66.32413,0,0,0-16.66724,4.54169l-11.027-7.24485-14.93405,9.81181V177.957l7.32521,4.81274a25.73043,25.73043,0,0,0-3.21639,6.45646H146.21814V210.0344h15.58223a25.73171,25.73171,0,0,0,3.21158,6.44637l-7.31929,4.80888v6.93209l14.93405,9.81186,11.01829-7.23914a66.32278,66.32278,0,0,0,16.67271,4.544v10.237h21.12v-10.237a66.32,66.32,0,0,0,16.67271-4.544l11.02145,7.24124,14.934-9.81186v-6.93208l-7.32245-4.811a25.73,25.73,0,0,0,3.21158-6.44637h15.58218V189.22621Zm-49.07047,6.938c3.90308,0,7.3029,1.39607,9.128,3.46609-1.82508,2.07-5.2249,3.466-9.128,3.466s-7.30285-1.396-9.12794-3.466C203.58379,197.56028,206.98361,196.16421,210.88664,196.16421Z" transform="translate(-7.06028 -19.26705)" style="opacity: 0.30000000000000004;fill: url(#af7faa19-0894-4d43-a9b3-6d2d443a3b08)"/>
      <path d="M221.43766,153.68513v10.23109a66.32363,66.32363,0,0,1,16.66723,4.54164l11.02381-7.24275,14.934,9.81188v6.93209l-7.322,4.81067a25.72822,25.72822,0,0,1,3.21643,6.45646h15.58007v20.8082H259.955a25.72968,25.72968,0,0,1-3.21155,6.44636l7.32239,4.811v6.93209l-14.934,9.81186-11.02148-7.24124a66.32013,66.32013,0,0,1-16.67273,4.544v10.237H200.31772v-10.237a66.32209,66.32209,0,0,1-16.67273-4.544l-11.01831,7.23915-14.934-9.81188v-6.93207l7.31928-4.80889a25.7317,25.7317,0,0,1-3.21155-6.44636H146.21811v-20.8082h15.58014a25.73024,25.73024,0,0,1,3.21643-6.45646l-7.32525-4.81273v-6.93214l14.93408-9.81182,11.027,7.24485a66.32435,66.32435,0,0,1,16.66723-4.54169V153.68513h21.11994m-10.551,49.41122c3.90308,0,7.30292-1.396,9.128-3.466-1.82507-2.07-5.22491-3.46609-9.128-3.46609s-7.30285,1.39607-9.12793,3.46609c1.82508,2.07,5.22492,3.466,9.12793,3.466M222.259,152.8638H199.49637v10.342a66.89724,66.89724,0,0,0-15.7608,4.32521l-10.66107-7.00443-.451-.29631-.451.29631-14.93408,9.81182-.3703.24333v7.81838l.3703.24331,6.6383,4.36137a26.52885,26.52885,0,0,0-2.66662,5.4H145.39676v22.45085h15.81562a26.52845,26.52845,0,0,0,2.66174,5.38987l-6.63245,4.35762-.37036.24333v7.81829l.37036.24333,14.934,9.81187.451.29631.451-.29631L183.73,231.72136a66.89058,66.89058,0,0,0,15.76635,4.32749v10.3479H222.259v-10.3479a66.88759,66.88759,0,0,0,15.76635-4.3275l10.65546,7.00078.451.29631.45105-.29631,14.934-9.81185.37024-.24333v-7.81831l-.37024-.24333-6.63562-4.35971a26.52574,26.52574,0,0,0,2.66174-5.38987h15.81543V188.40488H260.5452a26.52748,26.52748,0,0,0-2.66663-5.4l6.63514-4.35932.37024-.24332v-7.81831l-.37024-.24333-14.934-9.81187-.451-.29631-.45105.29631L238.01981,167.531a66.8975,66.8975,0,0,0-15.7608-4.32515v-10.342Zm-19.34619,46.7665a13.34275,13.34275,0,0,1,15.94769,0,13.343,13.343,0,0,1-15.94769,0Z" transform="translate(-7.06028 -19.26705)" style="fill: url(#a232e580-399f-4108-b2e4-9fd4e26eb874)"/>
      <path d="M275.54619,203.10225v-13.876H259.96611a28.19917,28.19917,0,0,0-6.9172-10.95713l11.02281-7.24211-14.93405-9.81184-11.02376,7.24273a66.32533,66.32533,0,0,0-16.66725-4.54165V153.68512h-21.12V163.9162a66.32485,66.32485,0,0,0-16.66724,4.54169l-11.027-7.24484-14.934,9.81184,11.026,7.24418a28.19927,28.19927,0,0,0-6.91715,10.95713H146.22714v13.876h15.58223a28.2,28.2,0,0,0,6.91153,10.94761l-11.01924,7.23977,14.934,9.81184,11.01829-7.23914a66.32181,66.32181,0,0,0,16.67271,4.544v10.237h21.12v-10.237a66.3213,66.3213,0,0,0,16.67272-4.54395l11.02144,7.24122,14.934-9.81184-11.02245-7.24188a28.19979,28.19979,0,0,0,6.91159-10.94761Zm-64.65055-.00593c-5.82712,0-10.551-3.10359-10.551-6.93211s4.72386-6.93212,10.551-6.93212,10.551,3.10363,10.551,6.93212S216.72281,203.09632,210.89564,203.09632Z" transform="translate(-7.06028 -19.26705)" style="opacity: 0.4;fill: url(#b482e6bf-a8d2-4656-aec0-cd5d7d36b6a5)"/>
    </g>
    <g>
      <path d="M260.255,74.205l-1.10119-.785c-2.42566-6.33429-8.54554-11.48676-16.49536-14.03931l-1.48426-1.36652-3.80835.10791a38.28812,38.28812,0,0,0-6.063-.48205c-12.67054,0-23.43494,6.12616-27.3794,14.66052l-1.61279,2.80705v4.99056l.023.07336c.48144,11.74823,13.26147,21.16132,28.96924,21.16132,16.01269,0,28.99218-9.78034,28.99218-21.84638Z" transform="translate(-7.06028 -19.26705)" style="fill: #b5ddf7"/>
      <g style="clip-path: url(#bf809cb9-749e-4889-8760-6fd4a9276319)">
        <polyline points="192.922 64.761 192.922 56.256 195.607 61.08 195.128 69.54 195.607 61.08 199.006 65.992 199.006 74.453 199.006 65.992 202.897 69.904 202.897 77.351 202.897 69.904 206.35 72.919 206.35 79.363 206.35 72.919 210.242 74.782 210.242 81.043 210.242 74.782 214.572 75.988 214.572 82.335 214.572 76.207 219.011 77.304 219.011 83.161 219.011 77.304 223.341 77.523 223.341 83.442 223.341 77.523 227.891 77.304 227.891 83.284 227.891 77.304 232.495 76.81 232.495 82.628 232.495 76.81 237.866 75.239 237.866 81.151 237.866 75.239 243.292 72.444 243.292 78.709 243.292 72.444 247.275 69.849 247.275 76.083 247.275 69.849 250.6 66.89 250.6 73.04 250.6 66.89 253.268 63.418 253.268 69.569 253.268 63.418 254.967 59.819 254.967 66.246 254.967 59.819 256.301 55.288 256.301 60.093 256.301 55.288" style="fill: none;stroke: #85afc1;stroke-miterlimit: 10;stroke-width: 2.21677708625793px;opacity: 0.5"/>
      </g>
      <path d="M231.30289,97.17905c-16.01274,0-28.99217-9.78036-28.99217-21.84641s12.97943-21.84641,28.99217-21.84641,28.99218,9.78037,28.99218,21.84641S247.31563,97.17905,231.30289,97.17905Zm13.02655-24.5499c.569-2.86188-2.32481-4.40068-6.27862-5.42747l1.2829-3.87774-3.13115-.58712-1.25029,3.77534c-.82265-.15566-1.667-.30039-2.50964-.44513l1.25935-3.79991-3.13115-.58848-1.2829,3.87637c-.68132-.11743-1.35176-.23212-2.00046-.355l.00362-.01228-4.31983-.81242-.83353,2.52053s2.32481.40143,2.27589.426c1.2684.23894,1.49672.87112,1.45867,1.37359l-1.46048,4.41707c.087.01639.19932.041.32616.07783l-.3316-.06144-2.04757,6.188a1.22189,1.22189,0,0,1-1.43693.55982c.03262.03413-2.27588-.42737-2.27588-.42737l-1.55471,2.70076,4.077.766c.75742.14337,1.50034.29356,2.23058.4342l-1.29558,3.92143,3.12934.58712,1.2829-3.87774c.85527.17341,1.68517.33453,2.497.48745l-1.27929,3.86135,3.13116.58713L232.16,85.00378c5.34181.76189,9.35722.45468,11.04783-3.18548,1.36263-2.93015-.067-4.62188-2.87747-5.72376C242.37791,75.73954,243.91812,74.725,244.32944,72.62915ZM237.172,80.19074c-.9658,2.93151-7.51622,1.34628-9.63989.94895l1.72141-5.19535C231.37718,76.3444,238.18491,77.135,237.172,80.19074Zm.96943-7.60392c-.88245,2.66663-6.333,1.31079-8.09969.979l1.55833-4.71064C233.36677,69.187,239.06192,69.8055,238.14142,72.58682Z" transform="translate(-7.06028 -19.26705)" style="fill: #fff;fill-rule: evenodd"/>
    </g>
    <g>
      <path d="M115.85927,142.0276l-1.10525-.78786c-2.43458-6.35759-8.577-11.529-16.556-14.091l-1.48972-1.37155-3.82236.10831a38.42841,38.42841,0,0,0-6.0853-.48383c-12.71715,0-23.52116,6.1487-27.48014,14.71447l-1.61872,2.81738v5.00892l.023.07363c.48322,11.79146,13.31027,21.23918,29.07583,21.23918,16.07162,0,29.09887-9.81632,29.09887-21.92676Z" transform="translate(-7.06028 -19.26705)" style="fill: #b5ddf7"/>
      <g style="clip-path: url(#bb8e5f5b-e4e0-46ef-815d-ece3e92e44e8)">
        <polyline points="48.304 132.619 48.304 124.084 51 128.925 50.519 137.416 51 128.925 54.41 133.855 54.41 142.347 54.41 133.855 58.316 137.782 58.316 145.256 58.316 137.782 61.782 140.808 61.782 147.275 61.782 140.808 65.688 142.678 65.688 148.961 65.688 142.678 70.034 143.888 70.034 150.259 70.034 144.108 74.49 145.209 74.49 151.087 74.49 145.209 78.836 145.429 78.836 151.37 78.836 145.429 83.402 145.209 83.402 151.211 83.402 145.209 88.023 144.713 88.023 150.553 88.023 144.713 93.414 143.136 93.414 149.07 93.414 143.136 98.86 140.331 98.86 146.619 98.86 140.331 102.858 137.727 102.858 143.983 102.858 137.727 106.195 134.756 106.195 140.93 106.195 134.756 108.872 131.272 108.872 137.446 108.872 131.272 110.578 127.66 110.578 134.11 110.578 127.66 111.916 123.112 111.916 127.935 111.916 123.112" style="fill: none;stroke: #85afc1;stroke-miterlimit: 10;stroke-width: 2.22493382192501px;opacity: 0.5"/>
      </g>
      <g>
        <path d="M86.84906,165.07447c-16.00606,0-28.98009-9.8111-28.98009-21.91506s12.974-21.91507,28.98009-21.91507,28.98009,9.8111,28.98009,21.91507S102.85513,165.07447,86.84906,165.07447Zm14.47918-21.6151L87.75107,126.72311l-13.5808,16.73763,13.5808,5.96226Zm.01087,1.91346-13.588,5.95952-13.5808-5.95815,13.5808,14.21466Z" transform="translate(-7.06028 -19.26705)" style="fill: #fff;fill-rule: evenodd"/>
        <g>
          <path d="M87.75107,126.72311v12.14916l13.579,4.58847Zm0,24.61062v8.25513l13.588-14.216Z" transform="translate(-7.06028 -19.26705)" style="fill: #fff;fill-opacity: 0.298000007867813"/>
          <path d="M87.75107,149.423l13.579-5.96226-13.579-4.58573Z" transform="translate(-7.06028 -19.26705)" style="fill: #fff;fill-opacity: 0.800999999046326"/>
          <path d="M74.17027,143.46074l13.5808,5.96226V138.875Z" transform="translate(-7.06028 -19.26705)" style="fill: #fff;fill-opacity: 0.298000007867813"/>
        </g>
      </g>
    </g>
    <g>
      <path d="M234.095,193.59567l-.88266-.6292c-1.94429-5.07724-6.84966-9.20719-13.22183-11.25318l-1.18971-1.09533-3.05257.08649a30.68937,30.68937,0,0,0-4.85978-.38639c-10.156,0-18.78424,4.91042-21.94591,11.75112l-1.29273,2.25v4.00017l.01839.05881c.3859,9.41677,10.62972,16.96182,23.22025,16.96182,12.835,0,23.23864-7.83941,23.23864-17.51093Z" transform="translate(-7.06028 -19.26705)" style="fill: #b5ddf7"/>
      <g style="clip-path: url(#e5077ba6-9b5e-43f5-981d-b84e36c91ab4)">
        <polyline points="178.723 182.202 178.723 175.385 180.876 179.252 180.491 186.033 180.876 179.252 183.599 183.189 183.599 189.971 183.599 183.189 186.719 186.325 186.719 192.294 186.719 186.325 189.486 188.741 189.486 193.906 189.486 188.741 192.606 190.235 192.606 195.253 192.606 190.235 196.076 191.201 196.076 196.289 196.076 191.377 199.635 192.256 199.635 196.951 199.635 192.256 203.106 192.432 203.106 197.176 203.106 192.432 206.752 192.256 206.752 197.049 206.752 192.256 210.443 191.86 210.443 196.524 210.443 191.86 214.748 190.601 214.748 195.34 214.748 190.601 219.097 188.36 219.097 193.382 219.097 188.36 222.29 186.281 222.29 191.277 222.29 186.281 224.955 183.909 224.955 188.839 224.955 183.909 227.093 181.126 227.093 186.056 227.093 181.126 228.455 178.241 228.455 183.393 228.455 178.241 229.524 174.609 229.524 178.461 229.524 174.609" style="fill: none;stroke: #85afc1;stroke-miterlimit: 10;stroke-width: 1.77685417404784px;opacity: 0.5"/>
      </g>
      <path d="M210.89566,212.01c-12.839,0-23.24589-7.8392-23.24589-17.51043s10.4069-17.51042,23.24589-17.51042,23.24589,7.8392,23.24589,17.51042S223.73465,212.01,210.89566,212.01Zm-8.09683-13.993-1.70712,5.23781h18.70567l1.26836-3.90811H209.84669l1.232-3.8118,2.07324-.6249.98795-3.00961-2.04854.62491,2.20691-6.78092h-7.45176L203.8231,194.969l-2.09794.63476-.99958,3.01945Z" transform="translate(-7.06028 -19.26705)" style="fill: #fff;fill-rule: evenodd"/>
    </g>
  </g>
</svg>
