<svg id="af586b50-3c24-43b8-a1a4-a99534701806" data-name="Слой 1" xmlns="http://www.w3.org/2000/svg" xmlns:xlink="http://www.w3.org/1999/xlink" viewBox="0 0 318.92548 238.19764">
  <defs>
    <linearGradient id="fa1e81d2-fcfc-47fc-9b25-affd8531bbd0" data-name="Безымянный градиент 12" x1="8.07722" y1="427.97056" x2="165.52778" y2="427.97056" gradientUnits="userSpaceOnUse">
      <stop offset="0" stop-color="#fff"/>
      <stop offset="1" stop-color="#005ee2" stop-opacity="0.8"/>
    </linearGradient>
    <linearGradient id="e8b1ad2c-60c0-4d41-92dd-099b378934f8" data-name="Безымянный градиент 46" x1="219.38168" y1="424.32323" x2="-24.8381" y2="423.26829" gradientUnits="userSpaceOnUse">
      <stop offset="0" stop-color="#f5f5f5" stop-opacity="0.3"/>
      <stop offset="0.71616" stop-color="#fff"/>
    </linearGradient>
    <linearGradient id="f6515b6d-568d-4b91-8f2e-2eb0f39b3d16" x1="139.57175" y1="364.0942" x2="322.9649" y2="364.0942" xlink:href="#fa1e81d2-fcfc-47fc-9b25-affd8531bbd0"/>
    <linearGradient id="a5add769-4b97-4a2e-bedb-aa6890c5122e" x1="189.02385" y1="376.03066" x2="293.46341" y2="334.36033" xlink:href="#e8b1ad2c-60c0-4d41-92dd-099b378934f8"/>
    <linearGradient id="f1eadd27-c7f4-4552-b20c-604aaa09a305" x1="146.20909" y1="478.13579" x2="275.52814" y2="478.13579" xlink:href="#fa1e81d2-fcfc-47fc-9b25-affd8531bbd0"/>
    <linearGradient id="fd3e4edf-2839-4428-9cbd-e4895f0b50a7" data-name="Безымянный градиент 58" x1="171.48288" y1="463.64663" x2="233.72464" y2="481.05322" gradientUnits="userSpaceOnUse">
      <stop offset="0.14378" stop-color="#f5f5f5" stop-opacity="0.2"/>
      <stop offset="1" stop-color="#fff"/>
    </linearGradient>
    <linearGradient id="e232bd6c-777a-49a0-a77b-c568e39e74f9" data-name="Безымянный градиент 70" x1="137.60953" y1="364.09421" x2="325.00272" y2="364.09421" gradientUnits="userSpaceOnUse">
      <stop offset="0" stop-color="#005ee2" stop-opacity="0"/>
      <stop offset="1" stop-color="#005ee2"/>
    </linearGradient>
    <linearGradient id="fb50c6ba-8921-4d96-b2e4-302d21586ff6" x1="167.52781" y1="427.97061" x2="6.07724" y2="427.97061" xlink:href="#e232bd6c-777a-49a0-a77b-c568e39e74f9"/>
    <linearGradient id="b44b57ac-a0bd-4ad2-b628-fe5644b1c38b" data-name="Безымянный градиент 84" x1="145.39676" y1="478.13577" x2="276.35843" y2="478.13577" gradientUnits="userSpaceOnUse">
      <stop offset="0" stop-color="#005ee2" stop-opacity="0"/>
      <stop offset="0.08509" stop-color="#025ee3" stop-opacity="0.03859"/>
      <stop offset="0.22901" stop-color="#065de6" stop-opacity="0.1427"/>
      <stop offset="0.41427" stop-color="#0e5deb" stop-opacity="0.31222"/>
      <stop offset="0.6336" stop-color="#185cf2" stop-opacity="0.54728"/>
      <stop offset="0.87886" stop-color="#255bfa" stop-opacity="0.84319"/>
      <stop offset="1" stop-color="#2c5aff"/>
    </linearGradient>
    <clipPath id="be1330e9-02a7-4362-a2e2-098d82c54319" transform="translate(-6.07724 -286.7046)">
      <path d="M271.25759,315.30348l-1.52-1.08353c-3.34823-8.74346-11.79572-15.8556-22.76917-19.379l-2.04877-1.88626-5.25681.149a52.84855,52.84855,0,0,0-8.369-.6654c-17.48962,0-32.34813,8.45617-37.79282,20.23647l-2.2262,3.87468v6.88865l.03168.10127c.66456,16.21653,18.30532,29.20977,39.98734,29.20977,22.10293,0,40.019-13.50017,40.019-30.15538Z" style="fill: none"/>
    </clipPath>
    <clipPath id="b16fbd84-4894-40b4-a76a-d79e596e6be5" transform="translate(-6.07724 -286.7046)">
      <path d="M124.56584,383.37847l-1.43674-1.02417c-3.1648-8.26444-11.14948-14.98694-21.52174-18.31729l-1.93653-1.78291-4.96881.14079a49.95314,49.95314,0,0,0-7.91047-.62894c-16.53143,0-30.5759,7.99289-35.72229,19.12779L48.965,384.55615v6.51125l.02994.09571c.62815,15.32809,17.30244,27.60948,37.79659,27.60948,20.892,0,37.82653-12.76054,37.82653-28.50328Z" style="fill: none"/>
    </clipPath>
    <clipPath id="ebf37bf7-420a-4fca-a6a9-f9a4696b5531" transform="translate(-6.07724 -286.7046)">
      <path d="M239.741,435.28678l-1.09783-.78257c-2.41822-6.31488-8.51934-11.45156-16.44481-13.99629l-1.47971-1.36233-3.79668.10758a38.16948,38.16948,0,0,0-6.04441-.48058c-12.63171,0-23.36313,6.10739-27.2955,14.6156l-1.60785,2.79845v4.97527l.02288.07314c.48,11.71223,13.22084,21.09647,28.88047,21.09647,15.96363,0,28.90335-9.75036,28.90335-21.77943Z" style="fill: none"/>
    </clipPath>
  </defs>
  <title>gears2</title>
  <g>
    <g style="opacity: 0.5">
      <path d="M146.55848,415.30323a31.32835,31.32835,0,0,0-3.91613-7.861l8.91485-5.85718V393.145l-18.18274-11.94629-13.42181,8.8183a80.752,80.752,0,0,0-20.293-5.5296V372.03071H73.94539v12.45673a80.752,80.752,0,0,0-20.293,5.52966L40.2267,381.19624,22.044,393.14246v8.44013l8.9187,5.85968a31.32783,31.32783,0,0,0-3.91608,7.861H8.07722V440.638H27.04915a31.32927,31.32927,0,0,0,3.91021,7.84869l-8.9115,5.855v8.44007L40.2306,474.728l13.41516-8.8139a80.75019,80.75019,0,0,0,20.29963,5.53247v12.46387H99.65968V471.44654a80.74677,80.74677,0,0,0,20.29962-5.53247l13.419,8.81647,18.18274-11.94629v-8.44006l-8.91535-5.85755a31.32694,31.32694,0,0,0,3.91022-7.84869h18.97186V415.30323ZM86.81343,423.7505c4.75213,0,8.89154,1.69976,11.11365,4.22009-2.22211,2.52032-6.36152,4.22-11.11365,4.22s-8.89148-1.69971-11.11359-4.22C77.922,425.45026,82.06135,423.7505,86.81343,423.7505Z" transform="translate(-6.07724 -286.7046)" style="opacity: 0.30000000000000004;fill: url(#fa1e81d2-fcfc-47fc-9b25-affd8531bbd0)"/>
      <path d="M165.51827,432.19781V415.30322H146.549a34.33351,34.33351,0,0,0-8.42194-13.34069l13.42066-8.81753L133.365,381.19874,119.94314,390.017a80.75336,80.75336,0,0,0-20.293-5.52962V372.03069H73.93587V384.4874a80.75337,80.75337,0,0,0-20.293,5.52966l-13.42572-8.82085L22.03444,393.14248l13.4245,8.82005a34.33344,34.33344,0,0,0-8.42187,13.34069H8.06771v16.89459H27.03963a34.33441,34.33441,0,0,0,8.415,13.32911l-13.41632,8.81467,18.18274,11.94627L53.63625,457.474a80.74926,80.74926,0,0,0,20.29962,5.53246V475.4703h25.7143V463.00641a80.74855,80.74855,0,0,0,20.29962-5.53242l13.419,8.81644,18.18274-11.94627-13.42022-8.81724a34.33428,34.33428,0,0,0,8.4151-13.32911Zm-78.71436-.00722c-7.09472,0-12.84619-3.77874-12.84619-8.44009s5.75147-8.4401,12.84619-8.4401,12.84626,3.77878,12.84626,8.4401S93.8987,432.19059,86.80391,432.19059Z" transform="translate(-6.07724 -286.7046)" style="opacity: 0.4;fill: url(#e8b1ad2c-60c0-4d41-92dd-099b378934f8)"/>
    </g>
    <g style="opacity: 0.5">
      <path d="M300.87009,349.33972a36.48986,36.48986,0,0,0-4.56138-9.15619l10.38372-6.82224v-9.83071L285.51379,309.616l-15.63328,10.27126a94.0571,94.0571,0,0,0-23.63658-6.4407V298.93733H216.29278v14.50918a94.05717,94.05717,0,0,0-23.63657,6.44077L177.01838,309.613,155.83973,323.5276v9.83077l10.38821,6.82516a36.48964,36.48964,0,0,0-4.56132,9.15619H139.57175v29.509h22.09786a36.49105,36.49105,0,0,0,4.55449,9.1419l-10.37982,6.81968V404.641l21.17865,13.91464,15.62553-10.26614a94.05494,94.05494,0,0,0,23.64432,6.444v14.5175h29.95115v-14.5175a94.05115,94.05115,0,0,0,23.64433-6.444l15.63,10.26912L306.69691,404.644v-9.8307l-10.38429-6.82267a36.489,36.489,0,0,0,4.55449-9.1419H322.9649v-29.509Zm-69.589,9.83909c5.53513,0,10.35657,1.97984,12.9448,4.91543-2.58823,2.93559-7.40967,4.91535-12.9448,4.91535s-10.3565-1.97976-12.94474-4.91535C220.92455,361.15865,225.746,359.17881,231.28105,359.17881Z" transform="translate(-6.07724 -286.7046)" style="opacity: 0.30000000000000004;fill: url(#f6515b6d-568d-4b91-8f2e-2eb0f39b3d16)"/>
      <path d="M322.97766,369.018V349.33971H300.88285a39.99066,39.99066,0,0,0-9.80958-15.53879l15.63192-10.27036-21.17864-13.91462-15.63328,10.27125a94.05883,94.05883,0,0,0-23.63657-6.44072V298.93731H216.30554v14.50916a94.05885,94.05885,0,0,0-23.63657,6.44076L177.03114,309.613l-21.17865,13.91462,15.63641,10.2733a39.9905,39.9905,0,0,0-9.80952,15.53879H139.58451V369.018h22.09786a39.99159,39.99159,0,0,0,9.80156,15.5253L155.857,394.8103l21.17865,13.91461,15.62553-10.26615a94.0541,94.0541,0,0,0,23.64432,6.444v14.51752H246.2567V404.90279a94.05327,94.05327,0,0,0,23.64432-6.444l15.63,10.26909,21.17864-13.91461-15.63143-10.27a39.99149,39.99149,0,0,0,9.80163-15.5253Zm-91.68385-.00841c-8.2637,0-14.96282-4.40134-14.96282-9.83074s6.69912-9.83074,14.96282-9.83074,14.96289,4.4014,14.96289,9.83074S239.55758,369.00955,231.29381,369.00955Z" transform="translate(-6.07724 -286.7046)" style="opacity: 0.4;fill: url(#a5add769-4b97-4a2e-bedb-aa6890c5122e)"/>
    </g>
    <g style="opacity: 0.5">
      <path d="M259.94807,467.73171a25.73076,25.73076,0,0,0-3.21645-6.45645l7.322-4.81068v-6.93209l-14.93405-9.81186-11.02376,7.24275a66.324,66.324,0,0,0-16.66724-4.54164v-10.2311H200.30867v10.2311a66.32409,66.32409,0,0,0-16.66725,4.54169l-11.027-7.24485-14.93405,9.81181v6.93213l7.3252,4.81274a25.73053,25.73053,0,0,0-3.21639,6.45645H146.20909v20.8082h15.58223a25.73141,25.73141,0,0,0,3.21159,6.44637l-7.3193,4.80888v6.93209l14.93405,9.81186L183.636,509.3a66.32274,66.32274,0,0,0,16.67272,4.544v10.237h21.11995V513.844a66.32,66.32,0,0,0,16.67271-4.544l11.02145,7.24124,14.934-9.81186v-6.93208l-7.32245-4.811a25.73,25.73,0,0,0,3.21158-6.44637h15.58218v-20.8082Zm-49.07048,6.938c3.90308,0,7.3029,1.39607,9.128,3.46609-1.82508,2.07-5.2249,3.466-9.128,3.466s-7.30285-1.396-9.12793-3.466C203.57474,476.06579,206.97456,474.66972,210.87759,474.66972Z" transform="translate(-6.07724 -286.7046)" style="opacity: 0.30000000000000004;fill: url(#f1eadd27-c7f4-4552-b20c-604aaa09a305)"/>
      <path d="M275.53714,481.60776v-13.876H259.95706a28.19926,28.19926,0,0,0-6.91719-10.95713l11.0228-7.24211-14.93405-9.81184-11.02376,7.24273a66.32537,66.32537,0,0,0-16.66724-4.54165V432.19063h-21.12v10.23108a66.325,66.325,0,0,0-16.66724,4.54169l-11.027-7.24484-14.934,9.81184,11.026,7.24418a28.19912,28.19912,0,0,0-6.91714,10.95713H146.21809v13.876h15.58223a28.2,28.2,0,0,0,6.91153,10.94761l-11.01924,7.23977,14.934,9.81184,11.01829-7.23914a66.32181,66.32181,0,0,0,16.67271,4.544v10.237h21.12v-10.237a66.32122,66.32122,0,0,0,16.67271-4.54395l11.02145,7.24122,14.93405-9.81184-11.02245-7.24188a28.19988,28.19988,0,0,0,6.91158-10.94761Zm-64.65055-.00593c-5.82712,0-10.551-3.10359-10.551-6.93211s4.72386-6.93212,10.551-6.93212,10.551,3.10363,10.551,6.93212S216.71376,481.60183,210.88659,481.60183Z" transform="translate(-6.07724 -286.7046)" style="opacity: 0.4;fill: url(#fd3e4edf-2839-4428-9cbd-e4895f0b50a7)"/>
    </g>
    <path d="M246.28177,298.93733V313.4465a94.05839,94.05839,0,0,1,23.6366,6.44072L285.55155,309.616l21.17871,13.91463v9.83073l-10.38379,6.82222a36.48724,36.48724,0,0,1,4.5614,9.15619h22.09485v29.509H300.90494a36.48877,36.48877,0,0,1-4.55456,9.14187l10.3844,6.8227v9.8307l-21.17871,13.91464-15.63-10.26915a94.05015,94.05015,0,0,1-23.64429,6.444v14.51754H216.3306V414.73355a94.05354,94.05354,0,0,1-23.64435-6.444L177.0607,418.5557,155.88211,404.641v-9.83068l10.37977-6.81971a36.49208,36.49208,0,0,1-4.55445-9.14187h-22.0979v-29.509h22.09491a36.49083,36.49083,0,0,1,4.56128-9.15619l-10.38818-6.82514v-9.83078L177.05619,309.613,192.694,319.88728a94.05741,94.05741,0,0,1,23.6366-6.44078V298.93733h29.95117m2-2H214.3306v14.78532a95.60731,95.60731,0,0,0-21.4267,5.90949l-14.74951-9.69061-1.0982-.72156-1.09821.72156-21.17865,13.91458-.90179.59247v11.98884l.90179.59247,8.73163,5.73676a38.36464,38.36464,0,0,0-3.22534,6.57307H137.60953v33.509H160.289a38.36925,38.36925,0,0,0,3.21844,6.55855l-8.72351,5.73152-.9018.59251v11.98871l.9018.59248,21.17859,13.91466,1.0982.72156,1.09821-.72156,14.73712-9.68245a95.59839,95.59839,0,0,0,21.43457,5.91267v14.79368h33.95117V416.45741a95.60016,95.60016,0,0,0,21.43457-5.91265l14.74158,9.68541,1.09815.72155,1.09814-.72155,21.17871-13.91465.90186-.59246V393.7343l-.90186-.59247-8.728-5.73449a38.36825,38.36825,0,0,0,3.21851-6.55858h22.67932v-33.509h-22.676a38.3567,38.3567,0,0,0-3.22547-6.57306l8.72717-5.73383.90186-.5925V322.45156l-.90186-.59247-21.17871-13.91465-1.09814-.72155-1.09827.72155-14.74475,9.68762a95.61253,95.61253,0,0,0-21.42676-5.90941V296.93733Z" transform="translate(-6.07724 -286.7046)" style="fill: url(#e232bd6c-777a-49a0-a77b-c568e39e74f9)"/>
    <path d="M99.6597,372.03076v12.45673a80.752,80.752,0,0,1,20.293,5.5296l13.42182-8.81828,18.18273,11.94627v8.44l-8.91485,5.85719a31.32828,31.32828,0,0,1,3.91614,7.861h18.9693V440.638H146.55594a31.32657,31.32657,0,0,1-3.91021,7.84869l8.91534,5.85755v8.44007l-18.18274,11.94629-13.419-8.81645A80.74887,80.74887,0,0,1,99.6597,471.4466v12.46386H73.94541V471.4466a80.75167,80.75167,0,0,1-20.29962-5.53246L40.23063,474.728,22.04789,462.78173v-8.44l8.9115-5.855a31.3283,31.3283,0,0,1-3.91022-7.84869H8.07724v-25.3347H27.0466a31.32806,31.32806,0,0,1,3.91608-7.861l-8.9187-5.85968v-8.44012l18.18274-11.94624,13.42572,8.82089a80.75116,80.75116,0,0,1,20.293-5.52968V372.03076H99.6597m2-2H71.94541V382.766a82.34018,82.34018,0,0,0-18.082,4.99675l-12.53845-8.23795-1.09821-.72154-1.09821.72151L20.94577,391.471l-.90179.59249v10.59816l.90179.59252,7.26844,4.77543a33.189,33.189,0,0,0-2.58136,5.27369H6.07724V442.638H25.63578a33.19366,33.19366,0,0,0,2.57544,5.26124l-7.26154,4.771-.90179.59249v10.59808l.90179.59248,18.18274,11.94629,1.09821.72155,1.0982-.72153,12.52783-8.2309a82.3349,82.3349,0,0,0,18.08875,4.99945v12.74237H101.6597V473.16811a82.33454,82.33454,0,0,0,18.08881-4.99945l12.53162,8.23343,1.0982.72155,1.09821-.72155,18.18274-11.94629.90179-.59247V453.26522l-.90179-.59249-7.26539-4.7735a33.19042,33.19042,0,0,0,2.57544-5.26124h19.55848v-29.3347H147.97226a33.19538,33.19538,0,0,0-2.58142-5.2737l7.26459-4.77295.90179-.59248V392.06607l-.90179-.59248L134.47269,379.5273l-1.0982-.72154-1.09821.72154-12.53455,8.23535a82.34358,82.34358,0,0,0-18.082-4.99667V370.03076Z" transform="translate(-6.07724 -286.7046)" style="fill: url(#fb50c6ba-8921-4d96-b2e4-302d21586ff6)"/>
    <path d="M221.4376,432.19063v10.23694a66.32444,66.32444,0,0,1,16.67273,4.544l11.01824-7.23913,14.93409,9.81186v6.93209l-7.31934,4.80887a25.73413,25.73413,0,0,1,3.21167,6.44638h15.58215v20.80819H259.95707a25.72782,25.72782,0,0,1-3.21643,6.45645l7.32519,4.81275v6.93213l-14.934,9.8118-11.027-7.24485a66.32482,66.32482,0,0,1-16.66729,4.54169v10.23111H200.31766V513.84981a66.32432,66.32432,0,0,1-16.66723-4.54163l-11.02375,7.24274-14.93408-9.81186V499.807l7.32208-4.81067a25.73007,25.73007,0,0,1-3.21649-6.45645H146.21811V467.73165h15.58222a25.73166,25.73166,0,0,1,3.21155-6.44638l-7.32245-4.811v-6.93208l14.93408-9.81185,11.02142,7.24122a66.321,66.321,0,0,1,16.67273-4.544V432.19063H221.4376m.82135-.82133H199.49631v10.34788a66.88893,66.88893,0,0,0-15.76636,4.3275l-10.65545-7.00076-.451-.29631-.451.29631-14.93408,9.81186-.3703.24333v7.81828l.3703.24333,6.63562,4.35971a26.528,26.528,0,0,0-2.66168,5.3899H145.39676v22.45083h15.8133a26.52887,26.52887,0,0,0,2.66662,5.40006l-6.63507,4.35931-.37036.24329v7.81836l.37036.24331,14.93408,9.81186.451.29633.451-.29633,10.65778-7.00232a66.89976,66.89976,0,0,0,15.76086,4.32517v10.342H222.259v-10.342a66.89789,66.89789,0,0,0,15.76086-4.3252l10.661,7.0044.451.29629.45105-.29629,14.934-9.8118.37024-.24332v-7.81836l-.37024-.24331-6.63831-4.36139a26.527,26.527,0,0,0,2.66663-5.40006h15.81323V466.91033H260.543a26.5296,26.5296,0,0,0-2.66186-5.38988l6.63257-4.35762.37024-.24333v-7.81829l-.37024-.24333L249.57962,439.046l-.45105-.29631-.451.29631-10.65223,6.99867a66.88979,66.88979,0,0,0-15.76635-4.3275V431.3693Z" transform="translate(-6.07724 -286.7046)" style="fill: url(#b44b57ac-a0bd-4ad2-b628-fe5644b1c38b)"/>
    <g>
      <path d="M271.25758,315.30348l-1.52-1.08353c-3.34823-8.74346-11.79572-15.8556-22.76917-19.379l-2.04877-1.88626-5.25681.149a52.84858,52.84858,0,0,0-8.369-.6654c-17.48961,0-32.34812,8.45617-37.79281,20.23647l-2.2262,3.87468v6.88865l.03168.10127c.66456,16.21653,18.30531,29.20977,39.98733,29.20977,22.10293,0,40.019-13.50017,40.019-30.15538Z" transform="translate(-6.07724 -286.7046)" style="fill: #b5ddf7"/>
      <g style="clip-path: url(#be1330e9-02a7-4362-a2e2-098d82c54319)">
        <polyline points="181.983 42.158 181.983 30.419 185.69 37.077 185.029 48.754 185.69 37.077 190.381 43.857 190.381 55.536 190.381 43.857 195.753 49.257 195.753 59.536 195.753 49.257 200.519 53.419 200.519 62.313 200.519 53.419 205.891 55.991 205.891 64.632 205.891 55.991 211.868 57.655 211.868 66.416 211.868 57.958 217.996 59.471 217.996 67.556 217.996 59.471 223.973 59.774 223.973 67.945 223.973 59.774 230.252 59.471 230.252 67.726 230.252 59.471 236.607 58.79 236.607 66.821 236.607 58.79 244.022 56.621 244.022 64.782 244.022 56.621 251.512 52.763 251.512 61.411 251.512 52.763 257.009 49.182 257.009 57.786 257.009 49.182 261.599 45.096 261.599 53.586 261.599 45.096 265.281 40.305 265.281 48.795 265.281 40.305 267.627 35.337 267.627 44.208 267.627 35.337 269.468 29.082 269.468 35.715 269.468 29.082" style="fill: none;stroke: #85afc1;stroke-miterlimit: 10;stroke-width: 3.05990128250019px;opacity: 0.5"/>
      </g>
      <path d="M231.29385,347.01545c-22.103,0-40.019-13.50021-40.019-30.15543s17.916-30.15542,40.019-30.15542,40.019,13.50021,40.019,30.15542S253.39684,347.01545,231.29385,347.01545Zm17.981-33.88716c.78537-3.95036-3.209-6.07443-8.66661-7.49174l1.77084-5.35259-4.32206-.81042-1.72582,5.21123c-1.13554-.21486-2.30109-.41464-3.46414-.61442l1.73832-5.24516-4.322-.81231-1.77084,5.35071c-.94045-.16209-1.86589-.32041-2.76132-.49l.005-.017-5.96283-1.12141-1.15055,3.47918s3.209.55411,3.14149.588c1.75083.32983,2.066,1.20245,2.01346,1.896l-2.016,6.09705c.12006.02261.27513.05654.45022.10743l-.45772-.08482-2.82634,8.54153a1.68661,1.68661,0,0,1-1.98344.77273c.045.04712-3.14149-.58991-3.14149-.58991l-2.146,3.728,5.62767,1.05733c1.0455.19789,2.071.40521,3.079.59934l-1.78835,5.4129,4.31955.81042,1.77084-5.35258c1.18056.23936,2.32611.46175,3.44664.67284l-1.76584,5.33,4.322.81043,1.78835-5.40159c7.3735,1.05167,12.91613.62761,15.24974-4.397,1.8809-4.0446-.09254-6.37976-3.97188-7.90072C246.58111,317.42167,248.70712,316.02133,249.27488,313.12829Zm-9.87969,10.43755c-1.33314,4.04648-10.37493,1.85833-13.30632,1.30987l2.37613-7.17133C231.39639,318.2566,240.79335,319.34785,239.39519,323.56584Zm1.33813-10.496c-1.21807,3.68085-8.74164,1.80933-11.1803,1.35134l2.151-6.50226C234.1427,308.37693,242.00393,309.2307,240.73332,313.06986Z" transform="translate(-6.07724 -286.7046)" style="fill: #fff;fill-rule: evenodd"/>
    </g>
    <g>
      <path d="M124.56583,383.37847l-1.43674-1.02417c-3.1648-8.26444-11.14948-14.98694-21.52174-18.31729l-1.93653-1.78291-4.96881.14079a49.95314,49.95314,0,0,0-7.91047-.62894c-16.53143,0-30.5759,7.99289-35.72229,19.12779L48.965,384.55615v6.51125l.02994.09571c.62815,15.32809,17.30244,27.60948,37.79659,27.60948,20.892,0,37.82653-12.76054,37.82653-28.50328Z" transform="translate(-6.07724 -286.7046)" style="fill: #b5ddf7"/>
      <g style="clip-path: url(#b16fbd84-4894-40b4-a76a-d79e596e6be5)">
        <polyline points="39.849 109.49 39.849 98.394 43.353 104.687 42.728 115.725 43.353 104.687 47.787 111.096 47.787 122.135 47.787 111.096 52.865 116.201 52.865 125.916 52.865 116.201 57.37 120.134 57.37 128.541 57.37 120.134 62.447 122.565 62.447 130.733 62.447 122.565 68.097 124.138 68.097 132.419 68.097 124.425 73.889 125.855 73.889 133.497 73.889 125.855 79.538 126.141 79.538 133.864 79.538 126.141 85.474 125.855 85.474 133.658 85.474 125.855 91.481 125.211 91.481 132.802 91.481 125.211 98.489 123.161 98.489 130.874 98.489 123.161 105.569 119.514 105.569 127.688 105.569 119.514 110.765 116.129 110.765 124.262 110.765 116.129 115.104 112.267 115.104 120.292 115.104 112.267 118.584 107.738 118.584 115.764 118.584 107.738 120.801 103.042 120.801 111.428 120.801 103.042 122.541 97.131 122.541 103.4 122.541 97.131" style="fill: none;stroke: #85afc1;stroke-miterlimit: 10;stroke-width: 2.89226135356078px;opacity: 0.5"/>
      </g>
      <g>
        <path d="M86.85455,413.33781c-20.80679,0-37.67213-12.75376-37.67213-28.48808s16.86534-28.48808,37.67213-28.48808,37.67213,12.75376,37.67213,28.48808S107.66134,413.33781,86.85455,413.33781Zm18.82194-28.09815-17.6494-21.756L70.373,385.24144,88.0271,392.992Zm.01412,2.48737L88.0271,395.474,70.373,387.72881,88.0271,406.20689Z" transform="translate(-6.07724 -286.7046)" style="fill: #fff;fill-rule: evenodd"/>
        <g>
          <path d="M88.02709,363.48367v15.79308l17.65175,5.96469Zm0,31.99212v10.7311L105.69061,387.727Z" transform="translate(-6.07724 -286.7046)" style="fill: #fff;fill-opacity: 0.298000007867813"/>
          <path d="M88.02709,392.992l17.65175-7.75054-17.65175-5.96113Z" transform="translate(-6.07724 -286.7046)" style="fill: #fff;fill-opacity: 0.800999999046326"/>
          <path d="M70.373,385.24144,88.0271,392.992V379.28031Z" transform="translate(-6.07724 -286.7046)" style="fill: #fff;fill-opacity: 0.298000007867813"/>
        </g>
      </g>
    </g>
    <g>
      <path d="M239.741,435.28678l-1.09782-.78257c-2.41823-6.31488-8.51935-11.45156-16.44482-13.99629l-1.47971-1.36233-3.79668.10758a38.16939,38.16939,0,0,0-6.04441-.48058c-12.63171,0-23.36313,6.10739-27.2955,14.6156l-1.60785,2.79845v4.97527l.02288.07314c.48,11.71223,13.22084,21.09647,28.88047,21.09647,15.96363,0,28.90336-9.75036,28.90336-21.77943Z" transform="translate(-6.07724 -286.7046)" style="fill: #b5ddf7"/>
      <g style="clip-path: url(#ebf37bf7-420a-4fca-a6a9-f9a4696b5531)">
        <polyline points="173.575 158.375 173.575 149.897 176.253 154.705 175.775 163.139 176.253 154.705 179.641 159.602 179.641 168.037 179.641 159.602 183.52 163.503 183.52 170.927 183.52 163.503 186.963 166.508 186.963 172.932 186.963 166.508 190.842 168.366 190.842 174.607 190.842 168.366 195.159 169.568 195.159 175.895 195.159 169.787 199.585 170.879 199.585 176.719 199.585 170.879 203.902 171.098 203.902 176.999 203.902 171.098 208.437 170.879 208.437 176.842 208.437 170.879 213.027 170.388 213.027 176.188 213.027 170.388 218.382 168.821 218.382 174.715 218.382 168.821 223.792 166.034 223.792 172.28 223.792 166.034 227.762 163.448 227.762 169.662 227.762 163.448 231.077 160.497 231.077 166.629 231.077 160.497 233.737 157.037 233.737 163.169 233.737 157.037 235.431 153.448 235.431 159.856 235.431 153.448 236.76 148.931 236.76 153.722 236.76 148.931" style="fill: none;stroke: #85afc1;stroke-miterlimit: 10;stroke-width: 2.20998457744849px;opacity: 0.5"/>
      </g>
      <path d="M210.88661,458.18979c-15.96866,0-28.91236-9.75011-28.91236-21.77882s12.9437-21.77881,28.91236-21.77881S239.799,424.38226,239.799,436.411,226.85527,458.18979,210.88661,458.18979Zm-10.07053-17.404-2.12326,6.51459h23.26542l1.57753-4.86076H209.58194l1.53236-4.741,2.57862-.77723,1.22877-3.74324-2.5479.77724,2.74487-8.43385h-9.26822L202.09,436.99492l-2.60935.78948-1.24323,3.75548Z" transform="translate(-6.07724 -286.7046)" style="fill: #fff;fill-rule: evenodd"/>
    </g>
  </g>
</svg>
