<svg id="Layer_1" fill="#58A5FF" enable-background="new 0 0 509.213 509.213" height="512" viewBox="0 0 509.213 509.213" width="512" xmlns="http://www.w3.org/2000/svg"><g><path d="m434.606 90c-41.355 0-75-33.645-75-75v-15h-210v15c0 41.355-33.644 75-75 75h-15v180c0 37.483 10.667 73.893 30.848 105.29 19.64 30.555 47.302 54.985 79.996 70.647 26.598 12.742 51.276 30.396 73.35 52.47l10.806 10.806 10.806-10.806c22.074-22.074 46.753-39.728 73.351-52.47 32.694-15.662 60.357-40.092 79.997-70.647 20.18-31.397 30.847-67.807 30.847-105.29v-180zm-256.068-60h152.137c6.597 45.917 43.015 82.335 88.932 88.932v121.068h-38.387c-7.448-63.26-61.384-112.5-126.613-112.5s-119.165 49.24-126.613 112.5h-38.388v-121.068c45.917-6.597 82.335-43.015 88.932-88.932zm53.568 225c0-12.406 10.094-22.5 22.5-22.5s22.5 10.094 22.5 22.5-10.094 22.5-22.5 22.5-22.5-10.094-22.5-22.5zm22.5 52.5c21.234 0 39.068 14.788 43.774 34.603-13.171 6.647-28.042 10.397-43.774 10.397s-30.604-3.75-43.774-10.397c4.706-19.815 22.54-34.603 43.774-34.603zm69.206 16.109c-5.995-14.308-16.308-26.363-29.292-34.561 7.839-9.175 12.587-21.064 12.587-34.049 0-28.948-23.552-52.5-52.5-52.5s-52.5 23.552-52.5 52.5c0 12.984 4.748 24.874 12.587 34.049-12.984 8.197-23.297 20.253-29.292 34.561-17.48-17.631-28.295-41.88-28.295-68.609 0-53.762 43.738-97.5 97.5-97.5s97.5 43.738 97.5 97.5c-.001 26.729-10.815 50.978-28.295 68.609zm1.99 95.274c-25.531 12.23-49.427 28.468-71.195 48.36-21.769-19.893-45.664-36.13-71.195-48.36-56.984-27.3-93.805-85.74-93.805-148.883h38.387c7.448 63.26 61.385 112.5 126.613 112.5 65.229 0 119.165-49.24 126.613-112.5h38.387c-.001 63.144-36.821 121.583-93.805 148.883z"/><path d="m209.606 60h30v30h-30z"/><path d="m269.606 60h30v30h-30z"/></g></svg>