<svg width="55" height="55" viewBox="0 0 55 55" fill="none" xmlns="http://www.w3.org/2000/svg">
<path d="M47.0712 6.66719C30.9915 6.66719 28.2688 0.562252 28.2445 0.504985C28.1265 0.206506 27.8384 0.00694138 27.5052 0C27.5052 0 27.5018 0 27.4948 0C27.1738 0 26.8805 0.199565 26.7556 0.491102C26.733 0.55531 23.9512 6.66719 7.9288 6.66719C7.48282 6.66719 7.12708 7.02988 7.12708 7.46719V34.8232C7.12708 46.0213 26.3634 54.5766 27.1755 54.9358C27.2831 54.9826 27.389 55 27.5017 55C27.6076 55 27.7204 54.9826 27.8211 54.9358C28.6419 54.5766 47.8747 46.0213 47.8747 34.8232V7.46719C47.873 7.02988 47.5172 6.66719 47.0712 6.66719ZM43.453 33.2318C43.453 41.9936 28.3937 48.6972 27.7516 48.9749C27.6735 49.0148 27.5833 49.0287 27.5017 49.0287C27.4132 49.0287 27.3317 49.0148 27.2449 48.9749C26.6115 48.6972 11.5522 41.9936 11.5522 33.2318V11.8194C11.5522 11.4741 11.8316 11.1895 12.1787 11.1895C24.7252 11.1895 26.8961 6.40689 26.9204 6.36004C27.0193 6.12924 27.2467 5.97305 27.5 5.97305C27.5035 5.97305 27.507 5.97305 27.507 5.97305C27.7655 5.97653 27.9911 6.13271 28.0848 6.37045C28.1039 6.41383 30.2349 11.1895 42.8248 11.1895C43.1736 11.1895 43.4513 11.4741 43.4513 11.8194C43.4513 11.8194 43.4513 33.2318 43.453 33.2318ZM40.4492 32.9993C40.4492 40.1177 28.2237 45.5528 27.7013 45.7766C27.6388 45.8131 27.5642 45.8235 27.4983 45.8235C27.4271 45.8235 27.2952 10.8719 27.4983 10.8719H27.5017C27.7117 10.8754 27.8991 11.0003 27.972 11.1947C27.9859 11.2294 29.7178 15.1062 39.9372 15.1062C40.2218 15.1062 40.4492 15.337 40.4492 15.6146V32.9993Z" fill="url(#paint0_linear)"/>
<defs>
<linearGradient id="paint0_linear" x1="27.5009" y1="0" x2="27.5009" y2="55" gradientUnits="userSpaceOnUse">
<stop stop-color="#002671"/>
<stop offset="1" stop-color="#0057FF"/>
</linearGradient>
</defs>
</svg>
