<svg width="55" height="55" viewBox="0 0 55 55" fill="none" xmlns="http://www.w3.org/2000/svg">
<path d="M52.4647 52.8515H50.1087V18.6415C50.1087 17.0492 48.8132 15.7538 47.221 15.7538H41.9547C40.3624 15.7538 39.067 17.0493 39.067 18.6415V52.8515H33.0844V34.1413C33.0844 32.549 31.789 31.2536 30.1967 31.2536H24.9305C23.3382 31.2536 22.0428 32.5491 22.0428 34.1413V52.8515H16.0602V43.1616C16.0602 41.5693 14.7647 40.2739 13.1725 40.2739H7.90616C6.31384 40.2739 5.01844 41.5694 5.01844 43.1616V52.8515H2.53528C1.94199 52.8515 1.46106 53.3324 1.46106 53.9257C1.46106 54.519 1.94199 54.9999 2.53528 54.9999H52.4647C53.058 54.9999 53.539 54.519 53.539 53.9257C53.539 53.3324 53.058 52.8515 52.4647 52.8515ZM13.9116 52.8515H7.16677V43.1616C7.16677 42.754 7.49838 42.4223 7.90605 42.4223H13.1723C13.58 42.4223 13.9116 42.754 13.9116 43.1616V52.8515ZM30.9359 52.8515H24.1911V34.1413C24.1911 33.7336 24.5227 33.402 24.9304 33.402H30.1966C30.6042 33.402 30.9359 33.7336 30.9359 34.1413V52.8515ZM47.9602 52.8515H41.2154V18.6415C41.2154 18.2338 41.547 17.9022 41.9547 17.9022H47.221C47.6286 17.9022 47.9602 18.2338 47.9602 18.6415V52.8515Z" fill="url(#paint0_linear)"/>
<path d="M50.1061 1.12965C50.1211 0.836494 50.018 0.538398 49.7942 0.314531C49.5703 0.090664 49.2722 -0.0125684 48.979 0.00257813C48.9617 0.00182617 48.9447 0 48.927 0H42.428C41.8347 0 41.3538 0.480928 41.3538 1.07422C41.3538 1.66751 41.8347 2.14844 42.428 2.14844H46.441L35.8216 12.7679L31.8169 8.76326C31.6155 8.56185 31.3422 8.44862 31.0573 8.44862C30.7724 8.44862 30.4991 8.56185 30.2977 8.76326L10.9866 28.0745C10.5671 28.494 10.5671 29.1742 10.9866 29.5938C11.1964 29.8033 11.4713 29.9082 11.7462 29.9082C12.0211 29.9082 12.2961 29.8033 12.5058 29.5935L31.0573 11.0419L35.062 15.0466C35.4815 15.4661 36.1617 15.4661 36.5813 15.0466L47.9603 3.66771V7.29964C47.9603 7.89293 48.4412 8.37386 49.0345 8.37386C49.6278 8.37386 50.1087 7.89293 50.1087 7.29964V1.18164C50.1087 1.16413 50.1069 1.14705 50.1061 1.12965Z" fill="url(#paint1_linear)"/>
<path d="M8.12537 33.6562C8.71864 33.6562 9.19958 33.1753 9.19958 32.582C9.19958 31.9888 8.71864 31.5078 8.12537 31.5078C7.53209 31.5078 7.05115 31.9888 7.05115 32.582C7.05115 33.1753 7.53209 33.6562 8.12537 33.6562Z" fill="url(#paint2_linear)"/>
<defs>
<linearGradient id="paint0_linear" x1="27.5" y1="15.7538" x2="27.5" y2="54.9999" gradientUnits="userSpaceOnUse">
<stop stop-color="#002671"/>
<stop offset="1" stop-color="#0057FF"/>
</linearGradient>
<linearGradient id="paint1_linear" x1="30.3903" y1="0" x2="30.3903" y2="29.9082" gradientUnits="userSpaceOnUse">
<stop stop-color="#002671"/>
<stop offset="1" stop-color="#0057FF"/>
</linearGradient>
<linearGradient id="paint2_linear" x1="8.12537" y1="31.5078" x2="8.12537" y2="33.6562" gradientUnits="userSpaceOnUse">
<stop stop-color="#002671"/>
<stop offset="1" stop-color="#0057FF"/>
</linearGradient>
</defs>
</svg>
