<svg id="a750de5f-cff3-417a-8526-5ed4cf4fa487" data-name="Слой 1" xmlns="http://www.w3.org/2000/svg" viewBox="0 0 32 32">
  <title>usdt</title>
  <path d="M17.922,13.793V11.427h5.414V7.819H8.595v3.608h5.414v2.365c-4.4.202-7.709,1.074-7.709,2.118s3.309,1.915,7.709,2.118V25.61h3.913V18.026c4.393-.202,7.694-1.073,7.694-2.116S22.315,13.996,17.922,13.793Zm0,3.59v-.002c-.11.008-.677.042-1.942.042-1.01,0-1.721-.03-1.971-.042v.003c-3.888-.171-6.79-.848-6.79-1.658,0-.809,2.902-1.486,6.79-1.66V16.71c.254.018.982.061,1.988.061,1.207,0,1.812-.05,1.925-.06V14.068c3.88.173,6.775.85,6.775,1.658C24.697,16.536,21.802,17.211,17.922,17.383Z" style="fill: #fff;fill-rule: evenodd"/>
  <path d="M16,2.3A13.7,13.7,0,1,1,2.3,16,13.71551,13.71551,0,0,1,16,2.3M16,0A16,16,0,1,0,32,16,16,16,0,0,0,16,0Z" style="fill: #fff"/>
</svg>
