<svg data-name="Слой 1" xmlns="http://www.w3.org/2000/svg" viewBox="0 0 426.724 479.377"><defs><clipPath id="a" transform="translate(-444.69 39.94)"><path fill="none" d="M409.055 43.121h421.714v481.451H409.055z"/></clipPath><clipPath id="e" transform="translate(-444.69 39.94)"><path d="M572.395 201.802l-.665.926c-5.524 2.16-9.917 7.326-11.972 13.928l-1.169 1.255.189 3.128a29.41 29.41 0 00-.277 4.996c.31 10.416 5.973 19.103 13.593 22.122l2.514 1.252 4.4-.131.063-.02c10.345-.705 18.33-11.457 17.946-24.368-.392-13.163-9.33-23.575-19.967-23.259z" fill="none"/></clipPath><clipPath id="f" transform="translate(-444.69 39.94)"><path d="M635.768 167.341l-.77.896a22.235 22.235 0 00-13.735 13.386l-1.336 1.203.064 3.133a26.924 26.924 0 00-.531 4.98c-.136 10.419 5.664 19.348 13.863 22.699l2.693 1.361 4.82.063.07-.017c11.35-.248 20.578-10.638 20.747-23.554.172-13.167-9.133-23.964-20.785-24.116z" fill="none"/></clipPath><clipPath id="g" transform="translate(-444.69 39.94)"><path d="M590.693 126.457l-.624 1.003a22.235 22.235 0 00-11.515 15.337l-1.135 1.395.544 3.086a26.923 26.923 0 00.24 5.001c1.467 10.317 8.57 18.248 17.186 20.3l2.87.932 4.772-.678.068-.029c11.177-1.988 18.699-13.672 16.881-26.46-1.852-13.038-12.705-22.277-24.242-20.638z" fill="none"/></clipPath><linearGradient id="c" data-name="Безымянный градиент 99" x1="512.713" y1="340.372" x2="676.415" y2="340.372" gradientUnits="userSpaceOnUse"><stop offset="0" stop-color="#242463"/><stop offset=".007" stop-color="#212a6e"/><stop offset=".031" stop-color="#183b8f"/><stop offset=".059" stop-color="#114aab"/><stop offset=".089" stop-color="#0a56c2"/><stop offset=".124" stop-color="#065fd4"/><stop offset=".166" stop-color="#0265e0"/><stop offset=".224" stop-color="#0169e7"/><stop offset=".362" stop-color="#006ae9"/><stop offset=".427" stop-color="#0665dc"/><stop offset=".69" stop-color="#1d50a9"/><stop offset=".889" stop-color="#2c448a"/><stop offset="1" stop-color="#313f7e"/></linearGradient><linearGradient id="d" data-name="Безымянный градиент 112" x1="649.942" y1="435.441" x2="587.234" y2="216.754" gradientUnits="userSpaceOnUse"><stop offset="0" stop-color="#94e8ff" stop-opacity=".4"/><stop offset=".386" stop-color="#aae1ff" stop-opacity=".469"/><stop offset="1" stop-color="#d5d4ff" stop-opacity=".6"/></linearGradient><linearGradient id="h" data-name="Безымянный градиент 158" x1="647.494" y1="362.434" x2="689.428" y2="362.434" gradientUnits="userSpaceOnUse"><stop offset="0" stop-color="#456aff"/><stop offset=".024" stop-color="#4266ef"/><stop offset=".074" stop-color="#3c5fd4"/><stop offset=".132" stop-color="#375abe"/><stop offset=".198" stop-color="#3355ad"/><stop offset=".28" stop-color="#3152a1"/><stop offset=".394" stop-color="#2f509a"/><stop offset=".701" stop-color="#2f5098"/><stop offset=".702" stop-color="#2f4f97"/><stop offset=".718" stop-color="#2f4180"/><stop offset=".736" stop-color="#2f356f"/><stop offset=".759" stop-color="#2f2d62"/><stop offset=".789" stop-color="#2f285b"/><stop offset=".86" stop-color="#2f2759"/><stop offset=".904" stop-color="#25214f"/><stop offset=".98" stop-color="#091336"/><stop offset="1" stop-color="#000e2e"/></linearGradient><radialGradient id="b" data-name="Безымянный градиент 48" cx="597.663" cy="283.791" r="236.298" gradientTransform="matrix(.4065 -.91365 .85004 .3782 113.48 722.518)" gradientUnits="userSpaceOnUse"><stop offset=".025" stop-color="#c2ffff"/><stop offset=".062" stop-color="#b8f6ff" stop-opacity=".92"/><stop offset=".167" stop-color="#9ddfff" stop-opacity=".707"/><stop offset=".277" stop-color="#86caff" stop-opacity=".518"/><stop offset=".388" stop-color="#72b8ff" stop-opacity=".359"/><stop offset=".501" stop-color="#62aaff" stop-opacity=".229"/><stop offset=".617" stop-color="#559fff" stop-opacity=".128"/><stop offset=".736" stop-color="#4c97ff" stop-opacity=".056"/><stop offset=".86" stop-color="#4793ff" stop-opacity=".014"/><stop offset="1" stop-color="#4591ff" stop-opacity="0"/></radialGradient></defs><g clip-path="url(#a)"><path d="M518.79 252.58l-74.1-129.315s182.253-290.745 360-96.108c149.578 163.79 21.617 412.043-128.275 399.958C562.571 387.182 518.789 252.58 518.789 252.58z" transform="translate(-444.69 39.94)" fill-rule="evenodd" fill="url(#b)"/><path d="M676.415 286.09v140.508a12.598 12.598 0 01-14.767 12.41l-137.19-23.968c-4.227-.738-7.303-1.909-9.331-3.57-.852-.7-2.414-2.371-2.414-4.066v-165.86c0 3.086 4.666 6.171 11.746 7.409l141.526 24.726a12.598 12.598 0 0110.43 12.41z" transform="translate(-444.69 39.94)" stroke="#fff" stroke-miterlimit="10" stroke-width=".476" fill="url(#c)"/><path fill="#529df7" stroke="#fff" stroke-miterlimit="10" stroke-width=".476" d="M68.022 281.484v-.081M68.022 447.438v-.095"/><path d="M684.628 273.066v147.145a7.008 7.008 0 01-8.213 6.904h0V286.103a12.614 12.614 0 00-10.443-12.426l-141.513-24.724c-7.08-1.238-11.746-4.323-11.746-7.408a3.333 3.333 0 01.543-1.786c1.714-2.723 7.118-4.375 13.307-4.375a35.863 35.863 0 016.109.528l141.513 24.728a12.614 12.614 0 0110.443 12.426z" transform="translate(-444.69 39.94)" stroke="#fff" stroke-miterlimit="10" stroke-width=".476" fill="url(#d)"/><g fill="none" stroke="#fff" stroke-miterlimit="10" stroke-width=".5" opacity=".8"><path d="M68.022 292.896a12.422 12.422 0 001.237.844"/><path d="M71.936 295.131a26.604 26.604 0 004.274 1.457c4.355 1.09 102.223 17.464 136.198 23.137a13.761 13.761 0 0111.494 13.579v126.864a10.283 10.283 0 01-12.132 10.115L73.836 445.072s-4.536-1.235-5.595-8.067" stroke-dasharray="3.0191824436187744,3.0191824436187744"/><path d="M68.073 435.497q-.05-.716-.05-1.502"/></g><path d="M127.704 241.742l-.665.926c-5.524 2.16-9.917 7.325-11.972 13.927l-1.169 1.256.189 3.127a29.41 29.41 0 00-.277 4.997c.31 10.415 5.973 19.103 13.593 22.121l2.514 1.252 4.4-.13.063-.021c10.345-.704 18.33-11.456 17.946-24.368-.392-13.162-9.33-23.575-19.967-23.259z" fill="#b5ddf7"/><g clip-path="url(#e)"><path fill="none" d="M137.837 291.029l-7.496.223 4.186-2.334 7.469.172-7.469-.172 4.247-2.923 7.458-.222-7.458.222 3.353-3.301 6.565-.195-6.565.195 2.573-2.918 5.681-.169-5.681.169 1.548-3.247 5.519-.164-5.519.164.957-3.591 5.595-.167-5.402.161.858-3.678 5.163-.154-5.163.154.087-3.565 5.219-.155-5.219.155-.304-3.734 5.272-.157-5.272.157-.548-3.771 5.129-.153-5.129.153-1.516-4.375 5.211-.155-5.211.155-2.597-4.387 5.523-.164-5.523.164-2.384-3.205 5.495-.164-5.495.164-2.691-2.656 5.422-.161-5.422.161-3.125-2.102 5.422-.161-5.422.161-3.214-1.302 5.665-.169-5.665.169-4.027-.977 4.236-.126-4.236.126"/></g><path d="M148.664 264.938c.392 13.162-7.912 24.088-18.549 24.404s-19.575-10.096-19.967-23.258 7.913-24.088 18.55-24.405 19.575 10.096 19.966 23.259zm-21.96-10.064c-2.536-.393-3.822 2.026-4.63 5.303l-3.45-.953-.44 2.59 3.358.928c-.117.68-.224 1.379-.331 2.075l-3.38-.936-.443 2.59 3.448.953c-.086.563-.171 1.117-.264 1.653l-.01-.002-.611 3.572 2.242.619s.297-1.922.32-1.882c.18-1.049.731-1.253 1.175-1.235l3.93 1.084a2.702 2.702 0 01.06-.27l-.046.275 5.505 1.52a.982.982 0 01.529 1.167c.03-.028-.321 1.882-.321 1.882l2.419 1.207.575-3.371c.108-.627.222-1.241.328-1.845l3.489.962.44-2.588-3.449-.953c.132-.707.254-1.394.369-2.065l3.435.95.44-2.589-3.48-.962c.54-4.411.172-7.704-3.079-8.998-2.616-1.043-4.072.176-4.975 2.515a3.675 3.675 0 00-3.152-3.196zm6.841 5.685c2.608.717 1.37 6.143 1.073 7.9l-4.622-1.28c.3-1.756.83-7.372 3.55-6.62zm-6.726-.597c2.372.655 1.31 5.17 1.06 6.632l-4.19-1.158c.25-1.46.655-6.158 3.13-5.474z" fill="#fff" fill-rule="evenodd"/><path d="M191.077 207.28l-.77.896a22.235 22.235 0 00-13.735 13.387l-1.335 1.203.063 3.133a26.924 26.924 0 00-.53 4.98c-.137 10.418 5.663 19.347 13.862 22.698l2.693 1.362 4.82.063.07-.018c11.35-.248 20.578-10.638 20.747-23.554.172-13.167-9.133-23.963-20.785-24.116z" fill="#b5ddf7"/><g clip-path="url(#f)"><path fill="none" d="M199.914 256.967l-8.212-.108 4.686-2.147 8.165.501-8.165-.501 4.78-2.733 8.171.107-8.171-.107 3.82-3.15 7.191.094-7.191-.094 2.948-2.802 6.223.082-6.223-.082 1.842-3.176 6.045.079-6.045-.079 1.211-3.545 6.129.08-5.917-.078 1.106-3.636 5.656.074-5.656-.074.258-3.558 5.717.075-5.717-.075-.163-3.744 5.776.076-5.776-.076-.426-3.792 5.618.074-5.618-.074-1.46-4.437 5.709.075-5.709-.075-2.641-4.497 6.05.079-6.05-.079-2.462-3.308 6.019.079-6.019-.079-2.823-2.771 5.94.077-5.94-.077-3.323-2.238 5.94.078-5.94-.078-3.458-1.442 6.207.081-6.207-.081-4.361-1.154 4.64.06-4.64-.06"/></g><path d="M212.95 231.378c-.172 13.167-9.756 23.716-21.408 23.564s-20.956-10.95-20.784-24.116 9.756-23.717 21.408-23.564 20.957 10.949 20.785 24.116zm-18.232-11.255c-2.075-1.636-4.429-.193-6.781 2.238l-2.615-2.589-1.682 2.022 2.545 2.52c-.443.531-.885 1.082-1.327 1.632l-2.562-2.538-1.682 2.02 2.613 2.589c-.357.444-.709.882-1.058 1.3l-.009-.008-2.322 2.788 1.7 1.682s1.221-1.515 1.222-1.47c.682-.818 1.277-.713 1.666-.471l2.979 2.948a2.636 2.636 0 01.188-.204l-.177.215 4.172 4.13a.974.974 0 01-.106 1.283c.04-.01-1.223 1.469-1.223 1.469l1.565 2.283 2.191-2.632c.408-.489.816-.964 1.211-1.433l2.645 2.616 1.68-2.02-2.614-2.589c.47-.546.92-1.08 1.357-1.604l2.603 2.58 1.681-2.022-2.638-2.613c2.677-3.552 3.983-6.597 1.716-9.38-1.823-2.241-3.733-1.927-5.704-.358a3.721 3.721 0 00-1.234-4.384zm3.299 8.427c1.978 1.954-1.826 6.03-2.966 7.402l-3.503-3.47c1.143-1.37 4.41-5.973 6.469-3.932zm-5.725-3.954c1.798 1.78-1.398 5.157-2.347 6.298l-3.176-3.145c.949-1.14 3.647-5.01 5.523-3.152z" fill="#fff" fill-rule="evenodd"/><path d="M146.002 166.396l-.623 1.003a22.235 22.235 0 00-11.516 15.338l-1.134 1.394.543 3.086a26.923 26.923 0 00.24 5.002c1.467 10.316 8.57 18.248 17.186 20.3l2.87.932 4.772-.678.068-.029c11.177-1.988 18.699-13.672 16.882-26.461-1.853-13.038-12.706-22.277-24.243-20.637z" fill="#b5ddf7"/><g clip-path="url(#g)"><path fill="none" d="M162.367 214.135l-8.131 1.155 4.301-2.842 8.144-.759-8.144.759 4.303-3.434 8.09-1.15-8.09 1.15 3.291-3.7 7.12-1.012-7.12 1.012 2.483-3.221 6.161-.875-6.161.875 1.331-3.422 5.986-.85-5.986.85.652-3.689 6.069-.862-5.859.832.534-3.763 5.601-.796-5.601.796-.291-3.555 5.66-.805-5.66.805-.736-3.675 5.718-.812-5.718.812-1.004-3.681 5.563-.791-5.563.791-2.124-4.16 5.653-.803-5.653.803-3.3-4.038 5.99-.851-5.99.851-2.942-2.89 5.96-.847-5.96.847-3.214-2.306 5.88-.835-5.88.835-3.628-1.7 5.881-.835-5.881.835-3.638-.894 6.145-.873-6.145.873-4.487-.47 4.595-.653-4.595.653"/></g><path d="M171.318 186.847c1.852 13.037-5.997 24.934-17.534 26.573s-22.39-7.6-24.243-20.637 5.997-24.933 17.534-26.573 22.39 7.6 24.243 20.637zm-12.26 6.535c1.904-2.05.879-4.528-1.101-7.05l2.908-2.559-1.69-1.816-2.832 2.49c-.443-.478-.906-.957-1.368-1.435l2.851-2.506-1.688-1.818-2.907 2.558c-.374-.387-.741-.767-1.09-1.144l.008-.008-2.33-2.508-1.89 1.663s1.274 1.321 1.23 1.32a1.226 1.226 0 01.194 1.728l-3.312 2.915a2.243 2.243 0 01.167.203l-.179-.192-4.64 4.083a.888.888 0 01-1.222-.169c.002.042-1.228-1.32-1.228-1.32l-2.449 1.498 2.2 2.366c.407.44.802.88 1.194 1.306l-2.94 2.589 1.69 1.815 2.907-2.559c.455.507.9.993 1.337 1.464l-2.897 2.547 1.69 1.817 2.935-2.582c3.011 2.906 5.748 4.385 8.79 2.192 2.449-1.765 2.443-3.736 1.236-5.827a3.717 3.717 0 004.426-1.06zm-8.653 2.99c-2.195 1.935-5.538-2.15-6.684-3.382l3.898-3.427c1.145 1.234 5.08 4.793 2.786 6.808zm4.712-5.683c-2 1.76-4.76-1.67-5.714-2.694l3.533-3.109c.953 1.025 4.267 3.968 2.181 5.803z" fill="#fff" fill-rule="evenodd"/><path d="M647.494 361.625v2.043a7.82 7.82 0 005.945 7.592l22.967 5.673a10.168 10.168 0 007.441-1.02l3.844-2.173a3.419 3.419 0 001.737-2.976v-19.187a3.259 3.259 0 00-2.239-3.095l-2.286-.844.013 6.886-1.391 1.102a10.185 10.185 0 01-8.003 1.86l-18.755-3.546a7.82 7.82 0 00-9.273 7.685z" transform="translate(-444.69 39.94)" fill-rule="evenodd" fill="url(#h)"/><path d="M212.557 398.005s5.774 2.059 4.513 7.152-5.345 4.285-8.434 3.44.873-5.547.873-5.547z" fill="#041a3d" fill-rule="evenodd" opacity=".43"/><g><ellipse cx="655.494" cy="363.045" rx="4.164" ry="5.571" transform="rotate(-2.896 1223.177 9179.32)" fill="#263144"/><ellipse cx="654.199" cy="363.11" rx="4.121" ry="5.571" transform="rotate(-2.896 1221.883 9179.385)" fill="#39455b"/><ellipse cx="653.804" cy="363.13" rx="1.691" ry="2.263" transform="rotate(-2.896 1221.488 9179.405)" fill="#263144"/><ellipse cx="652.701" cy="363.186" rx=".989" ry="1.337" transform="rotate(-2.896 1220.385 9179.46)" fill="#39455b"/><ellipse cx="655.016" cy="363.069" rx="4.164" ry="5.571" transform="rotate(-2.896 1222.7 9179.344)" fill="#263144"/><ellipse cx="653.722" cy="363.134" rx="4.121" ry="5.571" transform="rotate(-2.896 1221.406 9179.41)" fill="#39455b"/><ellipse cx="653.327" cy="363.154" rx="1.691" ry="2.263" transform="rotate(-2.896 1221.01 9179.43)" fill="#263144"/><ellipse cx="654.078" cy="363.73" rx="2.083" ry="2.787" transform="rotate(-24.701 522.936 1399.172)" fill="#263144" opacity=".5"/><ellipse cx="652.224" cy="363.21" rx=".989" ry="1.337" transform="rotate(-2.896 1219.908 9179.485)" fill="#39455b"/></g><path d="M240.212 394.698s3.56-2.126 2.967-3.362-2.967-2.869-2.967-2.869z" fill="#000e23" fill-rule="evenodd" opacity=".7"/><path d="M205.633 395.543a9.684 9.684 0 014.34-.845c2.473.1 21.138 4.264 23.292 4.302 1.83.033 4.994-1.631 6.33-2.818 0 0-4.402 1.773-6.281 1.823s-12.066-1.823-12.066-1.823-10.251-2.052-11.86-1.978a10.395 10.395 0 00-3.755 1.34z" fill="#4a94ff" fill-rule="evenodd" opacity=".3"/><g fill="none" stroke="#fff" stroke-miterlimit="10" stroke-width=".2"><path d="M244.671 394.962a3.137 3.137 0 01-.948 1.144"/><path d="M241.4 397.987c-1.196.895-2.401 1.714-2.993 2.052a13.885 13.885 0 01-6.33 1.253c-2.241-.066-20.637-4.748-22.021-4.88a6.982 6.982 0 00-1.768.079 4.07 4.07 0 00-2.865 2.083 10.41 10.41 0 00-1.384 5.68c.223 1.608.248 4.488 7.896 6.4s19.253 5.473 22.286 5.011a16.493 16.493 0 006.461-2.077 13.75 13.75 0 002.611-2.034" stroke-dasharray="2.9850780963897705,2.9850780963897705"/><path d="M244.232 410.401a2.894 2.894 0 00.505-1.395"/></g><path d="M207.674 401.053l-.569.865 1.904-.989a1.28 1.28 0 00-1.335.124z" fill="#92b4f7" fill-rule="evenodd"/></g></svg>