<svg id="a9e68f5f-d630-47a5-afe6-3914852bd435" data-name="Слой 1" xmlns="http://www.w3.org/2000/svg" viewBox="0 0 183.54231 42.33207">
  <title>windsor</title>
  <g>
    <path d="M230.55944,138.50841c.00742,5.59316.0023,11.18639.03472,16.7794a2.88349,2.88349,0,0,1-.95129,2.25623,46.23472,46.23472,0,0,0-3.68455,3.768c-1.099,1.32713-1.87833,1.11706-2.8953-.066-1.28226-1.49164-2.72755-2.84188-4.05089-4.3-.71014-.78245-1.24449-.73523-1.95706.01173-1.54381,1.61834-3.18524,3.14356-4.72882,4.76211-.712.74653-1.228.77427-1.96132.01885-1.44428-1.48779-2.97065-2.89589-4.46306-4.337,0-5.95569.02575-11.91162-.02734-17.86684-.0081-.90859.21179-1.055,1.075-1.05051C214.8193,138.52521,222.68941,138.50841,230.55944,138.50841Z" transform="translate(-205.86664 -138.48441)" style="fill: #999bbf"/>
    <path d="M232.16058,180.77852q-.02625-4.55847-.05412-9.11691a1.62019,1.62019,0,0,1,.42354-1.31222c5.24883-5.0646,10.4881-10.13912,15.642-15.12625v25.55538Z" transform="translate(-205.86664 -138.48441)" style="fill: #999bbf"/>
    <path d="M205.90187,166.36825a35.14995,35.14995,0,0,1,4.4641,4.31084c.81394.84517,1.25653.74134,1.99337-.04929,1.56351-1.67763,3.2563-3.23428,4.83594-4.89765.614-.64659.99877-.70433,1.64131-.02648,1.61474,1.70349,3.34284,3.29982,4.95013,5.01.66479.70733,1.00125.72572,1.70734-.00329q10.96677-11.32266,22.01387-22.56752c.13752-.14069.28942-.26731.61974-.57032.157,2.72589.33294,4.90963-1.89952,7.05945-7.0684,6.80672-13.85074,13.91157-20.69316,20.95028-.7066.72687-1.01966.59182-1.60593-.01612-1.5926-1.6515-3.2741-3.21846-4.83976-4.89424-.73789-.7898-1.20833-.90287-2.00146-.04266-1.59036,1.72485-3.32438,3.3164-4.94565,5.014-.58129.60866-.92143.58708-1.5253.00654-1.5625-1.50216-2.88778-3.25763-4.715-4.48009Z" transform="translate(-205.86664 -138.48441)" style="fill: #999bbf"/>
    <path d="M205.90188,159.32323c1.44031,1.4232,2.93,2.80078,4.30226,4.28685.8132.88066,1.34911,1.04759,2.241.05394,1.49354-1.664,3.18654-3.14779,4.70611-4.7902.70023-.75682,1.1015-.66973,1.75684.025,1.53595,1.62816,3.19592,3.14009,4.716,4.78206.74441.80408,1.18883.86078,1.98767.03318q9.16-9.48972,18.40832-18.89419c1.29783-1.32376,2.68712-2.55784,4.09163-3.88755.14241,2.389.448,4.55393-1.74508,6.67234-6.93682,6.70053-13.62484,13.66034-20.33964,20.58719-1.03858,1.07137-1.63145,1.02869-2.58024-.005-1.47663-1.6087-3.10642-3.07583-4.61531-4.65642-.58525-.61307-.94733-.59859-1.5264.00552-1.65983,1.73163-3.40954,3.37733-5.06219,5.11551-.6301.66272-1.0042.63776-1.64659.00214a46.171,46.171,0,0,0-4.69439-4.52695Z" transform="translate(-205.86664 -138.48441)" style="fill: #999bbf"/>
    <path d="M205.90187,173.41327a30.30286,30.30286,0,0,1,4.24642,4.0696c.85426.8859,1.37889.81539,2.17221-.04,1.48133-1.59727,3.10674-3.06078,4.59072-4.65576.78217-.84067,1.30432-.758,2.04737.03572,1.45273,1.55177,3.05684,2.96437,4.47422,4.54578.92914,1.03666,1.5371.90148,2.3938-.0542a36.83075,36.83075,0,0,1,4.73283-4.77194v8.23606c-7.75345,0-15.50727-.03793-23.26.03767-1.279.01246-1.48064-.37538-1.42449-1.50951C205.972,177.34657,205.90187,175.37818,205.90187,173.41327Z" transform="translate(-205.86664 -138.48441)" style="fill: #999bbf"/>
    <path d="M248.172,138.50841q-7.7379,7.95227-15.47971,15.90074a2.68929,2.68929,0,0,1-.53169.289v-16.1897Z" transform="translate(-205.86664 -138.48441)" style="fill: #999bbf"/>
    <path d="M383.94776,172.90027c-.67912.06631-1.45115.35324-1.46466,1.209-.01495.94769.7718,1.1887,1.53813,1.2833.89407.11035,1.7985.13377,2.6958.22195.54983.05405,1.186-.16963,1.704.56851a7.2704,7.2704,0,0,1-4.36395.16115c-.48575-.10073-1.14917-.62032-1.31982.132-.12013.52972.63584.7247,1.16665.82559a10.30857,10.30857,0,0,0,5.48869-.36592v-1.60114c-1.73465-1.10849-3.834-.33769-5.65649-1.13267,1.86639-.99082,3.77111-.2783,5.65649-.14825v-.64045C387.65489,172.44133,385.78578,172.72078,383.94776,172.90027Z" transform="translate(-205.86664 -138.48441)" style="fill: #999bbf"/>
    <path d="M271.42856,170.09511c-.974,0-1.50711.00479-2.04011-.001a1.88856,1.88856,0,0,1-2.07064-1.74289c-.51569-2.50483-1.18806-4.97741-1.79624-7.46319-.12709-.51947-.20533-1.13294-.87952-1.1782-.81426-.05467-.87844.68033-1.01271,1.21485-.61042,2.43011-1.22437,4.86121-1.74139,7.31213a1.9798,1.9798,0,0,1-2.17118,1.84928,1.49157,1.49157,0,0,0-.15923.01518c-3.70494.34427-4.11522.08631-5.3096-3.36531-1.22067-3.52758-2.39946-7.07031-3.67394-10.5783-.478-1.31581-.13878-1.68558,1.21478-1.66085,2.356.043,2.35133-.01657,3.03583,2.29491.87812,2.96531,1.7564,5.93066,2.66047,8.88808.16105.52683.20406,1.28578.99625,1.24454.75924-.03952.78412-.75462.92056-1.31456.75736-3.108,1.54672-6.20882,2.25044-9.32894.27484-1.21858.78613-1.813,2.14942-1.78725,3.868.073,3.16269-.17035,3.98815,3.06954.63172,2.4795,1.191,4.97771,1.84279,7.45169.18755.71186.05928,1.88155,1.11135,1.8583.99192-.02191.91034-1.17094,1.13486-1.88946.95424-3.05387,1.85441-6.12459,2.7968-9.18223.33108-1.07423,3.21034-1.86484,4.05223-1.13764.3682.318.176.69534.05923,1.03067q-2.31481,6.64765-4.6509,13.28788C273.55779,170.62853,272.12083,169.98243,271.42856,170.09511Z" transform="translate(-205.86664 -138.48441)" style="fill: #999bbf"/>
    <path d="M307.33721,162.15341c0,2.02511-.02293,4.05058.00807,6.07522.0207,1.35227-.611,1.86243-1.9385,1.92479-5.44731.25588-5.44676.28238-8.23874-4.37171-1.42526-2.37584-2.84342-4.75594-4.2753-7.12777-.24238-.40147-.48521-.94791-1.066-.7786-.58295.16994-.47594.773-.47852,1.2323-.01651,2.931.00528,5.86236-.02206,8.79325-.01806,1.93579-.55229,2.37407-2.401,2.22905a1.3063,1.3063,0,0,1-1.39335-1.52844q.0316-6.31506-.00209-12.63033c-.00562-.98623.32387-1.53328,1.38229-1.44707a3.03386,3.03386,0,0,0,.31961-.003c5.61877-.1387,5.62016-.13956,8.52679,4.69837,1.31693,2.192,2.62219,4.391,3.94421,6.57983.29181.48315.49991,1.2082,1.23124,1.04567.76158-.16925.59665-.92005.6004-1.47444.02055-3.03758.0768-6.0773-.01395-9.11226-.04452-1.48869.60887-1.772,1.91463-1.77212,1.2932-.00013,2.00914.249,1.93444,1.75291-.0977,1.967-.02394,3.94251-.02394,5.91436Z" transform="translate(-205.86664 -138.48441)" style="fill: #999bbf"/>
    <path d="M339.46805,170.10494c-1.86735,0-3.73555.03308-5.60163-.01566a2.49706,2.49706,0,0,1-2.17107-.81088c-.56092-.777-.98427-1.8665-.346-2.51226a2.68912,2.68912,0,0,1,3.27516-.19856c1.63592,1.386,3.40213.95233,5.15766,1.05015.69152.03853,1.38738.01773,2.08072.001,1.76041-.0424,2.36132-.586,2.33494-2.10147-.02632-1.51209-.90355-2.02214-2.29809-2.01038q-4.08194.03447-8.16441-.00239c-1.92529-.01447-2.46572-.50887-2.71888-2.38085a15.29888,15.29888,0,0,1,.02957-4.62308,2.05956,2.05956,0,0,1,2.15155-1.95158c4.16189-.03079,8.32475-.0521,12.48594.00966a2.53394,2.53394,0,0,1,2.16493,3.2618.65723.65723,0,0,1-.71018.51111c-1.26958-.08936-2.69081.51269-3.69-.84833-.30768-.41911-.85266-.39326-1.33577-.39406-1.8143-.003-3.62889.02-5.44282-.00562-1.48008-.02088-1.73917.87317-1.7449,2.095-.0056,1.19593.47143,1.77845,1.70507,1.76871q4.162-.03288,8.32446.00623c2.28082.01944,3.077.81836,3.12385,3.08118.01877.90679.0101,1.81432.00336,2.72143-.01913,2.57325-.576,3.21285-3.17189,3.34024-1.80975.0888-3.6274.0171-5.44151.0171Z" transform="translate(-205.86664 -138.48441)" style="fill: #999bbf"/>
    <path d="M280.26626,162.14628c0-2.081.03823-4.16292-.01285-6.24266-.03676-1.49723.94658-1.41265,1.93691-1.38356.9761.02866,2.12129-.28193,2.10715,1.37163-.036,4.215-.02862,8.43061-.008,12.64582.007,1.43623-.8692,1.61794-2.00749,1.61623-1.13026-.0017-2.03464-.16157-2.01734-1.60455.02559-2.134.00661-4.26858.00661-6.4029Z" transform="translate(-205.86664 -138.48441)" style="fill: #999bbf"/>
    <path d="M361.61917,177.52579c-2.83167.007-2.73434.00265-2.86344-2.88594-.07011-1.56862.40339-2.09072,1.94132-1.89747a29.32477,29.32477,0,0,0,3.03516.032c.333.00679.83866-.12938.77189.48957-.04518.41873-.408.42155-.73539.42233-1.01273.00243-2.02572-.00685-3.03807.01422-.34041.00708-.8306-.09924-.77495.50154.0396.42742.41514.41777.73042.42122.906.00993,1.81394-.02509,2.7176.0231.40728.02171,1.13254-.27779,1.0909.49428-.03771.6992-.72974.44334-1.161.46034-.90481.03566-1.812.00763-2.71793.02059-.31307.00448-.69184.00006-.67226.4592.01815.426.37067.46076.69837.46362,1.066.0093,2.13207.00562,3.198.01711.3184.00344.68686.00655.67965.459-.00646.40492-.30727.50721-.66164.50607C363.1116,177.52411,362.36538,177.52579,361.61917,177.52579Z" transform="translate(-205.86664 -138.48441)" style="fill: #999bbf"/>
    <path d="M348.16267,174.31988c1.80348-.42474,3.137-1.95558,5.21133-1.45044-1.2476,1.01955-2.77467,1.33008-4.19151,2.2631l4.45933,2.20565c-1.78767.55975-2.93614-.426-4.18771-.95995-.7436-.31726-1.53518-.90876-1.44388.63742a.44353.44353,0,0,1-.50507.48144c-.41914-.00681-.53515-.3-.541-.63858-.01736-1.01049-.03429-2.02192-.00668-3.03176.0103-.377-.20058-.9416.43439-1.02357.78456-.10128.60415.53061.65665.97313C348.06689,173.93084,348.11175,174.08222,348.16267,174.31988Z" transform="translate(-205.86664 -138.48441)" style="fill: #999bbf"/>
    <path d="M389.35725,155.75989a3.03478,3.03478,0,0,0-2.40169-1.24618q-6.86823.042-13.73677-.00582c-1.14777-.00989-1.45731.49689-1.44941,1.54639.03168,4.20606.04557,8.41291-.00622,12.61856-.01585,1.28717.63584,1.52984,1.69238,1.47222,1.06161-.05789,2.24564.12362,2.19363-1.54178-.03487-1.11683.02-2.23622.00211-3.35393-.016-1.00079.43142-1.45469,1.44445-1.44289,2.02294.02358,4.04647-.00631,6.06967.00313,2.1325.01,2.37677.263,2.40592,2.402.05113,3.75511.05115,3.75511,3.82125,3.99945v-5.234a1.59876,1.59876,0,0,0-.32437-.96588c-.82233-1.084-1.40283-1.85016.21573-3.611C389.53158,160.23113,389.33011,157.47718,389.35725,155.75989Zm-3.76166,3.64215c-.05476,1.41081-.74107,1.8433-2.01784,1.824-2.1237-.03207-4.24891-.04239-6.3722.001-1.333.02722-1.608-.714-1.56418-1.82933.04085-1.04-.25311-2.23943,1.469-2.15646,1.16407.05607,2.333.01069,3.49978.01069l.00011-.07452q1.51319,0,3.02636-.00018C385.13622,157.17582,385.65249,157.93676,385.59559,159.402Z" transform="translate(-205.86664 -138.48441)" style="fill: #999bbf"/>
    <path d="M368.74759,156.88659c-.13456-1.76858-.95574-2.337-2.8033-2.35918-1.974-.02373-3.94854-.00535-5.92283-.0057-2.081-.00034-4.16223-.01758-6.243.005-1.73185.01878-2.69768.77569-2.73614,2.43521-.08284,3.57245-.06427,7.14919.00836,10.72225a2.11664,2.11664,0,0,0,2.16516,2.29528,114.778,114.778,0,0,0,13.27013.00888,2.21967,2.21967,0,0,0,2.28861-2.2293A85.08159,85.08159,0,0,0,368.74759,156.88659Zm-3.97586,8.78267a1.51042,1.51042,0,0,1-1.70674,1.65225c-2.12614-.00749-4.25244-.01107-6.37849.00551-1.04064.00811-1.60708-.44764-1.60841-1.51309q-.00439-3.508.00457-7.01592a1.30823,1.30823,0,0,1,1.50141-1.44671q3.34852.00043,6.697.001a1.31484,1.31484,0,0,1,1.49085,1.46111c.00989,1.16914.00234,2.33843.00428,3.50766C364.77818,163.43722,364.8007,164.55389,364.77173,165.66926Z" transform="translate(-205.86664 -138.48441)" style="fill: #999bbf"/>
    <path d="M328.21224,157.06293c-.02006-1.77994-.78152-2.50657-2.56345-2.532-2.23876-.03194-4.47835-.0077-6.71756-.00711-2.39917.00058-4.79842.01182-7.19745-.00569-.809-.0059-1.35681.215-1.355,1.14482.00841,4.31811.006,8.63627.02127,12.95436a1.34749,1.34749,0,0,0,1.496,1.49063c4.63649.01384,9.27612.19325,13.90784-.09633,1.73618-.10856,2.37648-.81687,2.40189-2.5527C328.25653,163.99419,328.25127,160.52792,328.21224,157.06293ZM324.372,165.7686a1.39315,1.39315,0,0,1-1.59375,1.54939q-1.75387-.00012-3.50775.00209c-1.16927.00211-2.33909-.02015-3.50764.00919-.9274.02329-1.37357-.35864-1.36687-1.31168.018-2.551.01335-5.10215.00485-7.65321-.0029-.86745.41369-1.25468,1.2682-1.25054,2.39153.01158,4.78327-.00623,7.17461.01879a1.41072,1.41072,0,0,1,1.53558,1.62055C324.3696,161.09162,324.37685,163.43014,324.372,165.7686Z" transform="translate(-205.86664 -138.48441)" style="fill: #999bbf"/>
    <path d="M316.56146,173.56365c-.39417-.83153-1.537-.76918-2.44223-.79234-.477-.0122-.95449-.00327-1.43176-.00323-2.24269.00016-2.24269.00024-2.23458,2.30447,0,.53027.00594,1.0606-.00161,1.59077-.00815.57269.20677.87619.838.87077a20.07051,20.07051,0,0,0,4.27471-.27574c.53083-.11936,1.16045-.28935,1.19923-.8783A5.99389,5.99389,0,0,0,316.56146,173.56365Zm-4.42444.13312a9.4975,9.4975,0,0,1,3.82282.38617c-1.42211.90266-2.68973.5598-3.90976.53982a.44816.44816,0,0,1-.4678-.51585C311.59534,173.75341,311.87169,173.68719,312.137,173.69677Zm-.19514,2.81646c-.12144.0034-.30925-.2542-.36169-.42311a.33879.33879,0,0,1,.31277-.44636c1.26152.00573,2.56018-.30088,4.07464.379C314.50251,176.90568,313.18894,176.4782,311.94188,176.51323Z" transform="translate(-205.86664 -138.48441)" style="fill: #999bbf"/>
    <path d="M375.09211,175.69583c.21193-.46558.749-.32163,1.06948-.59812.83686-.722.77224-1.47175-.14259-1.89008a7.23446,7.23446,0,0,0-5.44073-.2063c-.95318.36446-.21421,2.42642-.34088,3.71777-.03755.38281.02879.76828.55328.7802.63842.01453.65988-.46115.6109-.88164-.12767-1.096.5742-1.02991,1.30007-1.00871.84269.02463,1.27618.70285,1.85574,1.13368.63555.47247,1.20257,1.0564,2.12419.66C376.42855,176.57237,375.43683,176.43771,375.09211,175.69583Zm-3.26494-1.1042c-.1245.00172-.33151-.259-.36262-.42386-.06055-.32074.18044-.47987.47506-.47073,1.1835.03677,2.40676-.26278,3.82736.46514C374.33317,174.9467,373.05727,174.57456,371.82717,174.59163Z" transform="translate(-205.86664 -138.48441)" style="fill: #999bbf"/>
    <path d="M327.38426,175.71985c.23834-.48788.70072-.33414.997-.5372.85045-.58285.87105-1.627-.06663-2.01078a7.49411,7.49411,0,0,0-5.30417-.1936c-.99828.37228-.246,2.30993-.39547,3.53455a.80545.80545,0,0,0,.00344.15937c.0291.36823-.00182.79559.529.81564.54507.02058.49445-.40535.55684-.7742.19268-1.139,1.0289-1.49384,2.08076-.8442a10.86237,10.86237,0,0,1,1.4979,1.18845,1.53418,1.53418,0,0,0,1.8162.29548Zm-3.14788-1.10025a.4419.4419,0,0,1-.4943-.48734c.00129-.33944.25-.45191.52741-.438,1.17851.05906,2.40751-.28337,3.76938.476C326.651,174.946,325.41872,174.55727,324.23638,174.6196Z" transform="translate(-205.86664 -138.48441)" style="fill: #999bbf"/>
    <path d="M340.12807,173.06726a6.0117,6.0117,0,0,0-2.20224-.33205,12.48368,12.48368,0,0,0-1.42347.14866c-1.20705.26159-2.04671.88819-2.03147,2.26171.01539,1.38575.89027,1.92434,2.09994,2.19355a6.75785,6.75785,0,0,0,3.4713-.14931,1.96173,1.96173,0,0,0,1.4824-2.03191A2.01393,2.01393,0,0,0,340.12807,173.06726Zm-.6664,3.2994c-.45755.10994-.92823.16527-.9804.17423a4.54692,4.54692,0,0,1-2.13113-.2356,1.23823,1.23823,0,0,1-.78352-1.25234,1.17841,1.17841,0,0,1,.88054-1.18635,5.71526,5.71526,0,0,1,2.98035-.0294,1.18425,1.18425,0,0,1,1.00042,1.2533A1.20478,1.20478,0,0,1,339.46167,176.36666Z" transform="translate(-205.86664 -138.48441)" style="fill: #999bbf"/>
  </g>
</svg>
