<svg id="light" enable-background="new 0 0 24 24" height="512" fill="#58A5FF" viewBox="0 0 24 24" width="512" xmlns="http://www.w3.org/2000/svg"><g><path  d="m21.5 23h-19c-1.378 0-2.5-1.122-2.5-2.5v-17c0-1.378 1.122-2.5 2.5-2.5h19c1.378 0 2.5 1.122 2.5 2.5v17c0 1.378-1.122 2.5-2.5 2.5zm-19-21c-.827 0-1.5.673-1.5 1.5v17c0 .827.673 1.5 1.5 1.5h19c.827 0 1.5-.673 1.5-1.5v-17c0-.827-.673-1.5-1.5-1.5z"/></g><g><path d="m23.5 6h-23c-.276 0-.5-.224-.5-.5s.224-.5.5-.5h23c.276 0 .5.224.5.5s-.224.5-.5.5z"/></g><g><path d="m5.5 17c-.276 0-.5-.224-.5-.5v-4c0-.276.224-.5.5-.5s.5.224.5.5v4c0 .276-.224.5-.5.5z"/></g><g><path d="m3.769 16c-.173 0-.341-.089-.434-.25-.138-.239-.056-.545.183-.683l3.464-2c.238-.139.545-.057.683.183.138.239.056.545-.183.683l-3.464 2c-.079.046-.164.067-.249.067z"/></g><g><path d="m7.231 16c-.085 0-.171-.021-.25-.067l-3.464-2c-.239-.138-.321-.444-.183-.683.138-.24.444-.322.683-.183l3.464 2c.239.138.321.444.183.683-.092.161-.26.25-.433.25z"/></g><g><path d="m12 17c-.276 0-.5-.224-.5-.5v-4c0-.276.224-.5.5-.5s.5.224.5.5v4c0 .276-.224.5-.5.5z"/></g><g><path d="m10.269 16c-.173 0-.341-.089-.434-.25-.138-.239-.056-.545.183-.683l3.464-2c.238-.139.544-.057.683.183.138.239.056.545-.183.683l-3.464 2c-.079.046-.164.067-.249.067z"/></g><g><path d="m13.731 16c-.085 0-.171-.021-.25-.067l-3.464-2c-.239-.138-.321-.444-.183-.683.138-.24.444-.322.683-.183l3.464 2c.239.138.321.444.183.683-.092.161-.26.25-.433.25z"/></g><g><path d="m18.5 17c-.276 0-.5-.224-.5-.5v-4c0-.276.224-.5.5-.5s.5.224.5.5v4c0 .276-.224.5-.5.5z"/></g><g><path d="m16.769 16c-.173 0-.341-.089-.434-.25-.138-.239-.056-.545.183-.683l3.464-2c.238-.139.545-.057.683.183.138.239.056.545-.183.683l-3.464 2c-.079.046-.164.067-.249.067z"/></g><g><path d="m20.231 16c-.085 0-.171-.021-.25-.067l-3.464-2c-.239-.138-.321-.444-.183-.683.138-.24.444-.322.683-.183l3.464 2c.239.138.321.444.183.683-.092.161-.26.25-.433.25z"/></g></svg>