<svg id="b52808fb-8f02-40e5-b344-2010189e90cc" data-name="Слой 1" xmlns="http://www.w3.org/2000/svg" viewBox="0 0 265.216 49.60749">
  <title>binomo</title>
  <g>
    <path d="M42.79591,176.02725c-2.60859-.13471-3.33266-2.56918-4.88-3.99893v-3.92913c3.651-6.30253,7.33216-12.58786,10.938-18.91612,1.43272-2.51444,3.43106-4.14146,6.36047-4.09889a6.1666,6.1666,0,0,1,5.65207,3.53,5.75112,5.75112,0,0,1,.07751,5.61611c-3.46318,6.23416-6.98682,12.437-10.6258,18.56963a5.91661,5.91661,0,0,1-4.03972,3.20872A3.68458,3.68458,0,0,1,42.79591,176.02725Z" transform="translate(-37.91587 -145.02211)" style="fill: #999bbf"/>
    <path d="M216.55829,178.67908c.15208-2.9657-.35447-6.50227.61915-9.96088,2.73213-9.70553,15.26736-13.60956,23.031-7.14248.76176.63455,1.12755,1.21931,2.27433.22483,4.63017-4.0152,9.98786-4.24022,15.39418-2.00408,5.23212,2.16409,7.98771,6.47827,8.334,12.023.31577,5.05545.05474,10.145.14177,15.218.02177,1.2676-.46864,1.49353-1.57186,1.45315-1.96167-.07181-3.93381-.11419-5.89022.01006-1.52168.09664-1.94128-.41057-1.91477-1.924.08316-4.745.128-9.49744-.04958-14.23813-.16229-4.33349-3.54562-6.63459-7.40942-5.239-2.52414.91171-3.33742,3.01176-3.37977,5.44115-.08132,4.66375-.10441,9.33031-.03272,13.99388.02251,1.46558-.34177,2.0669-1.89608,1.96484a37.798,37.798,0,0,0-5.64232.007c-1.63876.13858-1.85638-.55835-1.83192-1.96411.07679-4.41818.103-8.84064-.00492-13.25768-.10661-4.3636-2.16429-6.65176-5.63737-6.562a4.91677,4.91677,0,0,0-5.10768,4.63522c-.68909,4.8818-.26425,9.80575-.25877,14.70867.00206,1.86534-.389,2.64846-2.39409,2.44109a38.533,38.533,0,0,0-5.39706-.01979c-1.07889.0408-1.41713-.36318-1.39445-1.41572C216.59611,184.45422,216.55829,181.83435,216.55829,178.67908Z" transform="translate(-37.91587 -145.02211)" style="fill: #999bbf"/>
    <path d="M175.92762,179.63446c.00058,2.37294-.06286,4.74828.02648,7.11785.04693,1.24439-.27135,1.73606-1.60437,1.66343a58.55652,58.55652,0,0,0-6.134-.00237c-1.31306.0664-1.64787-.39212-1.62893-1.66121.066-4.41742.10783-8.83932-.01894-13.25442-.14491-5.04707-3.42547-7.6755-7.82212-6.489a5.28457,5.28457,0,0,0-3.98213,4.74428c-.76225,4.79742-.28691,9.635-.30821,14.45212-.00785,1.77589-.35285,2.51361-2.26189,2.29673-2.26018-.25678-5.22454.91968-6.6426-.43907-1.43129-1.37141-.4068-4.34464-.4293-6.61165a78.84864,78.84864,0,0,1,.22162-9.80108c.97619-8.44932,7.12-13.54157,15.62777-13.242,9.11968.32107,14.873,6.21691,14.95346,15.33495C175.94183,175.7067,175.927,177.67064,175.92762,179.63446Z" transform="translate(-37.91587 -145.02211)" style="fill: #999bbf"/>
    <path d="M54.933,194.61177c-4.62276-.02884-7.93668-5.06747-5.70685-9.2058,3.57551-6.63577,7.3608-13.17421,11.39208-19.54192,1.95217-3.08358,5.33082-3.3603,8.55166-1.55778,2.74012,1.53348,4.02626,5.405,2.53262,8.08278q-5.44917,9.769-11.23571,19.34776A5.74192,5.74192,0,0,1,54.933,194.61177Z" transform="translate(-37.91587 -145.02211)" style="fill: #999bbf"/>
    <path d="M139.09179,173.99127c-.00005,4.25375-.05786,8.50874.03269,12.76055.02988,1.40355-.379,1.83527-1.77306,1.75107-2.43869-.1473-5.6708.802-7.11709-.42349-1.51147-1.28068-.41416-4.61631-.4363-7.0498-.06031-6.6255.03961-13.25283-.06338-19.87727-.02577-1.65789.48321-2.08614,2.04676-1.97938,2.3482.16035,5.45551-.7611,6.86061.41936,1.47388,1.23826.36144,4.44676.43246,6.79181C139.15121,168.91769,139.09184,171.45538,139.09179,173.99127Z" transform="translate(-37.91587 -145.02211)" style="fill: #999bbf"/>
    <path d="M283.66337,158.79763c-6.17292.99179-10.77887,4.39239-12.72089,10.48666-1.87,5.86812-.56956,11.28535,4.05083,15.44992,9.59182,8.64559,24.29376,4.001,27.48326-6.40168.11152-.36392.11865-.83374.6553-.90167V171.046C299.03607,161.27987,292.92238,157.31,283.66337,158.79763Zm2.98671,22.56035a7.579,7.579,0,1,1,.15271-15.15609,7.57844,7.57844,0,0,1-.15271,15.15609Z" transform="translate(-37.91587 -145.02211)" style="fill: #999bbf"/>
    <path d="M117.96687,161.05393c-5.30788-3.309-10.9114-3.44955-16.9315-.4477,0-4.627-.06685-8.94881.03606-13.26653.03625-1.52064-.39671-2.01537-1.91663-1.90311a33.92351,33.92351,0,0,1-5.38891-.00465c-1.57351-.13552-1.87262.432-1.85976,1.90416.07365,8.41765-.0405,16.83716.05711,25.25433.13372,11.53168,9.58108,18.87175,20.78927,16.05348,6.35063-1.59687,10.81023-5.51712,11.91544-12.19261C125.73144,170.02819,123.64152,164.59153,117.96687,161.05393Zm-9.44826,20.30426a7.576,7.576,0,1,1-.02934-15.15184,7.57629,7.57629,0,1,1,.02934,15.15184Z" transform="translate(-37.91587 -145.02211)" style="fill: #999bbf"/>
    <path d="M196.2046,158.46918c-9.20361-.00381-16.37791,6.66667-16.41328,15.26065-.036,8.75,7.08949,15.47426,16.4114,15.48724,9.1248.01271,16.39614-6.7126,16.486-15.24806C212.77938,165.36439,205.45037,158.473,196.2046,158.46918Zm-.15678,22.88889a7.57814,7.57814,0,0,1,.187-15.15459,7.57912,7.57912,0,1,1-.187,15.15459Z" transform="translate(-37.91587 -145.02211)" style="fill: #999bbf"/>
    <path d="M134.44155,145.02211a5.10821,5.10821,0,1,1-5.51669,5.08861A5.402,5.402,0,0,1,134.44155,145.02211Z" transform="translate(-37.91587 -145.02211)" style="fill: #999bbf"/>
  </g>
</svg>
