<?xml version="1.0" encoding="utf-8"?>
<!-- Generator: Adobe Illustrator 23.0.5, SVG Export Plug-In . SVG Version: 6.00 Build 0)  -->
<svg version="1.1" id="Слой_1" xmlns="http://www.w3.org/2000/svg" xmlns:xlink="http://www.w3.org/1999/xlink" x="0px" y="0px"
	 viewBox="0 0 32 32" style="enable-background:new 0 0 32 32;" xml:space="preserve">
<style type="text/css">
	.st0{fill:#FFFFFF;}
</style>
<g>
	<path class="st0" d="M12.1,14.4l3.9-3.9l3.9,3.9l2.3-2.3L16,6l-6.1,6.1C9.9,12.1,12.1,14.4,12.1,14.4z M6,16l2.3,2.3l2.3-2.3
		l-2.3-2.3L6,16z M12.1,17.6l-2.3,2.3l0,0L16,26l6.1-6.1v0l-2.3-2.3L16,21.5C16,21.5,12.1,17.6,12.1,17.6z M21.5,16l2.3,2.3L26,16
		l-2.3-2.3L21.5,16z M18.3,16L18.3,16L16,13.7l-1.7,1.7l-0.2,0.2L13.7,16l0,0l0,0l2.3,2.3L18.3,16L18.3,16L18.3,16L18.3,16z"/>
	<g>
		<path class="st0" d="M16,2.3c7.6,0,13.7,6.1,13.7,13.7S23.6,29.7,16,29.7S2.3,23.6,2.3,16S8.4,2.3,16,2.3 M16,0C7.2,0,0,7.2,0,16
			s7.2,16,16,16s16-7.2,16-16S24.8,0,16,0L16,0z"/>
	</g>
</g>
</svg>
