<?xml version="1.0" encoding="utf-8"?>
<!-- Generator: Adobe Illustrator 23.0.5, SVG Export Plug-In . SVG Version: 6.00 Build 0)  -->
<svg version="1.1" id="Слой_1" xmlns="http://www.w3.org/2000/svg" xmlns:xlink="http://www.w3.org/1999/xlink" x="0px" y="0px"
	 viewBox="0 0 32 32" style="enable-background:new 0 0 32 32;" xml:space="preserve">
<style type="text/css">
	.st0{fill:#FFFFFF;}
</style>
<g>
	<path class="st0" d="M16,2.3c7.6,0,13.7,6.1,13.7,13.7S23.6,29.7,16,29.7S2.3,23.6,2.3,16S8.4,2.3,16,2.3 M16,0C7.2,0,0,7.2,0,16
		s7.2,16,16,16s16-7.2,16-16S24.8,0,16,0L16,0z"/>
</g>
<path class="st0" d="M20.6,15.2c1.1-0.6,1.8-1.8,1.6-3c-0.2-1.8-2.6-2.5-4.4-2.6l0-2.7l-1.8,0l0,2.7l-1.2,0l0-2.7l-1.8,0l0,2.7
	L9.1,9.8l0,1.8l1.4,0c0.6,0,0.9,0.1,0.9,0.6l-0.1,7.5c0,0.6-0.3,0.8-0.7,0.8l-1.4,0l0,1.8l3.6-0.1l0,2.8l1.8,0l0-2.8l1.2,0l0,2.8
	l1.8,0l0-2.8l0.4,0c3.8-0.1,5-1.8,5-4.1C23,16.7,22,15.5,20.6,15.2z M14.9,11.5l1.3,0c0.9,0,2.7,0.1,2.7,1.5
	c0.1,0.9-0.7,1.7-1.6,1.8l-2.4,0.1L14.9,11.5z M16.8,20.2L16.8,20.2l-2,0l0-3.6l2.3-0.1c0.5,0,2.6,0.1,2.6,1.5
	C19.8,19.4,18.8,20.2,16.8,20.2z"/>
</svg>
