<svg width="34" height="34" viewBox="0 0 34 34" fill="none" xmlns="http://www.w3.org/2000/svg">
<g clip-path="url(#clip0)">
<path d="M31.1708 11.6039C30.1308 11.6022 29.1745 12.173 28.682 13.0892C28.1897 14.0048 28.2415 15.1175 28.8166 15.9838L24.8169 19.9837C24.0807 19.4925 23.1558 19.3773 22.3216 19.6736C21.4872 19.9695 20.8418 20.6417 20.5797 21.4876L15.3226 20.935C15.2167 19.7746 14.4072 18.7991 13.2861 18.4813C12.1652 18.1633 10.9642 18.5685 10.2646 19.5004C9.56527 20.4326 9.51165 21.6987 10.1303 22.6863L4.54536 27.9402C3.34421 27.0808 1.68708 27.2718 0.713289 28.3824C-0.260644 29.4927 -0.234047 31.1603 0.77469 32.2392C1.78343 33.3181 3.44579 33.4562 4.61892 32.5592C5.79192 31.6622 6.09397 30.0215 5.31712 28.7655L10.902 23.5117C11.6344 24.034 12.5732 24.1725 13.4253 23.8845C14.2778 23.5966 14.9397 22.9169 15.205 22.0575L20.4623 22.6101C20.5742 23.7775 21.3983 24.7537 22.5306 25.0603C23.6631 25.367 24.8669 24.9399 25.5524 23.9879C26.2384 23.0361 26.2626 21.7589 25.6135 20.7819L29.6132 16.782C30.621 17.4512 31.9428 17.404 32.9008 16.6652C33.8584 15.9264 34.2393 14.6597 33.8481 13.515C33.457 12.3705 32.3804 11.6021 31.1708 11.6039ZM2.92402 31.9415C1.98814 31.9415 1.22912 31.1829 1.22912 30.2468C1.22912 29.3109 1.98814 28.552 2.92402 28.552C3.8599 28.552 4.61892 29.3109 4.61892 30.2468C4.61892 31.1829 3.8599 31.9415 2.92402 31.9415ZM12.528 22.9026C11.5919 22.9026 10.8331 22.1439 10.8331 21.2077C10.8331 20.2719 11.5919 19.5128 12.528 19.5128C13.4638 19.5128 14.2227 20.2719 14.2227 21.2077C14.2227 22.1439 13.4638 22.9026 12.528 22.9026ZM23.2616 24.0325C22.3257 24.0325 21.567 23.2737 21.567 22.3376C21.567 21.4017 22.3257 20.643 23.2616 20.643C24.1976 20.643 24.9565 21.4017 24.9565 22.3376C24.9565 23.2737 24.1976 24.0325 23.2616 24.0325ZM31.1708 16.1233C30.2349 16.1233 29.476 15.3647 29.476 14.4287C29.476 13.4927 30.2349 12.7338 31.1708 12.7338C32.1068 12.7338 32.8655 13.4927 32.8655 14.4287C32.8655 15.3647 32.1068 16.1233 31.1708 16.1233Z" fill="#9CC3FF"/>
<path d="M1.22914 16.6884C1.3791 16.6884 1.52285 16.6289 1.62867 16.5229L6.31357 11.8379L9.02131 14.5456C9.24216 14.766 9.59967 14.766 9.82023 14.5456L15.6351 8.73072L20.6025 13.6981C20.8232 13.9187 21.1806 13.9187 21.4015 13.6981L31.1708 3.92883V4.82481C31.1708 5.13691 31.4236 5.38973 31.7357 5.38973C32.0477 5.38973 32.3006 5.13691 32.3006 4.82481V2.56498C32.2992 2.49736 32.2862 2.43072 32.2612 2.36804C32.2535 2.34852 32.2446 2.32985 32.235 2.31117C32.2138 2.26901 32.1872 2.22954 32.156 2.19389C32.1055 2.13149 32.0412 2.08226 31.9674 2.05029C31.9621 2.05029 31.9584 2.04378 31.9532 2.04194C31.8902 2.01718 31.8231 2.00402 31.7557 2.00289C31.7477 2.00346 31.7425 2.00006 31.7357 2.00006H29.476C29.1639 2.00006 28.9111 2.25331 28.9111 2.56498C28.9111 2.87694 29.1639 3.1299 29.476 3.1299H30.3719L21.0019 12.5L16.0345 7.53255C15.8139 7.31227 15.4563 7.31227 15.2356 7.53255L9.42084 13.3473L6.71324 10.6395C6.49239 10.4193 6.13488 10.4193 5.91432 10.6395L0.829887 15.724C0.668602 15.8858 0.619934 16.1287 0.707367 16.3398C0.794801 16.5509 1.00079 16.6884 1.22914 16.6884Z" fill="#9CC3FF"/>
</g>
<defs>
<clipPath id="clip0">
<rect width="34" height="34" fill="white"/>
</clipPath>
</defs>
</svg>
