<?xml version="1.0" encoding="utf-8"?>
<!-- Generator: Adobe Illustrator 23.0.5, SVG Export Plug-In . SVG Version: 6.00 Build 0)  -->
<svg version="1.1" id="Слой_1" xmlns="http://www.w3.org/2000/svg" xmlns:xlink="http://www.w3.org/1999/xlink" x="0px" y="0px"
	 viewBox="0 0 32 32" style="enable-background:new 0 0 32 32;" xml:space="preserve">
<style type="text/css">
	.st0{fill:#FFFFFF;}
	.st1{fill-rule:evenodd;clip-rule:evenodd;fill:#FFFFFF;}
</style>
<title>svg/white/dot</title>
<g>
</g>
<g>
	<path class="st0" d="M16,2.3c7.6,0,13.7,6.1,13.7,13.7S23.6,29.7,16,29.7S2.3,23.6,2.3,16S8.4,2.3,16,2.3 M16,0C7.2,0,0,7.2,0,16
		s7.2,16,16,16s16-7.2,16-16S24.8,0,16,0L16,0z"/>
</g>
<g>
	<path class="st1" d="M15.1,23.5c-0.1,0.6,0.2,1.2,0.9,1.3c0.6,0.1,1.2-0.2,1.3-0.9c0.1-0.6-0.2-1.2-0.9-1.3
		C15.9,22.5,15.3,22.9,15.1,23.5z"/>
	<path class="st1" d="M16,7.1c-3.7,0-6.7,3-6.7,6.7c0,0.7,0.1,1.5,0.4,2.2c0.2,0.5,0.7,0.7,1.2,0.6c0.5-0.2,0.7-0.7,0.6-1.2
		c-0.2-0.6-0.3-1.1-0.3-1.7c0.1-2.5,2.1-4.6,4.6-4.7c2.8-0.1,5.1,2.1,5.1,4.8c0,2.6-2,4.7-4.6,4.8c0,0-0.9,0.1-1.4,0.1
		c-0.2,0-0.4,0.1-0.5,0.1c-0.1,0-0.1,0-0.1-0.1l0.2-0.8l0.9-4c0.1-0.5-0.2-1-0.7-1.1s-1,0.2-1.1,0.7c0,0-2.1,9.8-2.1,9.9
		c-0.1,0.5,0.2,1,0.7,1.1c0.5,0.1,1-0.2,1.1-0.7c0-0.1,0.3-1.4,0.3-1.4c0.2-1,1-1.7,2-1.9c0.2,0,1.1-0.1,1.1-0.1
		c3.5-0.3,6.2-3.2,6.2-6.7C22.7,10.1,19.7,7.1,16,7.1z"/>
</g>
</svg>
