<?xml version="1.0" encoding="utf-8"?>
<!-- Generator: Adobe Illustrator 23.0.5, SVG Export Plug-In . SVG Version: 6.00 Build 0)  -->
<svg version="1.1" id="Слой_1" xmlns="http://www.w3.org/2000/svg" xmlns:xlink="http://www.w3.org/1999/xlink" x="0px" y="0px"
	 viewBox="0 0 55 55" style="enable-background:new 0 0 55 55;" xml:space="preserve">
<style type="text/css">
	.st0{fill:#FFFFFF;}
</style>
<path class="st0" d="M27.5,33.4l-10.7-5.1l10.7,18.8l10.7-18.8L27.5,33.4z M22.4,33.6l5.1,2.4l5.1-2.4l-5.1,8.9L22.4,33.6z"/>
<path class="st0" d="M37.9,25.9l-10.4-18l-10.4,18l10.4,4.9L37.9,25.9z M27.5,12.5l5.9,10.3L27.5,20l-5.9,2.8L27.5,12.5z M27.5,22.6
	l6.1,2.9l-6.1,2.9l-6.1-2.9L27.5,22.6z"/>
<g>
	<path class="st0" d="M27.5,4C40.5,4,51,14.5,51,27.5S40.5,51.1,27.5,51.1S3.9,40.6,3.9,27.5S14.4,4,27.5,4 M27.5,0.1
		C12.4,0.1,0,12.4,0,27.5S12.4,55,27.5,55S55,42.6,55,27.5S42.6,0.1,27.5,0.1L27.5,0.1z"/>
</g>
</svg>
