<svg width="55" height="55" viewBox="0 0 55 55" fill="none" xmlns="http://www.w3.org/2000/svg">
<path d="M27.5 55C42.6627 55 55 42.6638 55 27.5C55 12.3362 42.6627 0 27.5 0C12.3373 0 0 12.3362 0 27.5C0 42.6638 12.3373 55 27.5 55ZM27.5 4.58333C40.1361 4.58333 50.4167 14.8639 50.4167 27.5C50.4167 40.1361 40.1361 50.4167 27.5 50.4167C14.8639 50.4167 4.58333 40.1361 4.58333 27.5C4.58333 14.8639 14.8639 4.58333 27.5 4.58333Z" fill="white"/>
<path d="M17.1494 36.6667H36.6666V32.0834H24.1005L26.0643 27.5001H34.375V22.9167H28.0292L30.5089 17.1305L26.2959 15.3245L23.0425 22.9167H16.0416V27.5001H21.0776L17.1494 36.6667Z" fill="white"/>
</svg>
