<svg xmlns="http://www.w3.org/2000/svg" viewBox="0 0 85 85"><path fill="#FFF" d="M54.3 42.1c-.5-.8-1.1-1.4-1.9-1.9-.6-.3-1.4-.6-2.4-.9 1-.3 1.8-.8 2.4-1.3.6-.5 1.1-1.1 1.4-1.8.3-.7.5-1.4.5-2.1 0-1-.3-1.9-.9-2.8-.6-.8-1.5-1.5-2.6-2-.4-.2-.9-.3-1.5-.4V25h-3.8v3.7H43V25h-3.8v3.7h-5.8v3.1h.9c.6 0 1 .1 1.2.2.2.1.4.3.4.4.1.2.1.6.1 1.3v12.5c0 .7 0 1.1-.1 1.3-.1.2-.2.3-.4.4-.2.1-.6.2-1.2.2h-.9v3.1h5.8v3.7H43v-3.7h2.5v3.7h3.8v-4c.6-.1 1.2-.3 1.7-.5 1.3-.5 2.3-1.3 3-2.3.7-1 1.1-2.1 1.1-3.3-.1-1-.3-1.9-.8-2.7m-10.2-9.7c1.4 0 2.4.1 3 .3.6.2 1 .5 1.3.9.3.4.4.9.4 1.5s-.2 1.1-.5 1.5c-.3.4-.8.8-1.4 1-.6.2-1.6.3-2.8.3h-2.5v-5.5h2.5zm4.4 13.8c-.4.6-1 .9-1.6 1.1-.6.2-1.4.3-2.4.3H43c-.5 0-.9 0-1-.1l-.3-.3c0-.1-.1-.5-.1-1.2v-4.8h2.9c1.3 0 2.2.1 2.8.4.6.2 1.1.6 1.4 1 .3.5.5 1 .5 1.7s-.2 1.4-.7 1.9"/></svg>