<svg id="b6b89457-c0ee-4c20-964f-313142dabbd3" data-name="Слой 1" xmlns="http://www.w3.org/2000/svg" viewBox="0 0 576.55969 601.03806">
  <title>mcafee</title>
  <path d="M290.89769,1.58564c31.98539-1.63495,63.26869.10452,94.216,3.83761,35.74388,4.3117,71.51069,8.85364,106.93368,15.92612C515.52092,26.036,538.77821,31.741,562.31856,35.936c9.88268,1.76115,12.91563,7.01608,12.981,15.6446.10528,13.89446,2.24024,27.64062,2.359,41.56769.36047,42.27728-.67649,84.44462-7.72305,126.233-7.80058,46.25957-19.32593,91.46-37.671,134.843C504.10489,420.81736,464.117,478.74755,409.48013,526.48409c-34.23728,29.91323-71.97544,54.21842-112.87975,73.83706-4.21765,2.02289-7.69715,2.39159-12.127.1973-40.0093-19.8187-77.53509-43.06681-111.76927-72.17874C117.27665,481.20548,77.15534,423.53658,48.46724,357.27335c-21.13469-48.81657-33.97217-99.9348-41.31663-152.433C1.00263,160.89436.24533,116.62508,1.95476,72.3326c.36651-9.49645,2.06346-18.93913,3.07318-28.4145C5.37629,40.649,6.77713,38.896,10.2293,38.07291,62.6367,25.57821,115.44077,15.03019,168.94359,8.72143,209.63545,3.92327,250.45108-.51061,290.89769,1.58564Zm260.19,111.27479c1.14332-10.71629-2.798-27.62613-2.2144-44.67106.21736-6.34876-2.69014-8.45372-8.34689-9.72569Q489.36656,46.96,437.51423,39.24539c-28.27459-4.207-56.63744-7.43789-85.18846-9.27917-28.30858-1.82565-56.63725-3.78464-84.96471-2.469-44.95331,2.08784-89.75964,5.5673-134.31949,12.7894Q84.78417,48.108,37.05837,58.253c-5.03459,1.06427-7.43325,3.89-7.69259,8.94491-.44438,8.66163-1.30954,17.30933-1.51357,25.97428a670.24951,670.24951,0,0,0,4.93491,98.699c6.16656,49.53742,17.499,97.68524,35.91575,144.27558,26.86873,67.972,66.72166,126.47068,122.37518,174.094,28.06679,24.017,58.79612,43.86658,91.65758,60.61561,4.54167,2.3148,7.86882,1.75952,12.02316-.36255a533.63838,533.63838,0,0,0,51.83333-29.93148c63.05247-41.69463,110.93716-96.71068,145.05419-163.92757C532.69847,295.75442,548.62635,209.08257,551.08772,112.86043Z" transform="translate(-1.16098 -0.97027)" style="fill: #999bbf"/>
  <path d="M503.49054,146.61943a465.109,465.109,0,0,1-6.40128,84.73834c-8.73491,50.64923-23.7266,99.24791-49.48936,143.9231C411.23052,438.349,362.05791,488.36252,296.04016,520.758c-5.02336,2.465-8.83492,2.27888-13.68446-.16461-80.943-40.78428-136.55929-104.83667-171.52443-187.48328C82.35977,265.81238,73.07442,194.9972,74.45833,122.44348c.16022-8.39933.58449-16.7948.65953-25.1941.04059-4.54319,1.8063-6.00008,6.40267-5.49073,68.0253,7.53863,136.33429,10.19128,204.709,10.54388q72.11515.37192,144.13408-4.7569c21.95239-1.55188,43.87931-3.52926,65.78086-5.68788,5.2387-.51634,7.47454.54046,7.41134,6.11391C503.372,114.18575,503.49054,130.40326,503.49054,146.61943ZM231.36636,243.407c2.67584,1.11609,2.42816,2.737,2.69879,4.07658,4.32777,21.4218,9.3883,42.73212,12.69639,64.31087,2.28862,14.92857,8.84856,28.81853,9.25951,44.17285.18658,6.97118,3.92459,10.70932,12.50153,10.14573,15.56772-1.023,31.25432-.494,46.88341-.19717,6.01867.11436,8.06645-.56836,5.85823-7.50433q-34.02507-106.871-67.28941-213.98317c-1.65734-5.32671-4.29475-6.45914-9.2768-6.36959-14.47193.26005-28.96634.46788-43.42169-.08913-6.63172-.25555-8.141,2.42687-9.01155,8.279-4.45566,29.95046-9.35163,59.83542-14.09042,89.74377-6.47219,40.8483-12.84667,81.71252-19.51991,122.52791-.94174,5.75987.18682,7.73377,6.29936,7.52119,12.43573-.43257,24.94549-.86387,37.32836.0338,8.76822.6356,11.18459-2.59106,12.32209-10.72331C219.81153,318.12325,225.67591,280.98646,231.36636,243.407Zm96.10231,88.1131,1.97669-.08894q8.68015-42.36978,17.3603-84.73957,1.231.12958,2.4619.25912c-.98735,6.84587,2.19371,12.86323,3.08124,19.35292,4.31466,31.54835,8.86865,63.06506,12.94886,94.64324.58022,4.49079,2.39137,4.96162,6.01341,4.92888,14.4865-.13089,28.976-.18478,43.46157-.02051,4.39007.0498,6.52593-.96032,5.58337-5.88985-1.08494-5.674-1.667-11.44337-2.496-17.16717-6.68609-46.16864-13.49093-92.32057-19.98523-138.51614-1.49355-10.62389-2.43452-21.36476-3.17888-32.07761-.69644-10.02448-4.51679-20.46631-5.894-30.96989-.39927-3.0451-2.94364-3.08685-5.34934-3.08557-16.22612.00853-32.453-.07742-48.67759.07662-2.637.025-5.22084.05786-6.15629,4.24826-4.64388,20.802-14.055,40.13541-19.34169,60.74448-3.98217,15.52376-14.44636,29.71792-8.43013,47.4327,1.90009,5.59467,4.66152,10.78532,6.36044,16.47476C313.64518,288.68491,320.666,310.06994,327.46867,331.52006Z" transform="translate(-1.16098 -0.97027)" style="fill: #999bbf"/>
</svg>
