<svg id="e97e753a-0487-4d58-bb9c-8da0be9712f4" data-name="Слой 1" xmlns="http://www.w3.org/2000/svg" viewBox="0 0 123.9769 60.30851">
  <title>olymp-trade</title>
  <g>
    <path d="M245.2402,73.18883l1.96719,2.54129H229.02668c.61923-.771,1.15413-1.46323,1.71863-2.13046.37278-.44061.4127-.72653-.1158-1.13686-4.17064-3.238-5.32294-7.63743-4.5649-12.62288.78927-5.19084,3.86859-8.48258,8.91137-9.8552,5.7317-1.56014,12.57623.85127,15.007,6.93019,1.98451,4.96291,1.16822,11.64792-3.41762,15.27957C246.15739,72.51756,245.733,72.81991,245.2402,73.18883Zm-7.12855-8.68654c.92257,1.1228,1.79163,2.12524,2.59314,3.17906.40556.53322.72148.51391,1.22027.13827,2.16132-1.62771,2.72262-3.8685,2.55409-6.41764a6.06756,6.06756,0,0,0-8.76473-5.087c-2.44822,1.19186-3.70493,3.77425-3.35973,6.84251a6.47041,6.47041,0,0,0,2.15616,4.36083c.5091.44492.85853.45744,1.28419-.115C236.51694,66.43232,237.30239,65.50865,238.11165,64.50229Z" transform="translate(-225.84699 -45.4056)" style="fill: #999bbf"/>
    <path d="M316.77328,64.01971c-1.56081,1.466-3.14458,2.93033-4.69993,4.42422-.77976.74894-1.01458.78058-1.77015.01252q-2.04422-2.078-4.08-4.16426c-.14592-.14858-.31186-.27747-.65018-.57555,0,.50372.00014.79425,0,1.08479-.00174,2.94341-.02215,5.887.00823,8.8301.00727.70409-.234.91125-.91659.89348-1.60944-.04189-3.22082-.02939-4.831-.00884-.5248.0067-.73429-.15071-.73326-.71062q.02129-11.66256-.0002-23.32516c-.00093-.51862.18941-.63248.67422-.67707a2.90854,2.90854,0,0,1,2.73031,1.11419c2.57115,2.98622,5.27413,5.85856,7.88932,8.8076.52315.58993.82013.6677,1.39509.04581,2.808-3.03722,5.70315-5.9947,8.4764-9.06271.79179-.876,1.66105-.70887,2.575-.68442.1292.00346.30462.27643.36156.45553a2.26108,2.26108,0,0,1,.02124.6618c-.00006,7.44185-.01488,14.88377.01839,22.32547.00386.862-.25725,1.09771-1.08711,1.06266-1.49687-.06323-2.99909-.0526-4.49726-.00942-.67592.01949-.90786-.16009-.89849-.87413.03895-2.97064.01523-5.9421.01453-8.91327C316.77322,64.44085,316.77328,64.14926,316.77328,64.01971Z" transform="translate(-225.84699 -45.4056)" style="fill: #999bbf"/>
    <path d="M272.806,105.62157a35.55089,35.55089,0,0,0-4.44562.03485,3.4714,3.4714,0,0,1-4.16277-2.36726,44.67358,44.67358,0,0,0-2.32188-4.03385,1.34723,1.34723,0,0,0-1.45789-.80821c-.68443.06027-1.37832.01309-2.17807.01309V105.557h-6.31531c0-.3364,0-.6338,0-.9312.00067-7.527.0134-15.0541-.01551-22.581-.00309-.80469.2228-1.02672,1.02257-1.01537,3.22125.04573,6.44359.00685,9.66537.026,4.13891.02464,7.03984,1.96564,8.40551,5.58825a8.79367,8.79367,0,0,1-2.61818,9.80078c-.49425.39615-.41537.65372-.14888,1.08295,1.36063,2.19153,2.71678,4.38613,4.04148,6.59943A8.60305,8.60305,0,0,1,272.806,105.62157ZM258.213,89.711h-.00714c0,.80435.02485,1.60974-.00925,2.41264-.0207.48715.17034.62684.62923.61989,1.331-.02016,2.67049.07674,3.99023-.04711a2.93526,2.93526,0,0,0,1.71163-.832,3.41782,3.41782,0,0,0-.00376-4.29208,2.96314,2.96314,0,0,0-1.70365-.85939c-1.31874-.13019-2.65885-.03336-3.98979-.05595-.47518-.00806-.63641.18276-.62372.64123C258.229,88.10188,258.213,88.90665,258.213,89.711Z" transform="translate(-225.84699 -45.4056)" style="fill: #999bbf"/>
    <path d="M304.29535,93.323c-.00085-3.77772.01544-7.55557-.01516-11.333-.00583-.71934.19106-.96792.93681-.9571,2.74938.03989,5.50008-.0138,8.24953.02327,5.55164.07485,9.454,2.81737,11.25858,7.86222,1.98148,5.53942-.07832,12.07673-4.71845,14.97127a11.12955,11.12955,0,0,1-5.75261,1.71141c-3.0544.05852-6.11081.00467-9.16608.03211-.61971.00557-.80872-.18773-.80458-.8105C304.30891,100.98961,304.29619,97.15627,304.29535,93.323Zm6.35383,6.56037c1.73124.007,3.45427.29014,5.09314-.41506,2.4023-1.0337,3.78728-3.73447,3.50586-6.76969-.23667-2.55249-1.25389-4.67114-3.80708-5.5315a18.36787,18.36787,0,0,0-3.85512-.40039c-.76014-.081-1.009.19613-1.00189.97249.035,3.827.01588,7.65446.01858,11.48176C310.6028,99.41014,310.62847,99.59925,310.64918,99.8834Z" transform="translate(-225.84699 -45.4056)" style="fill: #999bbf"/>
    <path d="M330.99512,93.401c0-3.77693.02018-7.55405-.01633-11.33063-.00767-.79459.21769-1.04783,1.02888-1.04141q6.70642.05308,13.41347.00339c.70412-.00406,1.00288.16859.96971.92905-.05441,1.24726-.05595,2.50086.00483,3.74766.039.79916-.276.97855-1.014.96622-2.3599-.03944-4.72168.02046-7.081-.03265-.82636-.01859-1.08408.26315-1.00908,1.0451a10.7205,10.7205,0,0,1,.00277,1.66488c-.03573.58992.22279.77414.78551.76942,2.22157-.01866,4.44383.0173,6.66486-.02217.70592-.01254.91218.22789.88909.90951-.04511,1.33154-.03535,2.66608-.00578,3.99844.01221.55056-.18018.7116-.72281.70534-2.24918-.026-4.499.00545-6.74823-.01961-.6221-.00693-.91456.13906-.86745.83652a20.56419,20.56419,0,0,1-.00041,2.66426c-.04559.728.27043.89516.92728.88779,2.49915-.028,4.99908.006,7.49794-.03322.72431-.01136.986.2083.95714.94757-.05089,1.30329-.02995,2.61019-.00884,3.91509.0076.46956-.09354.71833-.63313.7169q-7.20666-.01914-14.41337.00065c-.64157.00209-.62-.36907-.6193-.814q.00879-5.707.00336-11.41408Z" transform="translate(-225.84699 -45.4056)" style="fill: #999bbf"/>
    <path d="M300.15619,105.61583c-2.10062,0-3.98335.01478-5.8651-.02143-.20245-.0039-.47077-.26514-.58518-.47444-.345-.63118-.58315-1.32389-.958-1.93426a1.25961,1.25961,0,0,0-.85348-.57639q-4.24616-.06366-8.49353.0002c-.2732.00384-.5693.31522-.80242.53849a1.24472,1.24472,0,0,0-.29508.58772c-.38736,1.582-1.36,2.12778-2.96718,1.91334a18.61739,18.61739,0,0,0-3.32673-.01376c-.765.03656-.88155-.3456-.68833-.91445a18.85016,18.85016,0,0,1,.78415-1.82854c3.25557-7.0364,6.528-14.06507,9.75514-21.11447.3556-.77677.77623-1.15,1.62678-1.01261a2.74176,2.74176,0,0,0,.83063-.00142.98169.98169,0,0,1,1.14776.69909q4.79562,10.55025,9.61679,21.08887c.253.55418.54545,1.093.75828,1.66195A10.94082,10.94082,0,0,1,300.15619,105.61583Zm-12.3428-14.86875-2.70539,6.3376h5.42735Z" transform="translate(-225.84699 -45.4056)" style="fill: #999bbf"/>
    <path d="M283.55933,58.301c1.22366-2.2785,2.33132-4.38339,3.47888-6.4663,1.24395-2.25789.47826-1.80126,3.046-1.84735,1.30482-.02342,2.6104-.00751,3.91561-.00372.95435.00278,1.18544.39133.68155,1.22879-.7865,1.30718-1.61121,2.59136-2.41989,3.88519-1.76409,2.82242-3.54164,5.63663-5.27727,8.47645a2.86831,2.86831,0,0,0-.40191,1.39376q-.05444,4.33161-.00361,8.66416c.00881.71146-.2366.907-.91292.88825q-2.1644-.06015-4.33152.00381c-.67616.01982-.91172-.18032-.90289-.88624q.05412-4.3316-.00482-8.66411a3.0396,3.0396,0,0,0-.41138-1.468c-2.44185-4.03278-4.92306-8.04171-7.38313-12.06352a1.48938,1.48938,0,0,1-.30162-.8275c.02711-.22737.33121-.598.52012-.60252,1.88733-.045,3.77679-.0507,5.66387-.00082a1.16753,1.16753,0,0,1,.78072.57463c1.24612,2.25692,2.44959,4.53735,3.67255,6.80713C283.10626,57.65029,283.28646,57.88513,283.55933,58.301Z" transform="translate(-225.84699 -45.4056)" style="fill: #999bbf"/>
    <path d="M241.14217,105.61659c-1.9954,0-3.85137.015-5.7061-.02622-.16177-.00359-.44265-.37126-.45138-.57892-.04537-1.08053-.02-2.164-.02011-3.24647-.00047-4.71847-.02024-9.43709.01663-14.15527.00623-.79778-.2608-.98946-1.00048-.96274-1.386.05006-2.77545-.00483-4.16265.02364-.58113.01193-.86639-.12986-.84739-.784.03947-1.35891.03453-2.72019.00433-4.07953-.01306-.58784.21206-.767.77987-.76567q8.32668.01932,16.65341-.00309c.5365-.0014.739.17159.72825.71914-.02716,1.38725-.03182,2.776.00251,4.16291.0149.60175-.22536.75745-.78518.74633-1.415-.02812-2.83235.03187-4.24581-.0216-.75267-.02846-.99034.18021-.98543.96639.035,5.60643.01919,11.21319.01953,16.81985C241.14219,104.78635,241.14217,105.14133,241.14217,105.61659Z" transform="translate(-225.84699 -45.4056)" style="fill: #999bbf"/>
    <path d="M256.667,62.18737c0-3.72146.02761-7.44328-.02047-11.16411-.01124-.87011.2687-1.09148,1.09162-1.05566,1.41366.06153,2.83364.05659,4.24772-.00063.79412-.03214.97895.2684.9754,1.01342-.02663,5.58206.00208,11.16443-.03369,16.74639-.00535.83377.20564,1.10621,1.06507,1.08472,2.33141-.05831,4.66542-.00458,6.99792-.03369.58754-.00733.86247.11759.84479.772q-.05739,2.123.00016,4.24845c.01738.63891-.28965.72223-.81369.72089q-6.79022-.01732-13.58043.00476c-.64451.00308-.7912-.24873-.7882-.839.01949-3.83245.01-7.665.01-11.49758Z" transform="translate(-225.84699 -45.4056)" style="fill: #999bbf"/>
    <path d="M311.23118,53.73785,302.869,45.4056h16.74074Z" transform="translate(-225.84699 -45.4056)" style="fill: #999bbf"/>
    <path d="M330.23194,62.1721c-.0003-3.74826.01563-7.49665-.01445-11.24467-.00566-.7044.15591-.96889.91843-.95922,3.27574.04155,6.55256-.0074,9.82847.02636,4.27.044,7.14579,2.0903,8.36974,6.147a9.574,9.574,0,0,1-1.70473,9.184,7.41789,7.41789,0,0,1-5.45825,2.82007c-1.54847.10694-3.10762.10512-4.66076.0788-.74009-.01254-1.04345.165-1.00875.97122.06319,1.46879-.014,2.94322.03011,4.41342.02038.67925-.17832.93782-.88308.9178-1.52587-.04338-3.05471-.0489-4.58034-.00315-.67341.0202-.86128-.2142-.8503-.85721.03276-1.91523.01365-3.83136.01412-5.74714S330.23225,64.08788,330.23194,62.1721Zm6.2892-3.21952c0,.94318.02126,1.887-.00825,2.82929-.01672.534.16334.74358.71534.73056,1.21987-.02877,2.44108-.01625,3.66151-.00178a2.34539,2.34539,0,0,0,2.28713-1.49261,4.77652,4.77652,0,0,0,.22429-3.48973,2.60383,2.60383,0,0,0-2.39688-1.98861c-1.30278-.035-2.60752.00887-3.911-.00958-.445-.0063-.58275.17665-.57585.593C336.533,57.066,336.52232,58.00938,336.52114,58.95258Z" transform="translate(-225.84699 -45.4056)" style="fill: #999bbf"/>
  </g>
</svg>
