<svg width="55" height="55" viewBox="0 0 55 55" fill="none" xmlns="http://www.w3.org/2000/svg">
<g clip-path="url(#clip0)">
<path d="M48.3269 11.136L27.6555 0.121193C27.3489 -0.0424787 26.9813 -0.0401817 26.677 0.126935L6.57754 11.1417C6.2479 11.3226 6.04346 11.6684 6.04346 12.0445V26.4327C6.05552 38.2601 13.0629 48.9602 23.8997 53.6986L26.6896 54.9143C26.9503 55.028 27.2472 55.0286 27.5085 54.9155L30.6522 53.5579C41.6899 48.9222 48.8708 38.1188 48.8719 26.1472V12.0445C48.8719 11.6643 48.6623 11.3146 48.3269 11.136ZM46.8137 26.1472C46.8114 37.2935 40.1238 47.351 29.8464 51.6645L29.8395 51.6679L27.1019 52.8498L24.7232 51.812C14.6359 47.4015 8.11261 37.4423 8.10112 26.4327V12.6538L27.1783 2.19838L46.8137 12.6613V26.1472Z" fill="url(#paint0_linear)"/>
<path d="M19.5859 25.7653C19.2166 25.3329 18.5671 25.2817 18.1347 25.651C17.7022 26.0197 17.6511 26.6698 18.0204 27.1017L23.4566 33.4676C23.8195 33.8926 24.4552 33.9506 24.8882 33.598L37.5489 23.2976C37.99 22.9392 38.0566 22.2909 37.6977 21.8498C37.3393 21.4093 36.6909 21.3421 36.2499 21.7011L24.3691 31.3663L19.5859 25.7653Z" fill="url(#paint1_linear)"/>
</g>
<defs>
<linearGradient id="paint0_linear" x1="27.4577" y1="0" x2="27.4577" y2="55" gradientUnits="userSpaceOnUse">
<stop stop-color="#002671"/>
<stop offset="1" stop-color="#0057FF"/>
</linearGradient>
<linearGradient id="paint1_linear" x1="27.8512" y1="21.4702" x2="27.8512" y2="33.8287" gradientUnits="userSpaceOnUse">
<stop stop-color="#002671"/>
<stop offset="1" stop-color="#0057FF"/>
</linearGradient>
<clipPath id="clip0">
<rect width="55" height="55" fill="#0057FF"/>
</clipPath>
</defs>
</svg>
