<svg width="55" height="55" viewBox="0 0 55 55" fill="none" xmlns="http://www.w3.org/2000/svg">
<g clip-path="url(#clip0)">
<path d="M9.67342 42.5336C8.90343 42.5336 8.16322 42.7258 7.50652 43.0867C4.0472 38.6522 2.14844 33.1434 2.14844 27.5C2.14844 13.5209 13.5209 2.14844 27.5 2.14844C29.1994 2.14844 30.8981 2.31754 32.5488 2.65114C33.1296 2.76863 33.6969 2.39265 33.8144 1.81107C33.9319 1.22948 33.5559 0.662994 32.9743 0.545082C31.1838 0.183372 29.3421 0 27.5 0C20.1546 0 13.2486 2.86053 8.05454 8.05454C2.86053 13.2486 0 20.1546 0 27.5C0 33.6789 2.09808 39.7087 5.91785 44.5427C5.42606 45.2775 5.16171 46.1411 5.16171 47.0453C5.16171 48.2505 5.63126 49.3834 6.4835 50.2353C7.33532 51.0875 8.46828 51.557 9.67342 51.557C10.8786 51.557 12.0115 51.0875 12.8638 50.2353C13.716 49.3834 14.1851 48.25 14.1851 47.0449C14.1851 45.8402 13.716 44.7068 12.8638 43.855C12.0115 43.0027 10.8786 42.5336 9.67342 42.5336ZM11.3443 48.7162C10.8983 49.1627 10.3045 49.4086 9.67342 49.4086C9.04232 49.4086 8.44898 49.1627 8.00251 48.7162C7.55604 48.2698 7.31014 47.6764 7.31014 47.0453C7.31014 46.4138 7.55604 45.8205 8.00251 45.374C8.44856 44.9275 9.04232 44.682 9.67342 44.682C10.3045 44.682 10.8979 44.9279 11.3443 45.374C11.7908 45.8205 12.0367 46.4138 12.0367 47.0453C12.0367 47.6764 11.7908 48.2698 11.3443 48.7162Z" fill="url(#paint0_linear)"/>
<path d="M49.0813 10.456C50.2491 8.70415 50.0616 6.30898 48.517 4.76437C47.6647 3.91254 46.5317 3.44299 45.3266 3.44299C44.1215 3.44299 42.9885 3.91254 42.1363 4.76437C41.284 5.61661 40.8149 6.74957 40.8149 7.95471C40.8149 9.15985 41.284 10.2928 42.1363 11.1451C42.9885 11.9973 44.1215 12.4664 45.3266 12.4664C46.0966 12.4664 46.8368 12.2742 47.4935 11.9134C50.9528 16.3483 52.8516 21.8566 52.8516 27.5C52.8516 41.4791 41.4791 52.8516 27.5 52.8516C25.8174 52.8516 24.1347 52.6859 22.4994 52.3586C21.9179 52.2423 21.3518 52.6196 21.2351 53.2011C21.1189 53.7831 21.4961 54.3488 22.0777 54.4654C23.8515 54.82 25.6759 55 27.5 55C34.8454 55 41.7515 52.1395 46.9455 46.9455C52.1395 41.7515 55 34.8454 55 27.5C55 21.3208 52.9015 15.2905 49.0813 10.456ZM43.6557 9.62605C43.2092 9.17957 42.9633 8.58624 42.9633 7.95471C42.9633 7.32361 43.2092 6.73027 43.6557 6.2838C44.1017 5.83733 44.6955 5.59143 45.3266 5.59143C45.9577 5.59143 46.5515 5.83733 46.9979 6.2838C47.919 7.20528 47.919 8.70457 46.9979 9.62605C46.5515 10.0721 45.9577 10.318 45.3266 10.318C44.6951 10.318 44.1017 10.0721 43.6557 9.62605Z" fill="url(#paint1_linear)"/>
<path d="M23.0671 45.9766C23.0671 46.5699 23.5484 47.0508 24.1414 47.0508H30.8582C31.4515 47.0508 31.9324 46.5699 31.9324 45.9766V43.894C33.3448 43.5138 34.6951 42.9541 35.9641 42.2231L37.4344 43.6934C37.6358 43.8948 37.909 44.0081 38.1943 44.0081C38.4788 44.0081 38.7524 43.8948 38.9538 43.693L43.7014 38.9421C44.1206 38.5225 44.1206 37.8423 43.7014 37.4231L42.2327 35.9544C42.9637 34.6855 43.5234 33.3352 43.9036 31.9228H45.9782C46.5715 31.9228 47.0524 31.4419 47.0524 30.8485V24.1317C47.0524 23.5384 46.5715 23.0575 45.9782 23.0575H43.9032C43.523 21.6455 42.9637 20.2952 42.2327 19.0263L43.6934 17.5656C43.8948 17.3642 44.0081 17.0906 44.0081 16.8056C44.0077 16.5207 43.8944 16.2471 43.693 16.0457L38.9417 11.2982C38.5225 10.879 37.8423 10.879 37.4226 11.2986L35.9641 12.7576C34.6951 12.0266 33.3448 11.4669 31.9324 11.0867V9.02344C31.9324 8.4301 31.4515 7.94922 30.8582 7.94922H24.1414C23.5484 7.94922 23.0671 8.4301 23.0671 9.02344V11.0871C21.6551 11.4669 20.3048 12.0266 19.0359 12.7576L17.5769 11.2986C17.1577 10.8794 16.4775 10.879 16.0579 11.2982L11.307 16.0461C11.1051 16.2476 10.9918 16.5207 10.9918 16.8056C10.9918 17.0906 11.1051 17.3642 11.3065 17.5656L12.7672 19.0263C12.0363 20.2952 11.4765 21.6451 11.0963 23.0575H9.02551C8.43217 23.0575 7.95129 23.5384 7.95129 24.1313L7.94751 30.8481C7.94709 31.133 8.06039 31.4066 8.2618 31.608C8.46322 31.8095 8.73639 31.9228 9.02173 31.9228H11.0963C11.4765 33.3352 12.0363 34.6855 12.7672 35.9544L11.2986 37.4231C10.8794 37.8423 10.879 38.5225 11.2986 38.9421L16.0461 43.693C16.2475 43.8944 16.5207 44.0081 16.8056 44.0081H16.806C17.091 44.0081 17.3641 43.8948 17.5655 43.6934L19.0355 42.2231C20.3048 42.9541 21.6551 43.5138 23.0671 43.894V45.9766ZM19.4568 39.9639C19.0317 39.689 18.4723 39.7486 18.114 40.1065L16.806 41.4145L13.5771 38.183L14.8838 36.8759C15.2417 36.518 15.3013 35.9586 15.0264 35.5336C14.0525 34.0263 13.3677 32.3743 12.9917 30.6228C12.8851 30.1281 12.4479 29.7743 11.9414 29.7743H10.0964L10.0989 25.206H11.9414C12.4479 25.206 12.8851 24.8526 12.9917 24.3575C13.3677 22.6064 14.0525 20.9544 15.0264 19.4471C15.3013 19.0221 15.2417 18.4627 14.8838 18.1048L13.5855 16.8061L16.8169 13.5771L18.114 14.8746C18.4723 15.2325 19.0313 15.2917 19.4568 15.0172C20.9636 14.0433 22.6156 13.3585 24.3671 12.9825C24.8618 12.8759 25.2156 12.4383 25.2156 11.9322V10.0977H29.7839V11.9318C29.7839 12.4383 30.1373 12.8759 30.6324 12.9821C32.3835 13.3585 34.0359 14.0429 35.5428 15.0168C35.9678 15.2917 36.5272 15.2325 36.8851 14.8742L38.1826 13.5771L41.414 16.8061L40.1157 18.1044C39.7574 18.4627 39.6982 19.0221 39.9731 19.4471C40.947 20.9544 41.6314 22.6064 42.0078 24.3575C42.114 24.8526 42.5516 25.206 43.0581 25.206H44.904V29.7743H43.0581C42.5516 29.7743 42.1144 30.1281 42.0078 30.6228C41.6318 32.3738 40.947 34.0263 39.9731 35.5331C39.6982 35.9586 39.7578 36.518 40.1157 36.8759L41.4224 38.1826L38.1935 41.4141L36.8855 40.1065C36.5272 39.7482 35.9678 39.689 35.5428 39.9639C34.0355 40.9378 32.3835 41.6222 30.6324 41.9986C30.1373 42.1052 29.7839 42.5424 29.7839 43.0489V44.9023H25.2156V43.0489C25.2156 42.5428 24.8618 42.1052 24.3671 41.9986C22.616 41.6226 20.964 40.9378 19.4568 39.9639Z" fill="url(#paint2_linear)"/>
<path d="M36.3762 27.5001C36.3762 22.6056 32.3945 18.6239 27.5001 18.6239C22.6056 18.6239 18.6239 22.6056 18.6239 27.5001C18.6239 32.3945 22.6056 36.3762 27.5001 36.3762C32.3945 36.3762 36.3762 32.3945 36.3762 27.5001ZM20.7723 27.5001C20.7723 23.7902 23.7902 20.7723 27.5001 20.7723C31.2099 20.7723 34.2278 23.7906 34.2278 27.5001C34.2278 31.2095 31.2099 34.2278 27.5001 34.2278C23.7902 34.2278 20.7723 31.2099 20.7723 27.5001Z" fill="url(#paint3_linear)"/>
<path d="M37.3912 4.06278C37.6741 4.06278 37.951 3.94781 38.1507 3.74807C38.3505 3.54707 38.4655 3.27013 38.4655 2.9873C38.4655 2.70616 38.3509 2.42879 38.1507 2.2278C37.951 2.02806 37.6741 1.91309 37.3912 1.91309C37.1076 1.91309 36.8319 2.02806 36.6321 2.2278C36.432 2.42879 36.317 2.7049 36.317 2.9873C36.317 3.27097 36.432 3.54707 36.6321 3.74807C36.8319 3.94781 37.1076 4.06278 37.3912 4.06278Z" fill="url(#paint4_linear)"/>
<path d="M17.6558 50.9565C17.3734 50.9565 17.096 51.0715 16.8963 51.2713C16.6965 51.471 16.5815 51.7484 16.5815 52.0308C16.5815 52.3144 16.6965 52.5905 16.8963 52.7903C17.096 52.99 17.3734 53.105 17.6558 53.105C17.9382 53.105 18.2155 52.99 18.4153 52.7903C18.615 52.5905 18.73 52.3132 18.73 52.0308C18.73 51.7484 18.615 51.471 18.4153 51.2713C18.2155 51.0715 17.9382 50.9565 17.6558 50.9565Z" fill="url(#paint5_linear)"/>
</g>
<defs>
<linearGradient id="paint0_linear" x1="16.9179" y1="0" x2="16.9179" y2="51.557" gradientUnits="userSpaceOnUse">
<stop stop-color="#002671"/>
<stop offset="1" stop-color="#0057FF"/>
</linearGradient>
<linearGradient id="paint1_linear" x1="38.1071" y1="3.44299" x2="38.1071" y2="55" gradientUnits="userSpaceOnUse">
<stop stop-color="#002671"/>
<stop offset="1" stop-color="#0057FF"/>
</linearGradient>
<linearGradient id="paint2_linear" x1="27.5" y1="7.94922" x2="27.5" y2="47.0508" gradientUnits="userSpaceOnUse">
<stop stop-color="#002671"/>
<stop offset="1" stop-color="#0057FF"/>
</linearGradient>
<linearGradient id="paint3_linear" x1="27.5001" y1="18.6239" x2="27.5001" y2="36.3762" gradientUnits="userSpaceOnUse">
<stop stop-color="#002671"/>
<stop offset="1" stop-color="#0057FF"/>
</linearGradient>
<linearGradient id="paint4_linear" x1="37.3912" y1="1.91309" x2="37.3912" y2="4.06278" gradientUnits="userSpaceOnUse">
<stop stop-color="#002671"/>
<stop offset="1" stop-color="#0057FF"/>
</linearGradient>
<linearGradient id="paint5_linear" x1="17.6558" y1="50.9565" x2="17.6558" y2="53.105" gradientUnits="userSpaceOnUse">
<stop stop-color="#002671"/>
<stop offset="1" stop-color="#0057FF"/>
</linearGradient>
<clipPath id="clip0">
<rect width="55" height="55" fill="#0057FF"/>
</clipPath>
</defs>
</svg>
