<svg id="b5fd0872-a61e-4271-9c6a-4fc702cb169c" data-name="Слой 1" xmlns="http://www.w3.org/2000/svg" viewBox="0 0 115 116.66">
  <defs>
    <style>
      .bca8c8c9-ac53-4a11-b7a5-3679161d00c5 {
        fill: #fff;
      }

      .b77595f8-e076-4061-aa2f-3587b50d3626 {
        fill: #a0b2b6;
      }

      .ed14bf44-4f41-43bf-a6fb-cd680e8e4558 {
        fill: #364466;
      }

      .b05b2399-60f3-4a1d-9b5d-133caeb3c770 {
        fill: #49bdd7;
      }
    </style>
  </defs>
  <g>
    <path class="bca8c8c9-ac53-4a11-b7a5-3679161d00c5" d="M69.5,14c.69-.47,1.26-.86,2-.59a31.23,31.23,0,0,1,12.27,7.41c4,4.15,6.19,9.08,5.59,14.94C88.9,40.44,87,44.38,82.9,46.92a13,13,0,0,1-10.09,1.62c-2.71-.63-5.31-1.69-8-2.55-.89-.29-1.78-.57-2.68-.83-3.07-.87-6-.26-8.91.78-2.3.83-4.57,1.75-6.93,2.37-4.39,1.14-8.63.7-12.32-2.14a14.2,14.2,0,0,1-5.39-10.32c-.6-6.05,1.65-11.07,5.87-15.28a31.46,31.46,0,0,1,12-7.13,1.74,1.74,0,0,1,1.89.63c-1,.37-2,.73-2.92,1.11-4.29,1.71-8.24,3.94-11.27,7.51-3.74,4.41-5.28,9.42-4,15.16,1.48,6.51,6.81,9.48,12.5,9.09a28.09,28.09,0,0,0,8.43-2.26A53.42,53.42,0,0,1,56.3,43a12.33,12.33,0,0,1,7.52.58c2.15.72,4.25,1.6,6.4,2.32a17,17,0,0,0,8,.9,11.08,11.08,0,0,0,9.58-9C89.06,32.22,87.6,27.3,84,23c-3-3.7-7-6-11.42-7.74C71.62,14.81,70.62,14.45,69.5,14Z" transform="translate(-1.71 -0.9)"/>
    <path class="b77595f8-e076-4061-aa2f-3587b50d3626" d="M34.09,42.92l2,2,4.4.68,8-.84L53.31,41l12.26-1.47,5.55,4.4L81,43.29l1.26-9S82,28,80.44,25.79a34.07,34.07,0,0,0-7.23-6.28c-.73-.32-5-2.62-5-2.62l-.2-2,1.78-2,1.36-.42,5.65,2,8.59,6.07,4.19,8.17L90,37l-2.88,7.18-5,4.08L76.7,49.54,70.46,49l-6.82-2.2-3.22-.51-5.26.32L51.7,47.86l-5.15,1.41-7.07.55-2.94-1.14L33.35,47l-3.1-2.63Z" transform="translate(-1.71 -0.9)"/>
    <path class="ed14bf44-4f41-43bf-a6fb-cd680e8e4558" d="M33.28,117.42c-1.58,0-3.1,0-4.62,0-.21,0-.47-.28-.61-.49-1.53-2.28-3-4.58-4.56-6.87a1.17,1.17,0,0,0-.48-.45v7.8H18.09V101.51c1.58,0,3.14,0,4.71,0,.17,0,.38.25.5.44q2.31,3.52,4.6,7.07a1.06,1.06,0,0,0,.46.42v-7.91h4.92Z" transform="translate(-1.71 -0.9)"/>
    <path class="ed14bf44-4f41-43bf-a6fb-cd680e8e4558" d="M89.42,117.34V101.56a3.87,3.87,0,0,1,.49,0c2.16,0,4.32-.05,6.48,0a7.67,7.67,0,0,1,6.66,3.5c2.66,4.19,1.14,11.65-6,12.28C94.58,117.53,92,117.34,89.42,117.34Zm4.94-4.4a4.17,4.17,0,0,0,4.36-1.42,4.31,4.31,0,0,0-.14-4.4,4.19,4.19,0,0,0-4.22-1.2Z" transform="translate(-1.71 -0.9)"/>
    <path class="ed14bf44-4f41-43bf-a6fb-cd680e8e4558" d="M66.85,111.36c1.15,2,2.27,4,3.43,6.06-1.79,0-3.46,0-5.13,0-.17,0-.39-.24-.49-.43-.82-1.51-1.62-3-2.42-4.56a1.11,1.11,0,0,0-.42-.49v5.45h-5V101.56a5.54,5.54,0,0,1,.56,0c2.36,0,4.71,0,7.07,0a6.15,6.15,0,0,1,4.13,1.4,4.89,4.89,0,0,1-1.19,8.15ZM61.77,107a6.77,6.77,0,0,1,0,.78c0,.5.17.65.65.62s1,0,1.56,0A1.25,1.25,0,0,0,65.29,107a1.28,1.28,0,0,0-1.39-1.32c-.26,0-.52,0-.78,0C61.77,105.65,61.77,105.65,61.77,107Z" transform="translate(-1.71 -0.9)"/>
    <path class="ed14bf44-4f41-43bf-a6fb-cd680e8e4558" d="M88.05,117.42c-1.63,0-3.17,0-4.72,0a.75.75,0,0,1-.53-.41,11.71,11.71,0,0,1-.51-1.55.58.58,0,0,0-.66-.47c-1.46,0-2.92,0-4.39,0a.58.58,0,0,0-.66.47,14,14,0,0,1-.51,1.55.67.67,0,0,1-.47.4c-1.56,0-3.13,0-4.8,0,.3-.86.57-1.66.86-2.44,1.58-4.32,3.18-8.63,4.74-13a.65.65,0,0,1,.74-.52c1.55,0,3.1,0,4.65,0,.33,0,.55,0,.69.42q2.74,7.59,5.52,15.18A2.41,2.41,0,0,1,88.05,117.42ZM79.53,107h-.19L78,111.26h3Z" transform="translate(-1.71 -0.9)"/>
    <path class="ed14bf44-4f41-43bf-a6fb-cd680e8e4558" d="M1.75,101.53H6.58c0,.25,0,.5,0,.76v7.85a5.61,5.61,0,0,0,.06.92,1.89,1.89,0,0,0,2.24,1.83,1.88,1.88,0,0,0,1.92-2c0-2.84,0-5.67,0-8.51v-.79h4.87c0,.2,0,.37,0,.54,0,2.81,0,5.63,0,8.45,0,5-3.78,7.45-8.13,7-3.58-.39-5.71-2.6-5.87-6.21C1.64,108.07,1.75,104.84,1.75,101.53Z" transform="translate(-1.71 -0.9)"/>
    <path class="ed14bf44-4f41-43bf-a6fb-cd680e8e4558" d="M106.22,101.54H116.7v3.87h-4.26c-1.34,0-1.32,0-1.34,1.36,0,.54.14.73.7.72,1.24,0,2.49,0,3.73,0,.42,0,.58.12.57.56,0,1,0,2,0,3.13-1.46,0-2.85,0-4.24,0-.63,0-.8.2-.75.78s0,.95,0,1.53h5.6v3.91H106.22Z" transform="translate(-1.71 -0.9)"/>
    <path class="ed14bf44-4f41-43bf-a6fb-cd680e8e4558" d="M55.35,101.55v3.85c-1.19,0-2.34,0-3.49,0-.59,0-.73.19-.73.75,0,3.49,0,7,0,10.47v.79h-4.9c0-.27,0-.52,0-.77,0-3.51,0-7,0-10.53,0-.54-.15-.72-.7-.7-1.13,0-2.26,0-3.45,0v-3.85Z" transform="translate(-1.71 -0.9)"/>
    <path class="ed14bf44-4f41-43bf-a6fb-cd680e8e4558" d="M40.51,117.42c-1.54,0-3,0-4.5,0-.13,0-.28-.22-.38-.37s0-.22,0-.33q0-7.23,0-14.46c0-.21,0-.43,0-.69h4.87Z" transform="translate(-1.71 -0.9)"/>
    <path class="bca8c8c9-ac53-4a11-b7a5-3679161d00c5" d="M59.78,3.26a40.1,40.1,0,0,1,18,4.33A27.37,27.37,0,0,1,90.61,20.32a27.73,27.73,0,0,1,2.46,13.25c-.41,10.07-5.37,17.18-14.25,21.67a46.37,46.37,0,0,1-18.5,4.5,43.19,43.19,0,0,1-12.19-1.37A36.06,36.06,0,0,1,35.37,53,23.44,23.44,0,0,1,25,34.27a30.88,30.88,0,0,1,1.68-12.5A24.39,24.39,0,0,1,38.59,8.41,42.24,42.24,0,0,1,59.78,3.26ZM90.89,34.44a24,24,0,0,0-7.18-17.2A19.47,19.47,0,0,0,70.52,11.5a1.51,1.51,0,0,0-.93.33q-3,2.6-5.93,5.25a1.81,1.81,0,0,1-1.29.49c-2.29,0-4.58,0-6.87,0a1.9,1.9,0,0,1-1.09-.43c-2-1.74-4-3.52-6-5.27a1.48,1.48,0,0,0-.9-.4,18.28,18.28,0,0,0-9.76,3A23.06,23.06,0,0,0,27.16,32a17.43,17.43,0,0,0,3.38,12.73c3,4,6.78,6.29,11.92,5.91a36.38,36.38,0,0,0,7.3-1.49,63.75,63.75,0,0,1,6.45-1.69,20,20,0,0,1,9.11.79,86,86,0,0,0,8.81,2.21A11.92,11.92,0,0,0,84,48.13,17.23,17.23,0,0,0,90.89,34.44Z" transform="translate(-1.71 -0.9)"/>
    <path class="bca8c8c9-ac53-4a11-b7a5-3679161d00c5" d="M42.15,78.78a11.62,11.62,0,0,1,2.46.7c2.56,1.4,5.08,1.11,7.62,0A2.82,2.82,0,0,1,54,79.27a27.4,27.4,0,0,0,10.6-.1,1.45,1.45,0,0,1,.68.08c.89.29,1.76.65,2.66.9a6.86,6.86,0,0,0,4.85-.45,15.74,15.74,0,0,1,2.34-.8,4.27,4.27,0,0,1,1,0l-1,1.31c-1.08,1.46-2.16,2.91-3.23,4.37a11.54,11.54,0,0,1-7.63,4.75,28.63,28.63,0,0,1-5.19.63,36.49,36.49,0,0,1-5.76-.75,11.23,11.23,0,0,1-7.31-4.68c-1.3-1.78-2.62-3.54-3.94-5.31a1,1,0,0,1,0-.18Z" transform="translate(-1.71 -0.9)"/>
    <path class="bca8c8c9-ac53-4a11-b7a5-3679161d00c5" d="M63.49,77.33c-1.72.58-7.46.56-9,0,.24-.74.5-1.47.71-2.22a11.35,11.35,0,0,0-.55-8.3,12.09,12.09,0,0,0-8-6.31,17.36,17.36,0,0,0-11.18.59l-.48.18.5-6.15c7.19,4.71,15.2,6.39,23.44,6.37S75.26,59.73,82.46,55c.18,2.14.34,4.16.51,6.22-1.17-.34-2.22-.7-3.29-.94a16.41,16.41,0,0,0-10.63,1,11.12,11.12,0,0,0-6.3,13.72C63,75.82,63.23,76.55,63.49,77.33Z" transform="translate(-1.71 -0.9)"/>
    <path class="bca8c8c9-ac53-4a11-b7a5-3679161d00c5" d="M42.77,61.55A10.73,10.73,0,0,1,53.3,71a6.08,6.08,0,0,1-.87,4.13,4.68,4.68,0,0,1-4.22,2.19,9.59,9.59,0,0,1-2.83-.41,20.71,20.71,0,0,0-8.16-.76c-1.11.07-2.22.18-3.32.32-.52.07-.8-.08-.92-.56l-.18-.77c-.09-.45.09-.67.55-.76,1.39-.28,2.77-.63,4.16-.89.61-.12.82-.33.77-1a18.07,18.07,0,0,1,.76-7A7.28,7.28,0,0,1,41.38,62,4,4,0,0,1,42.77,61.55Z" transform="translate(-1.71 -0.9)"/>
    <path class="bca8c8c9-ac53-4a11-b7a5-3679161d00c5" d="M79.71,71c0,.55,0,1.09,0,1.63s.09.71.59.81c1.41.28,2.81.64,4.22.9.65.12.75.44.66,1-.17,1-.37,1.2-1.4,1.08A33.66,33.66,0,0,0,76,76.19c-1,.13-2.08.44-3.13.65a18.53,18.53,0,0,1-2.76.48,4.88,4.88,0,0,1-5.38-4.77,10.2,10.2,0,0,1,7.64-10.47,29,29,0,0,1,3.24-.41,1.51,1.51,0,0,1,1.32.55,10.29,10.29,0,0,1,2.72,6.17c.11.86.13,1.74.19,2.61Z" transform="translate(-1.71 -0.9)"/>
    <path class="bca8c8c9-ac53-4a11-b7a5-3679161d00c5" d="M86.9,76.36c0-1,0-2,0-2.91a.93.93,0,0,0-.8-1c-1.14-.32-2.25-.71-3.4-1a.82.82,0,0,1-.76-1,12.86,12.86,0,0,0-1.29-6.28c-.4-.76-1-1.45-1.49-2.26a15.8,15.8,0,0,1,6.08,2.15,9.19,9.19,0,0,1,4,4.94L89.4,69c-.08-.37-.16-.74-.25-1.1a9.59,9.59,0,0,0-3.61-5.53A1.36,1.36,0,0,1,85,61.26c-.14-2.08-.36-4.17-.52-6.25a1.06,1.06,0,0,1,.27-.77c1.43-1.32,1.45-1.32,2.74.16a23,23,0,0,1,5.45,10.23,11.51,11.51,0,0,1-.54,7.63,7.29,7.29,0,0,1-5.28,4.1A1.61,1.61,0,0,1,86.9,76.36Z" transform="translate(-1.71 -0.9)"/>
    <path class="bca8c8c9-ac53-4a11-b7a5-3679161d00c5" d="M31.13,76.35a7.2,7.2,0,0,1-4.85-3A10,10,0,0,1,24.86,66,22.79,22.79,0,0,1,31.67,53.2a1.12,1.12,0,0,1,.2-.1c.49.42,1,.85,1.53,1.33.1.1.09.36.07.54-.18,2.15-.39,4.29-.54,6.44a1.11,1.11,0,0,1-.46.93,10.16,10.16,0,0,0-3.89,6.39c0,.11,0,.21,0,.32a2.64,2.64,0,0,0,.06.26c1.82-4.75,5.69-6.45,10.25-7.2-.23.27-.47.54-.68.82A11.47,11.47,0,0,0,36,69.41c0,.62.1,1.41-.22,1.81s-1.12.35-1.7.53c-.77.23-1.54.5-2.31.74a1,1,0,0,0-.73.89c0,.5-.12,1-.11,1.5A12.37,12.37,0,0,0,31.13,76.35Z" transform="translate(-1.71 -0.9)"/>
    <path class="bca8c8c9-ac53-4a11-b7a5-3679161d00c5" d="M95,38.79c.75-6.33.43-12.53-2.27-18.5h4.63l.11-.11a18.55,18.55,0,0,0-1.94-1.28c-.54-.27-.58-.53-.43-1.06a16,16,0,0,0-.29-8.78C94.29,7.34,93.63,5.68,93.05,4a1.09,1.09,0,0,1,0-.24c.92-.45,1.1-.42,1.52.38,4.09,7.71,6.65,15.83,6.34,24.67a33.35,33.35,0,0,1-.51,4.67,3.33,3.33,0,0,1-1,1.65c-1.36,1.31-2.8,2.54-4.21,3.8Z" transform="translate(-1.71 -0.9)"/>
    <path class="b77595f8-e076-4061-aa2f-3587b50d3626" d="M20.65,20.34h4.59a28.24,28.24,0,0,0-2.42,9.07A38.8,38.8,0,0,0,23.08,39c-.52-.39-.92-.67-1.3-1-.76-.62-1.5-1.26-2.25-1.89a6.12,6.12,0,0,1-2.21-4.4A44.84,44.84,0,0,1,20.77,10c.81-2,1.77-3.84,2.69-5.75.42-.87.49-.87,1.54-.47-.09.29-.17.6-.28.89a28.5,28.5,0,0,0-2.18,8.72A13,13,0,0,0,23,18.06a.52.52,0,0,1-.31.76c-.75.41-1.45.89-2.18,1.34Z" transform="translate(-1.71 -0.9)"/>
    <path class="bca8c8c9-ac53-4a11-b7a5-3679161d00c5" d="M53.9,91.42a46.55,46.55,0,0,0,5.17.5,46.65,46.65,0,0,0,5.17-.6c-.68,1.49-1.25,3-2,4.38a3.58,3.58,0,0,1-3,1.76A4,4,0,0,1,56,96a3.21,3.21,0,0,1-.66-1C54.86,93.83,54.39,92.62,53.9,91.42Z" transform="translate(-1.71 -0.9)"/>
    <path class="b77595f8-e076-4061-aa2f-3587b50d3626" d="M29.79,43.64a12.74,12.74,0,0,0,13.15,7.87c7.7-.58,13.2-3.3,15.92-2.46.88.27.42,6.23,2.62,7.8a12.89,12.89,0,0,0,9.43,2.36l-5.77,1.9a17.18,17.18,0,0,1-5.18,2c-2.78,10-.37,15.55-.37,15.55H57.08L53,77.44l.47-2.2,1.1-5.66-3-5.5-4.71-2.31-4.4-1.1s-5.34.79-5.5.79-3,.94-3,.94L34.77,59l-.11-4.67-3.24-3L27.7,47,25.39,44Z" transform="translate(-1.71 -0.9)"/>
    <path class="b77595f8-e076-4061-aa2f-3587b50d3626" d="M44.12,4.42,42.3,10.67a.31.31,0,0,0,.45.27l.26-.13A5.07,5.07,0,0,1,46.22,10l3.93,3.33-8.31,7.34L33.2,32l.15,6.92.79,2.67,1.57,2.51-8.64,2.2L23.77,36l.94-10.84,2.36-7.86,4.08-5,5.5-4.4Z" transform="translate(-1.71 -0.9)"/>
    <path class="ed14bf44-4f41-43bf-a6fb-cd680e8e4558" d="M90.89,34.44A17.23,17.23,0,0,1,84,48.13a11.92,11.92,0,0,1-9.89,2.32,86,86,0,0,1-8.81-2.21,20,20,0,0,0-9.11-.79,63.75,63.75,0,0,0-6.45,1.69,36.38,36.38,0,0,1-7.3,1.49c-5.14.38-9-2-11.92-5.91A17.43,17.43,0,0,1,27.16,32,23.06,23.06,0,0,1,37.75,14.46a18.28,18.28,0,0,1,9.76-3,1.48,1.48,0,0,1,.9.4c2,1.75,4,3.53,6,5.27a1.9,1.9,0,0,0,1.09.43c2.29,0,4.58,0,6.87,0a1.81,1.81,0,0,0,1.29-.49q2.94-2.65,5.93-5.25a1.51,1.51,0,0,1,.93-.33,19.47,19.47,0,0,1,13.19,5.74A24,24,0,0,1,90.89,34.44ZM69.5,14c1.12.42,2.12.78,3.1,1.18C77,17,81,19.25,84,23c3.58,4.35,5,9.27,3.77,14.84a11.08,11.08,0,0,1-9.58,9,17,17,0,0,1-8-.9c-2.15-.72-4.25-1.6-6.4-2.32A12.33,12.33,0,0,0,56.3,43a53.42,53.42,0,0,0-5.16,1.65,28.09,28.09,0,0,1-8.43,2.26c-5.69.39-11-2.58-12.5-9.09-1.31-5.74.23-10.75,4-15.16,3-3.57,7-5.8,11.27-7.51,1-.38,1.93-.74,2.92-1.11a1.74,1.74,0,0,0-1.89-.63,31.46,31.46,0,0,0-12,7.13C30.26,24.78,28,29.8,28.61,35.85A14.2,14.2,0,0,0,34,46.17c3.69,2.84,7.93,3.28,12.32,2.14,2.36-.62,4.63-1.54,6.93-2.37,2.91-1,5.84-1.65,8.91-.78.9.26,1.79.54,2.68.83,2.66.86,5.26,1.92,8,2.55A13,13,0,0,0,82.9,46.92c4.08-2.54,6-6.48,6.47-11.13C90,29.93,87.82,25,83.78,20.85a31.23,31.23,0,0,0-12.27-7.41C70.76,13.17,70.19,13.56,69.5,14ZM46.17,35.25a4.47,4.47,0,1,0-4.49-4.4A4.47,4.47,0,0,0,46.17,35.25Zm25.65,0a4.47,4.47,0,1,0-4.47-4.49A4.47,4.47,0,0,0,71.82,35.25Z" transform="translate(-1.71 -0.9)"/>
    <path class="b05b2399-60f3-4a1d-9b5d-133caeb3c770" d="M46.17,35.25a4.47,4.47,0,1,1,4.47-4.5A4.46,4.46,0,0,1,46.17,35.25Z" transform="translate(-1.71 -0.9)"/>
    <path class="b05b2399-60f3-4a1d-9b5d-133caeb3c770" d="M71.82,35.25a4.45,4.45,0,0,1-4.47-4.49,4.48,4.48,0,1,1,4.47,4.49Z" transform="translate(-1.71 -0.9)"/>
    <path class="bca8c8c9-ac53-4a11-b7a5-3679161d00c5" d="M24.92,5.47s-5,6.86-3.74,11.05,5.05,1.78,5.05,1.78l-2-.05-1.05-2.31L24,12.23l.32-3.57.57-2.09Z" transform="translate(-1.71 -0.9)"/>
    <path class="b77595f8-e076-4061-aa2f-3587b50d3626" d="M64.36,65.29A10.3,10.3,0,0,0,61,71.72c-.25,3.79.58,4.88.32,5.73a2.38,2.38,0,0,1-1.2,1.26h7.17l5.29.26,3.09-1.21,3.78-.2,4,.62,1.67-1.1.26-2.93-3-1.36-2.2-1.62a20.07,20.07,0,0,0-4.64.63c-1.61.56-6.19,3.32-8.53,1.6s-1.59-7.48-1.59-7.48Z" transform="translate(-1.71 -0.9)"/>
    <path class="b77595f8-e076-4061-aa2f-3587b50d3626" d="M53,78.06s.53,7.6,1.69,9.56c.9,1.54,3.81,3,3.81,3L51.11,90l-6.44-3.93-5.19-8.64-7.07.94-7.7-1.91-1.57-7.68.63-5,2.83-7.54,4.82-5L34,53.71l.47,2.67-.47,6-1.77,1.33L30,66.16l-1.13,2.17-.25.76s4.23-4.3,9-4.36,8,1.08,9.92,3.12S48.5,73,50,74.61s3,2.83,3,2.83Z" transform="translate(-1.71 -0.9)"/>
    <path class="b77595f8-e076-4061-aa2f-3587b50d3626" d="M57.79,91.18s-1.34,4,.94,7.15l-3.14-1-2.91-4.79L52,89.85Z" transform="translate(-1.71 -0.9)"/>
    <path class="b77595f8-e076-4061-aa2f-3587b50d3626" d="M97.07,19.93s2-8.25-.16-13.6L93.93,2l-2.28.47.47,2.67L94,11.83V18l1.18,1.49Z" transform="translate(-1.71 -0.9)"/>
    <path class="b77595f8-e076-4061-aa2f-3587b50d3626" d="M93.85,33.44s7.22-.86,8.48-5l-.2,4.71-3.88,4.93-3.77,2.72-.94-1.15Z" transform="translate(-1.71 -0.9)"/>
    <path class="ed14bf44-4f41-43bf-a6fb-cd680e8e4558" d="M92.52,17.82a10.41,10.41,0,0,0,.53-1.89,17.84,17.84,0,0,0-.41-5.69c-.38-1.56-1-3.06-1.54-4.59l-.53-1.52c-.52-1.42.78-2.83,2.22-3.1a2.74,2.74,0,0,1,2.54,1.09A19.21,19.21,0,0,1,99.16,7.8a54,54,0,0,1,4,13.39,40,40,0,0,1,.58,8.47,12.72,12.72,0,0,1-4.85,9.56c-1.27,1.06-2.59,2.06-3.84,3.14a3.19,3.19,0,0,0-.81,1.22A23.26,23.26,0,0,1,91,49a23.19,23.19,0,0,1-1.58,1.84c-.36.36-.36.62,0,1A24.7,24.7,0,0,1,94,58.39a23.91,23.91,0,0,1,2.09,6.19,16.49,16.49,0,0,1,0,6.6,10.23,10.23,0,0,1-6.51,7.73,14.8,14.8,0,0,1-6.11.93,21.33,21.33,0,0,1-3.27-.49,1,1,0,0,0-1.17.43c-1.33,2-2.6,4-4,5.94a13,13,0,0,1-3.36,3.33,15.73,15.73,0,0,1-4,1.91c-.8.24-.88,1.05-1.18,1.64-.76,1.52-1.34,3.13-2.14,4.62a5,5,0,0,1-2.87,2.15c-.68.26-1.41.42-2.12.62a1,1,0,0,1-.45,0,10.3,10.3,0,0,1-4.24-1.73,6.9,6.9,0,0,1-1.95-3c-.48-1.22-1-2.41-1.55-3.62-.34-.81-1.16-.78-1.8-1A13.62,13.62,0,0,1,45,88c-2-1.8-3.16-4.16-4.67-6.3-.47-.65-.93-1.31-1.43-1.94a1.16,1.16,0,0,0-1.18-.43,27.92,27.92,0,0,1-5,.45c-3.42-.22-6.54-1.26-8.76-4.15a11.29,11.29,0,0,1-1.83-3.79,16,16,0,0,1-.43-6.22,18.62,18.62,0,0,1,1.3-4.82,38.4,38.4,0,0,1,2.49-5.07,29.89,29.89,0,0,1,2.39-3.14c.12-.16.28-.28.41-.43.82-.86.8-.84,0-1.73A21.27,21.27,0,0,1,25,45.86c-.41-.82-.85-1.64-1.22-2.48-.47-1.05-1.5-1.46-2.29-2.15l-3.46-3a11.25,11.25,0,0,1-3.12-4.83,11.76,11.76,0,0,1-.61-3.22,40.54,40.54,0,0,1,0-5.17A41.21,41.21,0,0,1,15,20.76c.19-1.06.32-2.13.58-3.16a44.35,44.35,0,0,1,1.26-4.26c.74-2.09,1.49-4.19,2.43-6.2a16.25,16.25,0,0,1,4-5.52,2.43,2.43,0,0,1,3.26-.05,2.37,2.37,0,0,1,.91,2.81c-.52,1.49-1.16,3-1.59,4.47-.38,1.34-.47,2.77-.83,4.12a8,8,0,0,0,.17,4,2.47,2.47,0,0,0,.38.61c.17-.15.39-.26.49-.44a23,23,0,0,1,3.11-4.42,33.18,33.18,0,0,1,5.58-4.94A34.34,34.34,0,0,1,41.62,4c1.67-.67,3.42-1.14,5.15-1.65,1.24-.35,2.5-.62,3.76-.9.4-.09.81-.08,1.22-.16,3.48-.66,7-.32,10.51-.38a31.71,31.71,0,0,1,7.45,1,40.34,40.34,0,0,1,7.54,2.48,32.61,32.61,0,0,1,11.43,8.14,30.47,30.47,0,0,1,3.42,5,3.46,3.46,0,0,0,.22.31ZM59.78,3.26A42.24,42.24,0,0,0,38.59,8.41,24.39,24.39,0,0,0,26.67,21.77,30.88,30.88,0,0,0,25,34.27,23.44,23.44,0,0,0,35.37,53a36.06,36.06,0,0,0,12.76,5.41,43.19,43.19,0,0,0,12.19,1.37,46.37,46.37,0,0,0,18.5-4.5c8.88-4.49,13.84-11.6,14.25-21.67a27.73,27.73,0,0,0-2.46-13.25A27.37,27.37,0,0,0,77.82,7.59,40.1,40.1,0,0,0,59.78,3.26ZM42.15,78.78l-.09.25a1,1,0,0,0,0,.18c1.32,1.77,2.64,3.53,3.94,5.31a11.23,11.23,0,0,0,7.31,4.68,36.49,36.49,0,0,0,5.76.75,28.63,28.63,0,0,0,5.19-.63,11.54,11.54,0,0,0,7.63-4.75c1.07-1.46,2.15-2.91,3.23-4.37l1-1.31a4.27,4.27,0,0,0-1,0,15.74,15.74,0,0,0-2.34.8,6.86,6.86,0,0,1-4.85.45c-.9-.25-1.77-.61-2.66-.9a1.45,1.45,0,0,0-.68-.08,27.4,27.4,0,0,1-10.6.1,2.82,2.82,0,0,0-1.75.22c-2.54,1.1-5.06,1.39-7.62,0A11.62,11.62,0,0,0,42.15,78.78Zm21.34-1.45c-.26-.78-.53-1.51-.74-2.26a11.12,11.12,0,0,1,6.3-13.72,16.41,16.41,0,0,1,10.63-1c1.07.24,2.12.6,3.29.94-.17-2.06-.33-4.08-.51-6.22-7.2,4.7-15.21,6.41-23.45,6.44S42.76,59.81,35.57,55.1l-.5,6.15.48-.18a17.36,17.36,0,0,1,11.18-.59,12.09,12.09,0,0,1,8,6.31,11.35,11.35,0,0,1,.55,8.3c-.21.75-.47,1.48-.71,2.22C56,77.89,61.77,77.91,63.49,77.33ZM42.77,61.55a4,4,0,0,0-1.39.41A7.28,7.28,0,0,0,39,65.45a18.07,18.07,0,0,0-.76,7c0,.66-.16.87-.77,1-1.39.26-2.77.61-4.16.89-.46.09-.64.31-.55.76l.18.77c.12.48.4.63.92.56,1.1-.14,2.21-.25,3.32-.32a20.71,20.71,0,0,1,8.16.76,9.59,9.59,0,0,0,2.83.41,4.68,4.68,0,0,0,4.22-2.19A6.08,6.08,0,0,0,53.3,71,10.73,10.73,0,0,0,42.77,61.55ZM79.84,71h0c-.06-.87-.08-1.75-.19-2.61a10.29,10.29,0,0,0-2.72-6.17,1.51,1.51,0,0,0-1.32-.55,29,29,0,0,0-3.24.41,10.2,10.2,0,0,0-7.64,10.47,4.88,4.88,0,0,0,5.38,4.77,18.53,18.53,0,0,0,2.76-.48c1-.21,2.08-.52,3.13-.65a33.66,33.66,0,0,1,7.77.23c1,.12,1.23,0,1.4-1.08.09-.56,0-.88-.66-1-1.41-.26-2.81-.62-4.22-.9-.5-.1-.63-.32-.59-.81S79.84,71.54,79.84,71Zm7.06,5.36a1.61,1.61,0,0,0,.22,0,7.29,7.29,0,0,0,5.28-4.1,11.51,11.51,0,0,0,.54-7.63A23,23,0,0,0,87.49,54.4c-1.29-1.48-1.31-1.48-2.74-.16a1.06,1.06,0,0,0-.27.77c.16,2.08.38,4.17.52,6.25a1.36,1.36,0,0,0,.54,1.15,9.59,9.59,0,0,1,3.61,5.53c.09.36.17.73.25,1.1l-.15.06a9.19,9.19,0,0,0-4-4.94A15.8,15.8,0,0,0,79.17,62c.54.81,1.09,1.5,1.49,2.26A12.86,12.86,0,0,1,82,70.55a.82.82,0,0,0,.76,1c1.15.26,2.26.65,3.4,1a.93.93,0,0,1,.8,1C86.9,74.4,86.9,75.34,86.9,76.36Zm-55.77,0a12.37,12.37,0,0,1-.21-1.47c0-.5.08-1,.11-1.5a1,1,0,0,1,.73-.89c.77-.24,1.54-.51,2.31-.74.58-.18,1.39-.14,1.7-.53S36,70,36,69.41a11.47,11.47,0,0,1,2.17-6.48c.21-.28.45-.55.68-.82-4.56.75-8.43,2.45-10.25,7.2a2.64,2.64,0,0,1-.06-.26c0-.11,0-.21,0-.32a10.16,10.16,0,0,1,3.89-6.39,1.11,1.11,0,0,0,.46-.93c.15-2.15.36-4.29.54-6.44,0-.18,0-.44-.07-.54-.5-.48-1-.91-1.53-1.33a1.12,1.12,0,0,0-.2.1A22.79,22.79,0,0,0,24.86,66a10,10,0,0,0,1.42,7.41A7.2,7.2,0,0,0,31.13,76.35ZM95,38.79l.2.13c1.41-1.26,2.85-2.49,4.21-3.8a3.33,3.33,0,0,0,1-1.65,33.35,33.35,0,0,0,.51-4.67c.31-8.84-2.25-17-6.34-24.67-.42-.8-.6-.83-1.52-.38a1.09,1.09,0,0,0,0,.24c.58,1.69,1.24,3.35,1.72,5.07a16,16,0,0,1,.29,8.78c-.15.53-.11.79.43,1.06a18.55,18.55,0,0,1,1.94,1.28l-.11.11H92.69C95.39,26.26,95.71,32.46,95,38.79ZM20.65,20.34l-.12-.18c.73-.45,1.43-.93,2.18-1.34a.52.52,0,0,0,.31-.76,13,13,0,0,1-.48-4.72,28.5,28.5,0,0,1,2.18-8.72c.11-.29.19-.6.28-.89-1.05-.4-1.12-.4-1.54.47C22.54,6.11,21.58,8,20.77,10a44.84,44.84,0,0,0-3.45,21.74,6.12,6.12,0,0,0,2.21,4.4c.75.63,1.49,1.27,2.25,1.89.38.3.78.58,1.3,1a38.8,38.8,0,0,1-.26-9.54,28.24,28.24,0,0,1,2.42-9.07ZM53.9,91.42c.49,1.2,1,2.41,1.48,3.6A3.21,3.21,0,0,0,56,96a4,4,0,0,0,3.16,1.47,3.58,3.58,0,0,0,3-1.76c.79-1.38,1.36-2.89,2-4.38a46.65,46.65,0,0,1-5.17.6A46.55,46.55,0,0,1,53.9,91.42Z" transform="translate(-1.71 -0.9)"/>
  </g>
</svg>
