<svg id="Capa_1" enable-background="new 0 0 512 512" height="512" viewBox="0 0 512 512" width="512" xmlns="http://www.w3.org/2000/svg"><g><path d="m256 0c-143.552 0-256 112.449-256 256s112.448 256 256 256 256-112.449 256-256-112.448-256-256-256zm0 472c-121.121 0-216-94.878-216-216s94.879-216 216-216 216 94.878 216 216-94.879 216-216 216z" fill="white"/><path d="m316 196h40c0-44.112-35.888-80-80-80v-40h-40v40c-44.112 0-80 35.888-80 80s35.888 80 80 80v80c-22.056 0-40-17.944-40-40h-40c0 44.112 35.888 80 80 80v40h40v-40c44.112 0 80-35.888 80-80s-35.888-80-80-80v-80c22.056 0 40 17.944 40 40zm0 120c0 22.056-17.944 40-40 40v-80c22.056 0 40 17.944 40 40zm-80-80c-22.056 0-40-17.944-40-40s17.944-40 40-40z" fill="white"/></g></svg>