<?xml version="1.0" encoding="utf-8"?>
<!-- Generator: Adobe Illustrator 23.0.5, SVG Export Plug-In . SVG Version: 6.00 Build 0)  -->
<svg version="1.1" id="Слой_1" xmlns="http://www.w3.org/2000/svg" xmlns:xlink="http://www.w3.org/1999/xlink" x="0px" y="0px"
	 viewBox="0 0 32 32" style="enable-background:new 0 0 32 32;" xml:space="preserve">
<style type="text/css">
	.st0{fill:#FFFFFF;}
</style>
<path class="st0" d="M0,0"/>
<g>
	<path class="st0" d="M12.3,13.9c0.7,0.7,1.6,1.2,2.6,1.5c1.7,0.4,3.3,0,4.6-1.2c1.9-1.8,3.6-3.6,5.4-5.4C24.9,8.7,25,8.6,25,8.5
		c0-0.1-0.2-0.1-0.3-0.1c-0.7,0-1.3,0-2,0c-0.2,0-0.4,0.1-0.6,0.2c-1.2,1.2-2.5,2.5-3.7,3.7c-0.2,0.2-0.4,0.4-0.7,0.5
		c-1.3,0.9-3,0.8-4.2-0.4c-1.1-1.1-2.2-2.1-3.2-3.2c-0.6-0.6-1.2-1-1.6-1l-1.7,0C7,8.5,7.1,8.7,7.2,8.8
		C8.9,10.5,10.6,12.2,12.3,13.9z"/>
	<path class="st0" d="M23.7,22.2c-0.4-0.5-0.9-0.9-1.4-1.4c-0.4-0.5-1-0.9-1.4-1.4c-0.5-0.6-1.1-1.2-1.7-1.7
		c-0.8-0.7-1.8-1.1-2.9-1.2c-0.5,0-1,0-1.4,0.1c-0.8,0.2-1.5,0.5-2.1,1c-0.8,0.7-1.6,1.5-2.3,2.3c-0.2,0.2-0.5,0.5-0.7,0.7
		c-0.3,0.3-0.6,0.5-0.8,0.8c-0.3,0.3-0.6,0.6-0.9,0.9c-0.3,0.4-0.8,0.7-1,1.1l2.1,0c0.4,0,0.6-0.1,0.9-0.3c1.3-1.3,2.6-2.6,3.9-3.9
		c0.6-0.6,1.4-0.9,2.2-0.9c0.9,0,1.7,0.3,2.3,0.9c1.2,1.2,2.5,2.4,3.7,3.7c0.4,0.4,0.6,0.6,1,0.6l2.1,0L23.7,22.2z"/>
</g>
<g>
	<path class="st0" d="M16,2.3c7.6,0,13.7,6.1,13.7,13.7S23.6,29.7,16,29.7S2.3,23.6,2.3,16S8.4,2.3,16,2.3 M16,0C7.2,0,0,7.2,0,16
		s7.2,16,16,16s16-7.2,16-16S24.8,0,16,0L16,0z"/>
</g>
</svg>
